<?xml version="1.0" encoding="UTF-8" standalone="no"?>
<svg
   xmlns:dc="http://purl.org/dc/elements/1.1/"
   xmlns:cc="http://creativecommons.org/ns#"
   xmlns:rdf="http://www.w3.org/1999/02/22-rdf-syntax-ns#"
   xmlns:svg="http://www.w3.org/2000/svg"
   xmlns="http://www.w3.org/2000/svg"
   viewBox="0 0 330 110"
   height="110"
   width="330"
   xml:space="preserve"
   id="svg2"
   version="1.1"><metadata
     id="metadata8"><rdf:RDF><cc:Work
         rdf:about=""><dc:format>image/svg+xml</dc:format><dc:type
           rdf:resource="http://purl.org/dc/dcmitype/StillImage" /><dc:title></dc:title></cc:Work></rdf:RDF></metadata><defs
     id="defs6"><clipPath
       id="clipPath18"
       clipPathUnits="userSpaceOnUse"><path
         id="path16"
         d="M 0,283.46 H 283.46 V 0 H 0 Z" /></clipPath><clipPath
       id="clipPath114"
       clipPathUnits="userSpaceOnUse"><path
         id="path112"
         d="m 47.389,153.184 c 0,-3 2.431,-5.43 5.429,-5.43 v 0 c 3.001,0 5.432,2.43 5.432,5.43 v 0 c 0,3 -2.431,5.431 -5.432,5.431 v 0 c -2.998,0 -5.429,-2.431 -5.429,-5.431" /></clipPath><radialGradient
       id="radialGradient128"
       spreadMethod="pad"
       gradientTransform="matrix(18.560617,0,0,-18.560617,47.148552,159.09163)"
       gradientUnits="userSpaceOnUse"
       r="1"
       cy="0"
       cx="0"
       fy="0"
       fx="0"><stop
         id="stop120"
         offset="0"
         style="stop-opacity:1;stop-color:#4dbf5e" /><stop
         id="stop122"
         offset="0.27392702"
         style="stop-opacity:1;stop-color:#4dbf5e" /><stop
         id="stop124"
         offset="0.730769"
         style="stop-opacity:1;stop-color:#59caf5" /><stop
         id="stop126"
         offset="1"
         style="stop-opacity:1;stop-color:#59caf5" /></radialGradient><clipPath
       id="clipPath138"
       clipPathUnits="userSpaceOnUse"><path
         id="path136"
         d="M 44.918,174.229 C 34.178,169.393 26.7,158.597 26.7,146.056 v 0 c 0,-17.057 13.827,-30.883 30.883,-30.883 v 0 c 5.926,0 11.466,1.67 16.168,4.568 v 0 c 8.069,4.967 13.676,13.544 14.58,23.481 v 0 c 0.048,0.534 0.186,2.241 0.208,2.52 v 0 c 0.009,0.084 0.013,0.168 0.018,0.252 v 0 c 0.015,0.197 0.024,0.392 0.034,0.585 v 0 c 0.001,0.091 0.003,0.182 0.006,0.275 v 0 c 0.004,0.2 0.004,0.399 0,0.598 v 0 c 0,0.073 0,0.145 -0.005,0.219 v 0 c -0.006,0.271 -0.018,0.545 -0.04,0.814 v 0 c 0,0.003 -0.002,0.008 -0.002,0.012 v 0 c -0.021,0.264 -0.05,0.523 -0.085,0.784 v 0 c -0.007,0.067 -0.017,0.132 -0.026,0.199 v 0 c -0.03,0.203 -0.06,0.402 -0.097,0.601 v 0 c -0.011,0.069 -0.025,0.138 -0.039,0.206 v 0 c -0.041,0.216 -0.087,0.427 -0.138,0.639 v 0 c -0.009,0.043 -0.02,0.085 -0.029,0.126 v 0 c -0.073,0.298 -0.093,0.469 -0.166,0.71 v 0 c -0.043,0.224 -0.119,0.367 -0.221,0.728 v 0 c -1.176,3.217 -3.322,5.802 -6.135,7.125 v 0 c -0.057,0.028 -0.115,0.055 -0.17,0.082 v 0 c -0.039,0.017 -0.078,0.031 -0.115,0.048 v 0 c -0.061,0.026 -0.124,0.054 -0.184,0.078 v 0 c -0.112,0.046 -0.225,0.092 -0.338,0.134 v 0 c -0.018,0.006 -0.035,0.013 -0.052,0.02 v 0 c -0.671,0.246 -1.374,0.425 -2.104,0.524 v 0 c -0.765,0.103 -1.523,0.111 -2.273,0.041 v 0 c 0.04,0.004 0.075,0.008 0.111,0.012 v 0 c -0.04,-0.004 -0.083,-0.01 -0.126,-0.012 v 0 c -0.062,-0.008 -0.123,-0.013 -0.182,-0.021 v 0 c -0.194,-0.02 -0.387,-0.05 -0.581,-0.082 v 0 c -1.789,-0.306 -3.487,-1.082 -4.986,-2.228 v 0 l 0.079,0.053 c 0,0 -1.365,-0.962 -2.892,-3.532 v 0 c -0.848,-1.431 -1.749,-3.361 -2.491,-5.896 v 0 c -0.053,-0.202 -0.11,-0.399 -0.167,-0.597 v 0 c 0,-0.001 -0.003,-0.003 -0.003,-0.003 v 0 c -0.479,-1.767 -1.143,-3.071 -1.779,-4.182 v 0 c -0.801,-1.401 -1.64,-2.471 -2.882,-3.496 v 0 c -2.478,-2.305 -5.585,-3.616 -8.834,-3.478 v 0 c -0.502,0.016 -1.006,0.063 -1.51,0.146 v 0 c -7.136,1.208 -11.749,9.13 -10.301,17.696 v 0 c 0.014,0.082 0.031,0.162 0.046,0.242 v 0 c 0.778,4.509 3.097,8.296 6.186,10.643 v 0 c 1.341,1.02 2.828,1.764 4.392,2.183 v 0 c 0.502,0.132 1.009,0.234 1.525,0.297 v 0 c 0.67,0.095 1.35,0.128 2.035,0.098 v 0 c 0.135,-0.006 0.274,-0.017 0.417,-0.029 v 0 c 0.824,-0.074 1.747,-0.245 2.758,-0.581 v 0 c 0.511,-0.169 1.042,-0.376 1.599,-0.635 v 0 c 2.18,-1.021 3.556,-1.764 4.858,-2.22 v 0 c 0.003,-0.004 0.009,-0.006 0.014,-0.007 v 0 c 0.004,-0.002 0.008,-0.002 0.013,-0.005 v 0 c 0.185,-0.067 0.371,-0.124 0.557,-0.175 v 0 c 0.019,-0.006 0.038,-0.011 0.058,-0.015 v 0 c 3.007,-0.805 6.05,0.469 6.983,3.025 v 0 c 0.613,1.678 0.175,3.522 -0.996,4.965 v 0 c -0.418,0.515 -0.929,0.977 -1.519,1.364 v 0 c -0.596,0.432 -1.354,0.889 -2.295,1.304 v 0 c -2.975,1.308 -5.828,1.384 -7.095,1.505 v 0 c -0.59,0.035 -1.188,0.056 -1.787,0.056 v 0 c -4.513,0 -8.8,-0.969 -12.665,-2.708 m 35.837,-14.252 c 0.007,-0.003 0.013,-0.005 0.02,-0.007 v 0 c -0.02,0.007 -0.041,0.016 -0.063,0.023 v 0 c 0.015,-0.005 0.029,-0.011 0.043,-0.016 m 0.037,-0.014 c -0.006,0.002 -0.011,0.005 -0.017,0.007 v 0 c 0.006,-0.003 0.011,-0.005 0.017,-0.007" /></clipPath><radialGradient
       id="radialGradient150"
       spreadMethod="pad"
       gradientTransform="matrix(26.371592,0,0,-26.371592,45.990654,139.86433)"
       gradientUnits="userSpaceOnUse"
       r="1"
       cy="0"
       cx="0"
       fy="0"
       fx="0"><stop
         id="stop144"
         offset="0"
         style="stop-opacity:1;stop-color:#b3e5e4" /><stop
         id="stop146"
         offset="0.96863558"
         style="stop-opacity:1;stop-color:#40c1f3" /><stop
         id="stop148"
         offset="1"
         style="stop-opacity:1;stop-color:#40c1f3" /></radialGradient><clipPath
       id="clipPath160"
       clipPathUnits="userSpaceOnUse"><path
         id="path158"
         d="M 33.668,165.592 C 29.313,160.27 26.7,153.469 26.7,146.056 v 0 c 0,-1.28 0.079,-2.543 0.23,-3.78 v 0 c 0.216,1.971 0.847,4.078 1.845,6.233 v 0 c -0.017,3.206 0.543,6.619 1.751,10.019 v 0 c 1.255,3.532 3.064,6.64 5.207,9.173 v 0 c -0.711,-0.683 -1.4,-1.39 -2.065,-2.109" /></clipPath><radialGradient
       id="radialGradient172"
       spreadMethod="pad"
       gradientTransform="matrix(18.943777,13.328192,9.7743435,-13.892774,48.892593,160.32976)"
       gradientUnits="userSpaceOnUse"
       r="1"
       cy="0"
       cx="0"
       fy="0"
       fx="0"><stop
         id="stop166"
         offset="0"
         style="stop-opacity:1;stop-color:#4dbf5c" /><stop
         id="stop168"
         offset="0.37484762"
         style="stop-opacity:1;stop-color:#4dbf5c" /><stop
         id="stop170"
         offset="1"
         style="stop-opacity:1;stop-color:#5ac1ea" /></radialGradient><clipPath
       id="clipPath182"
       clipPathUnits="userSpaceOnUse"><path
         id="path180"
         d="M 0,283.46 H 283.46 V 0 H 0 Z" /></clipPath><clipPath
       id="clipPath190"
       clipPathUnits="userSpaceOnUse"><path
         id="path188"
         d="M 26.7001,167.7 H 82.9395 V 115.173 H 26.7001 Z" /></clipPath><clipPath
       id="clipPath194"
       clipPathUnits="userSpaceOnUse"><path
         id="path192"
         d="M 26.7002,167.7 H 82.9395 V 115.173 H 26.7002 Z" /></clipPath><clipPath
       id="clipPath198"
       clipPathUnits="userSpaceOnUse"><path
         id="path196"
         d="m 53.856,115.396 c -5.319,0.825 -10.457,2.92 -14.87,6.001 4.24,-3.201 9.33,-5.334 14.87,-6.001" /></clipPath><linearGradient
       id="linearGradient204"
       spreadMethod="pad"
       gradientTransform="matrix(-29.110558,1.2656517,1.2656517,29.110558,47.777344,118.33789)"
       gradientUnits="userSpaceOnUse"
       y2="0"
       x2="1"
       y1="0"
       x1="0"><stop
         id="stop200"
         offset="0"
         style="stop-opacity:1;stop-color:#ffffff" /><stop
         id="stop202"
         offset="1"
         style="stop-opacity:1;stop-color:#231f20" /></linearGradient><clipPath
       id="clipPath208"
       clipPathUnits="userSpaceOnUse"><path
         id="path206"
         d="m 34.764,133.777 c 0.809,-0.578 1.653,-1.017 2.519,-1.345 -2.811,1.27 -4.997,3.592 -6.45,6.575 0.461,-1.104 1.084,-2.132 1.904,-3.059 0.592,-0.805 1.269,-1.538 2.027,-2.171" /></clipPath><linearGradient
       id="linearGradient214"
       spreadMethod="pad"
       gradientTransform="matrix(-29.112345,1.2657294,1.2657294,29.112345,48.508301,135.09082)"
       gradientUnits="userSpaceOnUse"
       y2="0"
       x2="1"
       y1="0"
       x1="0"><stop
         id="stop210"
         offset="0"
         style="stop-opacity:1;stop-color:#ffffff" /><stop
         id="stop212"
         offset="1"
         style="stop-opacity:1;stop-color:#231f20" /></linearGradient><clipPath
       id="clipPath218"
       clipPathUnits="userSpaceOnUse"><path
         id="path216"
         d="m 34.764,133.777 c 0.809,-0.578 1.653,-1.017 2.519,-1.345 -2.811,1.27 -4.997,3.592 -6.45,6.575 0.461,-1.104 1.084,-2.132 1.904,-3.059 0.592,-0.805 1.269,-1.538 2.027,-2.171" /></clipPath><linearGradient
       id="linearGradient224"
       spreadMethod="pad"
       gradientTransform="matrix(-29.112345,1.2657294,1.2657294,29.112345,48.508301,135.09082)"
       gradientUnits="userSpaceOnUse"
       y2="0"
       x2="1"
       y1="0"
       x1="0"><stop
         id="stop220"
         offset="0"
         style="stop-opacity:1;stop-color:#ffffff" /><stop
         id="stop222"
         offset="1"
         style="stop-opacity:1;stop-color:#231f20" /></linearGradient><clipPath
       id="clipPath228"
       clipPathUnits="userSpaceOnUse"><path
         id="path226"
         d="m 37.283,132.432 c 0.291,-0.132 0.585,-0.276 0.898,-0.366 -0.307,0.11 -0.607,0.234 -0.898,0.366" /></clipPath><linearGradient
       id="linearGradient234"
       spreadMethod="pad"
       gradientTransform="matrix(-29.070251,1.2638993,1.2638993,29.070251,48.348633,131.78711)"
       gradientUnits="userSpaceOnUse"
       y2="0"
       x2="1"
       y1="0"
       x1="0"><stop
         id="stop230"
         offset="0"
         style="stop-opacity:1;stop-color:#ffffff" /><stop
         id="stop232"
         offset="1"
         style="stop-opacity:1;stop-color:#231f20" /></linearGradient><clipPath
       id="clipPath238"
       clipPathUnits="userSpaceOnUse"><path
         id="path236"
         d="m 52.949,134.821 c 8.87,4.156 22.402,1.507 29.99,-6.385 -7.588,7.892 -21.274,10.853 -29.99,6.385" /></clipPath><linearGradient
       id="linearGradient244"
       spreadMethod="pad"
       gradientTransform="matrix(-29.11076,1.2656605,1.2656605,29.11076,48.446777,133.73828)"
       gradientUnits="userSpaceOnUse"
       y2="0"
       x2="1"
       y1="0"
       x1="0"><stop
         id="stop240"
         offset="0"
         style="stop-opacity:1;stop-color:#ffffff" /><stop
         id="stop242"
         offset="1"
         style="stop-opacity:1;stop-color:#231f20" /></linearGradient><clipPath
       id="clipPath248"
       clipPathUnits="userSpaceOnUse"><path
         id="path246"
         d="m 52.949,134.821 c -7.538,-3.532 -11.019,-3.848 -14.768,-2.755 3.091,-1.097 5.901,-1.789 14.768,2.755" /></clipPath><linearGradient
       id="linearGradient254"
       spreadMethod="pad"
       gradientTransform="matrix(-29.109266,1.2655956,1.2655956,29.109266,48.414551,132.99512)"
       gradientUnits="userSpaceOnUse"
       y2="0"
       x2="1"
       y1="0"
       x1="0"><stop
         id="stop250"
         offset="0"
         style="stop-opacity:1;stop-color:#ffffff" /><stop
         id="stop252"
         offset="1"
         style="stop-opacity:1;stop-color:#231f20" /></linearGradient><clipPath
       id="clipPath258"
       clipPathUnits="userSpaceOnUse"><path
         id="path256"
         d="m 52.949,134.821 c -7.538,-3.532 -11.019,-3.848 -14.768,-2.755 3.091,-1.097 5.901,-1.789 14.768,2.755" /></clipPath><linearGradient
       id="linearGradient264"
       spreadMethod="pad"
       gradientTransform="matrix(-29.109266,1.2655956,1.2655956,29.109266,48.414551,132.99512)"
       gradientUnits="userSpaceOnUse"
       y2="0"
       x2="1"
       y1="0"
       x1="0"><stop
         id="stop260"
         offset="0"
         style="stop-opacity:1;stop-color:#ffffff" /><stop
         id="stop262"
         offset="1"
         style="stop-opacity:1;stop-color:#231f20" /></linearGradient><clipPath
       id="clipPath268"
       clipPathUnits="userSpaceOnUse"><path
         id="path266"
         d="m 52.949,134.821 c -8.867,-4.544 -11.677,-3.852 -14.768,-2.755 -0.313,0.09 -0.607,0.234 -0.898,0.366 -0.866,0.328 -1.71,0.767 -2.519,1.345 -0.758,0.633 -1.435,1.366 -2.027,2.171 -0.82,0.927 -1.443,1.955 -1.904,3.059 -1.326,2.719 -2.041,5.986 -2.058,9.502 -0.999,-2.155 -1.629,-4.262 -1.845,-6.233 1.04,-8.514 5.542,-15.957 12.056,-20.879 4.413,-3.081 9.551,-5.176 14.87,-6.001 1.222,-0.145 2.466,-0.223 3.727,-0.223 5.926,0 11.466,1.671 16.167,4.567 3.63,2.236 6.759,5.203 9.189,8.696 -7.588,7.892 -21.12,10.541 -29.99,6.385" /></clipPath><linearGradient
       id="linearGradient274"
       spreadMethod="pad"
       gradientTransform="matrix(-29.110142,1.2656336,1.2656336,29.110142,48.354492,131.60156)"
       gradientUnits="userSpaceOnUse"
       y2="0"
       x2="1"
       y1="0"
       x1="0"><stop
         id="stop270"
         offset="0"
         style="stop-opacity:1;stop-color:#ffffff" /><stop
         id="stop272"
         offset="1"
         style="stop-opacity:1;stop-color:#231f20" /></linearGradient><clipPath
       id="clipPath278"
       clipPathUnits="userSpaceOnUse"><path
         id="path276"
         d="m 30.526,158.527 c 1.255,3.534 3.064,6.641 5.207,9.173 -0.711,-0.682 -1.4,-1.389 -2.065,-2.108 -4.355,-5.322 -6.968,-12.123 -6.968,-19.537 0,-1.28 0.079,-2.542 0.23,-3.779 0.216,1.971 0.846,4.078 1.845,6.233 -0.017,3.205 0.543,6.619 1.751,10.018" /></clipPath><linearGradient
       id="linearGradient284"
       spreadMethod="pad"
       gradientTransform="matrix(-29.111017,1.2656716,1.2656716,29.111017,49.337891,154.20508)"
       gradientUnits="userSpaceOnUse"
       y2="0"
       x2="1"
       y1="0"
       x1="0"><stop
         id="stop280"
         offset="0"
         style="stop-opacity:1;stop-color:#ffffff" /><stop
         id="stop282"
         offset="1"
         style="stop-opacity:1;stop-color:#231f20" /></linearGradient><clipPath
       id="clipPath288"
       clipPathUnits="userSpaceOnUse"><path
         id="path286"
         d="m 52.949,134.821 c -8.867,-4.544 -11.677,-3.852 -14.768,-2.755 -0.313,0.09 -0.607,0.234 -0.898,0.366 -0.866,0.328 -1.71,0.767 -2.519,1.345 -0.758,0.633 -1.435,1.366 -2.027,2.171 -0.82,0.927 -1.443,1.955 -1.904,3.059 -1.326,2.719 -2.041,5.986 -2.058,9.502 -0.017,3.205 0.543,6.619 1.751,10.018 1.255,3.534 3.064,6.641 5.207,9.173 -0.711,-0.682 -1.4,-1.389 -2.065,-2.108 -4.355,-5.322 -6.968,-12.123 -6.968,-19.537 0,-1.28 0.079,-2.542 0.23,-3.779 1.04,-8.514 5.542,-15.957 12.056,-20.879 4.413,-3.081 9.551,-5.176 14.87,-6.001 1.222,-0.145 2.466,-0.223 3.727,-0.223 5.926,0 11.466,1.671 16.167,4.567 3.63,2.236 6.759,5.203 9.189,8.696 -7.588,7.892 -21.12,10.541 -29.99,6.385" /></clipPath><linearGradient
       id="linearGradient294"
       spreadMethod="pad"
       gradientTransform="matrix(-29.110142,1.2656336,1.2656336,29.110142,48.777832,141.32959)"
       gradientUnits="userSpaceOnUse"
       y2="0"
       x2="1"
       y1="0"
       x1="0"><stop
         id="stop290"
         offset="0"
         style="stop-opacity:1;stop-color:#ffffff" /><stop
         id="stop292"
         offset="1"
         style="stop-opacity:1;stop-color:#231f20" /></linearGradient><mask
       id="mask296"
       height="1"
       width="1"
       y="0"
       x="0"
       maskUnits="userSpaceOnUse"><g
         id="g410"><g
           style="opacity:0.69999701"
           id="g408"
           clip-path="url(#clipPath190)"><path
             id="path298"
             style="fill:#000000;fill-opacity:1;fill-rule:nonzero;stroke:none"
             d="M 26.7,167.7 H 82.939 V 115.173 H 26.7 Z" /><g
             id="g406"><g
               id="g300" /><g
               id="g404"><g
                 id="g402"
                 clip-path="url(#clipPath194)"><g
                   id="g310"><g
                     id="g308"
                     clip-path="url(#clipPath198)"><g
                       id="g306"><g
                         id="g304"><path
                           id="path302"
                           style="fill:url(#linearGradient204);stroke:none"
                           d="m 53.856,115.396 c -5.319,0.825 -10.457,2.92 -14.87,6.001 4.24,-3.201 9.33,-5.334 14.87,-6.001" /></g></g></g></g><g
                   id="g320"><g
                     id="g318"
                     clip-path="url(#clipPath208)"><g
                       id="g316"><g
                         id="g314"><path
                           id="path312"
                           style="fill:url(#linearGradient214);stroke:none"
                           d="m 34.764,133.777 c 0.809,-0.578 1.653,-1.017 2.519,-1.345 -2.811,1.27 -4.997,3.592 -6.45,6.575 0.461,-1.104 1.084,-2.132 1.904,-3.059 0.592,-0.805 1.269,-1.538 2.027,-2.171" /></g></g></g></g><g
                   id="g330"><g
                     id="g328"
                     clip-path="url(#clipPath218)"><g
                       id="g326"><g
                         id="g324"><path
                           id="path322"
                           style="fill:url(#linearGradient224);stroke:none"
                           d="m 34.764,133.777 c 0.809,-0.578 1.653,-1.017 2.519,-1.345 -2.811,1.27 -4.997,3.592 -6.45,6.575 0.461,-1.104 1.084,-2.132 1.904,-3.059 0.592,-0.805 1.269,-1.538 2.027,-2.171" /></g></g></g></g><g
                   id="g340"><g
                     id="g338"
                     clip-path="url(#clipPath228)"><g
                       id="g336"><g
                         id="g334"><path
                           id="path332"
                           style="fill:url(#linearGradient234);stroke:none"
                           d="m 37.283,132.432 c 0.291,-0.132 0.585,-0.276 0.898,-0.366 -0.307,0.11 -0.607,0.234 -0.898,0.366" /></g></g></g></g><g
                   id="g350"><g
                     id="g348"
                     clip-path="url(#clipPath238)"><g
                       id="g346"><g
                         id="g344"><path
                           id="path342"
                           style="fill:url(#linearGradient244);stroke:none"
                           d="m 52.949,134.821 c 8.87,4.156 22.402,1.507 29.99,-6.385 -7.588,7.892 -21.274,10.853 -29.99,6.385" /></g></g></g></g><g
                   id="g360"><g
                     id="g358"
                     clip-path="url(#clipPath248)"><g
                       id="g356"><g
                         id="g354"><path
                           id="path352"
                           style="fill:url(#linearGradient254);stroke:none"
                           d="m 52.949,134.821 c -7.538,-3.532 -11.019,-3.848 -14.768,-2.755 3.091,-1.097 5.901,-1.789 14.768,2.755" /></g></g></g></g><g
                   id="g370"><g
                     id="g368"
                     clip-path="url(#clipPath258)"><g
                       id="g366"><g
                         id="g364"><path
                           id="path362"
                           style="fill:url(#linearGradient264);stroke:none"
                           d="m 52.949,134.821 c -7.538,-3.532 -11.019,-3.848 -14.768,-2.755 3.091,-1.097 5.901,-1.789 14.768,2.755" /></g></g></g></g><g
                   id="g380"><g
                     id="g378"
                     clip-path="url(#clipPath268)"><g
                       id="g376"><g
                         id="g374"><path
                           id="path372"
                           style="fill:url(#linearGradient274);stroke:none"
                           d="m 52.949,134.821 c -8.867,-4.544 -11.677,-3.852 -14.768,-2.755 -0.313,0.09 -0.607,0.234 -0.898,0.366 -0.866,0.328 -1.71,0.767 -2.519,1.345 -0.758,0.633 -1.435,1.366 -2.027,2.171 -0.82,0.927 -1.443,1.955 -1.904,3.059 -1.326,2.719 -2.041,5.986 -2.058,9.502 -0.999,-2.155 -1.629,-4.262 -1.845,-6.233 1.04,-8.514 5.542,-15.957 12.056,-20.879 4.413,-3.081 9.551,-5.176 14.87,-6.001 1.222,-0.145 2.466,-0.223 3.727,-0.223 5.926,0 11.466,1.671 16.167,4.567 3.63,2.236 6.759,5.203 9.189,8.696 -7.588,7.892 -21.12,10.541 -29.99,6.385" /></g></g></g></g><g
                   id="g390"><g
                     id="g388"
                     clip-path="url(#clipPath278)"><g
                       id="g386"><g
                         id="g384"><path
                           id="path382"
                           style="fill:url(#linearGradient284);stroke:none"
                           d="m 30.526,158.527 c 1.255,3.534 3.064,6.641 5.207,9.173 -0.711,-0.682 -1.4,-1.389 -2.065,-2.108 -4.355,-5.322 -6.968,-12.123 -6.968,-19.537 0,-1.28 0.079,-2.542 0.23,-3.779 0.216,1.971 0.846,4.078 1.845,6.233 -0.017,3.205 0.543,6.619 1.751,10.018" /></g></g></g></g><g
                   id="g400"><g
                     id="g398"
                     clip-path="url(#clipPath288)"><g
                       id="g396"><g
                         id="g394"><path
                           id="path392"
                           style="fill:url(#linearGradient294);stroke:none"
                           d="m 52.949,134.821 c -8.867,-4.544 -11.677,-3.852 -14.768,-2.755 -0.313,0.09 -0.607,0.234 -0.898,0.366 -0.866,0.328 -1.71,0.767 -2.519,1.345 -0.758,0.633 -1.435,1.366 -2.027,2.171 -0.82,0.927 -1.443,1.955 -1.904,3.059 -1.326,2.719 -2.041,5.986 -2.058,9.502 -0.017,3.205 0.543,6.619 1.751,10.018 1.255,3.534 3.064,6.641 5.207,9.173 -0.711,-0.682 -1.4,-1.389 -2.065,-2.108 -4.355,-5.322 -6.968,-12.123 -6.968,-19.537 0,-1.28 0.079,-2.542 0.23,-3.779 1.04,-8.514 5.542,-15.957 12.056,-20.879 4.413,-3.081 9.551,-5.176 14.87,-6.001 1.222,-0.145 2.466,-0.223 3.727,-0.223 5.926,0 11.466,1.671 16.167,4.567 3.63,2.236 6.759,5.203 9.189,8.696 -7.588,7.892 -21.12,10.541 -29.99,6.385" /></g></g></g></g></g></g></g></g></g></mask><clipPath
       id="clipPath418"
       clipPathUnits="userSpaceOnUse"><path
         id="path416"
         d="M 26.7001,167.7 H 82.9395 V 115.173 H 26.7001 Z" /></clipPath><clipPath
       id="clipPath422"
       clipPathUnits="userSpaceOnUse"><path
         id="path420"
         d="m 53.856,115.397 c -5.319,0.824 -10.457,2.919 -14.87,6.001 4.24,-3.202 9.33,-5.334 14.87,-6.001" /></clipPath><radialGradient
       id="radialGradient428"
       spreadMethod="pad"
       gradientTransform="matrix(48.332401,0,0,-48.332401,38.258854,135.59422)"
       gradientUnits="userSpaceOnUse"
       r="1"
       cy="0"
       cx="0"
       fy="0"
       fx="0"><stop
         id="stop424"
         offset="0"
         style="stop-opacity:1;stop-color:#59caf5" /><stop
         id="stop426"
         offset="1"
         style="stop-opacity:1;stop-color:#269bd4" /></radialGradient><clipPath
       id="clipPath432"
       clipPathUnits="userSpaceOnUse"><path
         id="path430"
         d="m 34.764,133.777 c 0.809,-0.578 1.653,-1.017 2.519,-1.345 -2.811,1.27 -4.997,3.592 -6.45,6.575 0.461,-1.104 1.084,-2.132 1.904,-3.059 0.592,-0.805 1.269,-1.538 2.027,-2.171" /></clipPath><radialGradient
       id="radialGradient438"
       spreadMethod="pad"
       gradientTransform="matrix(48.332806,0,0,-48.332806,38.260883,135.59137)"
       gradientUnits="userSpaceOnUse"
       r="1"
       cy="0"
       cx="0"
       fy="0"
       fx="0"><stop
         id="stop434"
         offset="0"
         style="stop-opacity:1;stop-color:#59caf5" /><stop
         id="stop436"
         offset="1"
         style="stop-opacity:1;stop-color:#269bd4" /></radialGradient><clipPath
       id="clipPath442"
       clipPathUnits="userSpaceOnUse"><path
         id="path440"
         d="m 34.764,133.777 c 0.809,-0.578 1.653,-1.017 2.519,-1.345 -2.811,1.27 -4.997,3.592 -6.45,6.575 0.461,-1.104 1.084,-2.132 1.904,-3.059 0.592,-0.805 1.269,-1.538 2.027,-2.171" /></clipPath><radialGradient
       id="radialGradient448"
       spreadMethod="pad"
       gradientTransform="matrix(48.332806,0,0,-48.332806,38.260883,135.59137)"
       gradientUnits="userSpaceOnUse"
       r="1"
       cy="0"
       cx="0"
       fy="0"
       fx="0"><stop
         id="stop444"
         offset="0"
         style="stop-opacity:1;stop-color:#59caf5" /><stop
         id="stop446"
         offset="1"
         style="stop-opacity:1;stop-color:#269bd4" /></radialGradient><clipPath
       id="clipPath452"
       clipPathUnits="userSpaceOnUse"><path
         id="path450"
         d="m 37.283,132.432 c 0.291,-0.132 0.585,-0.276 0.898,-0.366 -0.307,0.11 -0.607,0.234 -0.898,0.366" /></clipPath><radialGradient
       id="radialGradient458"
       spreadMethod="pad"
       gradientTransform="matrix(48.110073,0,0,-48.110073,38.259392,135.57678)"
       gradientUnits="userSpaceOnUse"
       r="1"
       cy="0"
       cx="0"
       fy="0"
       fx="0"><stop
         id="stop454"
         offset="0"
         style="stop-opacity:1;stop-color:#59caf5" /><stop
         id="stop456"
         offset="1"
         style="stop-opacity:1;stop-color:#269bd4" /></radialGradient><clipPath
       id="clipPath462"
       clipPathUnits="userSpaceOnUse"><path
         id="path460"
         d="m 52.949,134.821 c 8.87,4.156 22.402,1.507 29.99,-6.385 -7.588,7.892 -21.274,10.853 -29.99,6.385" /></clipPath><radialGradient
       id="radialGradient468"
       spreadMethod="pad"
       gradientTransform="matrix(48.328613,0,0,-48.328613,38.258755,135.59195)"
       gradientUnits="userSpaceOnUse"
       r="1"
       cy="0"
       cx="0"
       fy="0"
       fx="0"><stop
         id="stop464"
         offset="0"
         style="stop-opacity:1;stop-color:#59caf5" /><stop
         id="stop466"
         offset="1"
         style="stop-opacity:1;stop-color:#269bd4" /></radialGradient><clipPath
       id="clipPath472"
       clipPathUnits="userSpaceOnUse"><path
         id="path470"
         d="m 52.949,134.821 c -7.538,-3.532 -11.019,-3.848 -14.768,-2.755 3.091,-1.097 5.901,-1.789 14.768,2.755" /></clipPath><radialGradient
       id="radialGradient478"
       spreadMethod="pad"
       gradientTransform="matrix(48.324242,0,0,-48.324242,38.259563,135.59061)"
       gradientUnits="userSpaceOnUse"
       r="1"
       cy="0"
       cx="0"
       fy="0"
       fx="0"><stop
         id="stop474"
         offset="0"
         style="stop-opacity:1;stop-color:#59caf5" /><stop
         id="stop476"
         offset="1"
         style="stop-opacity:1;stop-color:#269bd4" /></radialGradient><clipPath
       id="clipPath482"
       clipPathUnits="userSpaceOnUse"><path
         id="path480"
         d="m 52.949,134.821 c -7.538,-3.532 -11.019,-3.848 -14.768,-2.755 3.091,-1.097 5.901,-1.789 14.768,2.755" /></clipPath><radialGradient
       id="radialGradient488"
       spreadMethod="pad"
       gradientTransform="matrix(48.324242,0,0,-48.324242,38.259563,135.59061)"
       gradientUnits="userSpaceOnUse"
       r="1"
       cy="0"
       cx="0"
       fy="0"
       fx="0"><stop
         id="stop484"
         offset="0"
         style="stop-opacity:1;stop-color:#59caf5" /><stop
         id="stop486"
         offset="1"
         style="stop-opacity:1;stop-color:#269bd4" /></radialGradient><clipPath
       id="clipPath492"
       clipPathUnits="userSpaceOnUse"><path
         id="path490"
         d="m 52.949,134.821 c -8.867,-4.544 -11.677,-3.852 -14.768,-2.755 -0.313,0.09 -0.607,0.234 -0.898,0.366 -0.866,0.328 -1.71,0.767 -2.519,1.345 -0.758,0.633 -1.435,1.366 -2.027,2.171 -0.82,0.927 -1.443,1.955 -1.904,3.059 -1.326,2.719 -2.041,5.986 -2.058,9.502 -0.999,-2.155 -1.629,-4.262 -1.845,-6.233 1.04,-8.514 5.542,-15.957 12.056,-20.878 4.413,-3.082 9.551,-5.177 14.87,-6.001 1.222,-0.146 2.466,-0.224 3.727,-0.224 5.926,0 11.466,1.671 16.167,4.567 3.63,2.236 6.759,5.203 9.189,8.696 -7.588,7.892 -21.12,10.541 -29.99,6.385" /></clipPath><radialGradient
       id="radialGradient498"
       spreadMethod="pad"
       gradientTransform="matrix(48.327629,0,0,-48.327629,38.259849,135.59233)"
       gradientUnits="userSpaceOnUse"
       r="1"
       cy="0"
       cx="0"
       fy="0"
       fx="0"><stop
         id="stop494"
         offset="0"
         style="stop-opacity:1;stop-color:#59caf5" /><stop
         id="stop496"
         offset="1"
         style="stop-opacity:1;stop-color:#269bd4" /></radialGradient><clipPath
       id="clipPath502"
       clipPathUnits="userSpaceOnUse"><path
         id="path500"
         d="m 30.526,158.527 c 1.255,3.534 3.064,6.641 5.207,9.173 -0.711,-0.682 -1.4,-1.389 -2.065,-2.108 -4.355,-5.322 -6.968,-12.123 -6.968,-19.537 0,-1.28 0.079,-2.542 0.23,-3.779 0.216,1.971 0.846,4.078 1.845,6.233 -0.017,3.205 0.543,6.619 1.751,10.018" /></clipPath><radialGradient
       id="radialGradient508"
       spreadMethod="pad"
       gradientTransform="matrix(48.325867,0,0,-48.325867,38.260155,135.5943)"
       gradientUnits="userSpaceOnUse"
       r="1"
       cy="0"
       cx="0"
       fy="0"
       fx="0"><stop
         id="stop504"
         offset="0"
         style="stop-opacity:1;stop-color:#59caf5" /><stop
         id="stop506"
         offset="1"
         style="stop-opacity:1;stop-color:#269bd4" /></radialGradient><clipPath
       id="clipPath512"
       clipPathUnits="userSpaceOnUse"><path
         id="path510"
         d="m 52.949,134.821 c -8.867,-4.544 -11.677,-3.852 -14.768,-2.755 -0.313,0.09 -0.607,0.234 -0.898,0.366 -0.866,0.328 -1.71,0.767 -2.519,1.345 -0.758,0.633 -1.435,1.366 -2.027,2.171 -0.82,0.927 -1.443,1.955 -1.904,3.059 -1.326,2.719 -2.041,5.986 -2.058,9.502 -0.017,3.205 0.543,6.619 1.751,10.018 1.255,3.534 3.064,6.641 5.207,9.173 -0.711,-0.682 -1.4,-1.389 -2.065,-2.108 -4.355,-5.322 -6.968,-12.123 -6.968,-19.537 0,-1.28 0.079,-2.542 0.23,-3.779 1.04,-8.514 5.542,-15.957 12.056,-20.878 4.413,-3.082 9.551,-5.177 14.87,-6.001 1.222,-0.146 2.466,-0.224 3.727,-0.224 5.926,0 11.466,1.671 16.167,4.567 3.63,2.236 6.759,5.203 9.189,8.696 -7.588,7.892 -21.12,10.541 -29.99,6.385" /></clipPath><radialGradient
       id="radialGradient518"
       spreadMethod="pad"
       gradientTransform="matrix(48.327801,0,0,-48.327801,38.259689,135.59239)"
       gradientUnits="userSpaceOnUse"
       r="1"
       cy="0"
       cx="0"
       fy="0"
       fx="0"><stop
         id="stop514"
         offset="0"
         style="stop-opacity:1;stop-color:#59caf5" /><stop
         id="stop516"
         offset="1"
         style="stop-opacity:1;stop-color:#2aabe8" /></radialGradient><clipPath
       id="clipPath630"
       clipPathUnits="userSpaceOnUse"><path
         id="path628"
         d="M 43.9033,156.369 H 88.5996 V 115.173 H 43.9033 Z" /></clipPath><clipPath
       id="clipPath634"
       clipPathUnits="userSpaceOnUse"><path
         id="path632"
         d="M 43.9033,156.369 H 88.6006 V 115.173 H 43.9033 Z" /></clipPath><clipPath
       id="clipPath638"
       clipPathUnits="userSpaceOnUse"><path
         id="path636"
         d="M 43.9033,156.369 H 88.5996 V 115.173 H 43.9033 Z" /></clipPath><clipPath
       id="clipPath642"
       clipPathUnits="userSpaceOnUse"><path
         id="path640"
         d="m 65.726,136.739 c -4.189,-12.997 -7.581,-15.05 -11.641,-16.98 -0.391,-0.217 -0.812,-0.36 -1.226,-0.516 -1.157,-0.522 -2.401,-0.911 -3.742,-1.137 -1.347,-0.122 -2.712,-0.067 -4.07,0.14 -0.385,0.024 -0.767,0.065 -1.144,0.116 4.124,-2.042 8.769,-3.189 13.68,-3.189 5.926,0 11.466,1.671 16.167,4.567 8.07,4.968 13.677,13.544 14.581,23.482 0.048,0.534 0.186,2.241 0.208,2.519 0.009,0.085 0.013,0.169 0.019,0.253 0.014,0.197 0.023,0.392 0.032,0.585 0.002,0.091 0.004,0.182 0.007,0.275 0.004,0.2 0.004,0.399 0,0.599 0,0.072 0,0.144 -0.004,0.218 -0.007,0.271 -0.02,0.544 -0.041,0.813 0,0.004 -0.002,0.009 -0.002,0.014 -0.02,0.263 -0.05,0.522 -0.085,0.783 -0.007,0.067 -0.016,0.133 -0.026,0.199 -0.03,0.203 -0.06,0.402 -0.097,0.602 -0.011,0.067 -0.025,0.137 -0.039,0.206 -0.041,0.215 -0.087,0.426 -0.138,0.638 -0.009,0.042 -0.019,0.085 -0.029,0.126 -0.073,0.298 -0.093,0.469 -0.167,0.71 -0.041,0.224 -0.118,0.366 -0.22,0.728 -0.527,1.439 -1.247,2.749 -2.134,3.879 -9.182,-4.029 -16.906,-11.387 -19.889,-19.63" /></clipPath><linearGradient
       id="linearGradient648"
       spreadMethod="pad"
       gradientTransform="matrix(71.005394,22.70059,22.70059,-71.005394,70.988281,134.80176)"
       gradientUnits="userSpaceOnUse"
       y2="0"
       x2="1"
       y1="0"
       x1="0"><stop
         id="stop644"
         offset="0"
         style="stop-opacity:1;stop-color:#ffffff" /><stop
         id="stop646"
         offset="1"
         style="stop-opacity:1;stop-color:#231f20" /></linearGradient><mask
       id="mask650"
       height="1"
       width="1"
       y="0"
       x="0"
       maskUnits="userSpaceOnUse"><g
         id="g682"><g
           style="opacity:0.94999701"
           id="g680"
           clip-path="url(#clipPath630)"><path
             id="path652"
             style="fill:#000000;fill-opacity:1;fill-rule:nonzero;stroke:none"
             d="M 43.903,156.369 H 88.6 V 115.173 H 43.903 Z" /><g
             id="g678"><g
               id="g654" /><g
               id="g676"><g
                 id="g674"
                 clip-path="url(#clipPath634)"><g
                   id="g672"><g
                     id="g656" /><g
                     id="g670"><g
                       style="opacity:0.85000598"
                       id="g668"
                       clip-path="url(#clipPath638)"><g
                         id="g666"><g
                           id="g664"
                           clip-path="url(#clipPath642)"><g
                             id="g662"><g
                               id="g660"><path
                                 id="path658"
                                 style="fill:url(#linearGradient648);stroke:none"
                                 d="m 65.726,136.739 c -4.189,-12.997 -7.581,-15.05 -11.641,-16.98 -0.391,-0.217 -0.812,-0.36 -1.226,-0.516 -1.157,-0.522 -2.401,-0.911 -3.742,-1.137 -1.347,-0.122 -2.712,-0.067 -4.07,0.14 -0.385,0.024 -0.767,0.065 -1.144,0.116 4.124,-2.042 8.769,-3.189 13.68,-3.189 5.926,0 11.466,1.671 16.167,4.567 8.07,4.968 13.677,13.544 14.581,23.482 0.048,0.534 0.186,2.241 0.208,2.519 0.009,0.085 0.013,0.169 0.019,0.253 0.014,0.197 0.023,0.392 0.032,0.585 0.002,0.091 0.004,0.182 0.007,0.275 0.004,0.2 0.004,0.399 0,0.599 0,0.072 0,0.144 -0.004,0.218 -0.007,0.271 -0.02,0.544 -0.041,0.813 0,0.004 -0.002,0.009 -0.002,0.014 -0.02,0.263 -0.05,0.522 -0.085,0.783 -0.007,0.067 -0.016,0.133 -0.026,0.199 -0.03,0.203 -0.06,0.402 -0.097,0.602 -0.011,0.067 -0.025,0.137 -0.039,0.206 -0.041,0.215 -0.087,0.426 -0.138,0.638 -0.009,0.042 -0.019,0.085 -0.029,0.126 -0.073,0.298 -0.093,0.469 -0.167,0.71 -0.041,0.224 -0.118,0.366 -0.22,0.728 -0.527,1.439 -1.247,2.749 -2.134,3.879 -9.182,-4.029 -16.906,-11.387 -19.889,-19.63" /></g></g></g></g></g></g></g></g></g></g></g></g></mask><clipPath
       id="clipPath690"
       clipPathUnits="userSpaceOnUse"><path
         id="path688"
         d="M 43.9033,156.369 H 88.5996 V 115.173 H 43.9033 Z" /></clipPath><clipPath
       id="clipPath694"
       clipPathUnits="userSpaceOnUse"><path
         id="path692"
         d="m 65.726,136.739 c -4.189,-12.997 -7.581,-15.05 -11.641,-16.98 -0.391,-0.217 -0.812,-0.36 -1.226,-0.516 -1.157,-0.522 -2.401,-0.911 -3.742,-1.137 -1.347,-0.122 -2.712,-0.067 -4.07,0.14 -0.385,0.024 -0.767,0.065 -1.144,0.116 4.124,-2.042 8.769,-3.189 13.68,-3.189 5.926,0 11.466,1.671 16.167,4.567 8.07,4.968 13.677,13.544 14.581,23.482 0.048,0.534 0.186,2.241 0.208,2.519 0.009,0.085 0.013,0.169 0.019,0.253 0.014,0.197 0.023,0.392 0.032,0.585 0.002,0.091 0.004,0.182 0.007,0.275 0.004,0.2 0.004,0.399 0,0.599 0,0.072 0,0.144 -0.004,0.218 -0.007,0.271 -0.02,0.544 -0.041,0.813 0,0.004 -0.002,0.009 -0.002,0.014 -0.02,0.263 -0.05,0.522 -0.085,0.783 -0.007,0.067 -0.016,0.133 -0.026,0.2 -0.03,0.202 -0.06,0.401 -0.097,0.601 -0.011,0.067 -0.025,0.137 -0.039,0.206 -0.041,0.215 -0.087,0.426 -0.138,0.638 -0.009,0.042 -0.019,0.085 -0.029,0.126 -0.073,0.298 -0.093,0.469 -0.167,0.71 -0.041,0.224 -0.118,0.366 -0.22,0.728 -0.527,1.439 -1.247,2.749 -2.134,3.879 -9.182,-4.029 -16.906,-11.387 -19.889,-19.63" /></clipPath><radialGradient
       id="radialGradient700"
       spreadMethod="pad"
       gradientTransform="matrix(27.281042,27.281042,27.281042,-27.281042,65.345192,140.00693)"
       gradientUnits="userSpaceOnUse"
       r="1"
       cy="0"
       cx="0"
       fy="0"
       fx="0"><stop
         id="stop696"
         offset="0"
         style="stop-opacity:1;stop-color:#bfdf14" /><stop
         id="stop698"
         offset="1"
         style="stop-opacity:1;stop-color:#33b652" /></radialGradient><clipPath
       id="clipPath722"
       clipPathUnits="userSpaceOnUse"><path
         id="path720"
         d="m 26.7001,176.937 h 44.852 V 129.34 h -44.852 z" /></clipPath><clipPath
       id="clipPath726"
       clipPathUnits="userSpaceOnUse"><path
         id="path724"
         d="M 26.7002,176.937 H 71.8887 V 129.34 H 26.7002 Z" /></clipPath><clipPath
       id="clipPath730"
       clipPathUnits="userSpaceOnUse"><path
         id="path728"
         d="m 46.375,169.468 c 3.744,1.686 7.898,2.625 12.27,2.625 0.583,0 1.158,-0.024 1.73,-0.055 1.226,-0.118 3.99,-0.192 6.872,-1.458 0.914,-0.402 1.648,-0.845 2.227,-1.263 0.571,-0.377 1.065,-0.824 1.471,-1.321 0.098,-0.125 0.189,-0.25 0.278,-0.378 0.014,0.042 0.038,0.082 0.052,0.125 0.614,1.678 0.175,3.522 -0.996,4.965 -0.418,0.515 -0.93,0.977 -1.519,1.364 -0.596,0.432 -1.353,0.888 -2.295,1.304 -2.976,1.308 -5.828,1.384 -7.095,1.504 -0.59,0.036 -1.187,0.057 -1.787,0.057 -4.513,0 -8.8,-0.969 -12.665,-2.708 C 34.178,169.393 26.7,158.597 26.7,146.055 c 0,-6.159 1.804,-11.898 4.911,-16.715 -1.848,3.889 -2.884,8.241 -2.884,12.834 0,12.152 7.242,22.611 17.648,27.294" /></clipPath><linearGradient
       id="linearGradient736"
       spreadMethod="pad"
       gradientTransform="matrix(44.852009,0,0,-44.852009,26.700195,153.13818)"
       gradientUnits="userSpaceOnUse"
       y2="0"
       x2="1"
       y1="0"
       x1="0"><stop
         id="stop732"
         offset="0"
         style="stop-opacity:1;stop-color:#ffffff" /><stop
         id="stop734"
         offset="1"
         style="stop-opacity:1;stop-color:#231f20" /></linearGradient><clipPath
       id="clipPath740"
       clipPathUnits="userSpaceOnUse"><path
         id="path738"
         d="m 46.375,169.468 c 3.744,1.686 7.898,2.625 12.27,2.625 0.583,0 1.158,-0.024 1.73,-0.055 1.226,-0.118 3.99,-0.192 6.872,-1.458 0.914,-0.402 1.648,-0.845 2.227,-1.263 0.571,-0.377 1.065,-0.824 1.471,-1.321 0.098,-0.125 0.189,-0.25 0.278,-0.378 0.014,0.042 0.038,0.082 0.052,0.125 0.614,1.678 0.175,3.522 -0.996,4.965 -0.418,0.515 -0.93,0.977 -1.519,1.364 -0.596,0.432 -1.353,0.888 -2.295,1.304 -2.976,1.308 -5.828,1.384 -7.095,1.504 -0.59,0.036 -1.187,0.057 -1.787,0.057 -4.513,0 -8.8,-0.969 -12.665,-2.708 C 34.178,169.393 26.7,158.597 26.7,146.055 c 0,-6.159 1.804,-11.898 4.911,-16.715 -1.848,3.889 -2.884,8.241 -2.884,12.834 0,12.152 7.242,22.611 17.648,27.294" /></clipPath><linearGradient
       id="linearGradient746"
       spreadMethod="pad"
       gradientTransform="matrix(44.852009,0,0,-44.852009,26.700195,153.13818)"
       gradientUnits="userSpaceOnUse"
       y2="0"
       x2="1"
       y1="0"
       x1="0"><stop
         id="stop742"
         offset="0"
         style="stop-opacity:1;stop-color:#ffffff" /><stop
         id="stop744"
         offset="1"
         style="stop-opacity:1;stop-color:#231f20" /></linearGradient><mask
       id="mask748"
       height="1"
       width="1"
       y="0"
       x="0"
       maskUnits="userSpaceOnUse"><g
         id="g782"><g
           id="g780"
           clip-path="url(#clipPath722)"><path
             id="path750"
             style="fill:#000000;fill-opacity:1;fill-rule:nonzero;stroke:none"
             d="M 26.7,176.937 H 71.888 V 129.339 H 26.7 Z" /><g
             id="g778"><g
               id="g752" /><g
               id="g776"><g
                 id="g774"
                 clip-path="url(#clipPath726)"><g
                   id="g762"><g
                     id="g760"
                     clip-path="url(#clipPath730)"><g
                       id="g758"><g
                         id="g756"><path
                           id="path754"
                           style="fill:url(#linearGradient736);stroke:none"
                           d="m 46.375,169.468 c 3.744,1.686 7.898,2.625 12.27,2.625 0.583,0 1.158,-0.024 1.73,-0.055 1.226,-0.118 3.99,-0.192 6.872,-1.458 0.914,-0.402 1.648,-0.845 2.227,-1.263 0.571,-0.377 1.065,-0.824 1.471,-1.321 0.098,-0.125 0.189,-0.25 0.278,-0.378 0.014,0.042 0.038,0.082 0.052,0.125 0.614,1.678 0.175,3.522 -0.996,4.965 -0.418,0.515 -0.93,0.977 -1.519,1.364 -0.596,0.432 -1.353,0.888 -2.295,1.304 -2.976,1.308 -5.828,1.384 -7.095,1.504 -0.59,0.036 -1.187,0.057 -1.787,0.057 -4.513,0 -8.8,-0.969 -12.665,-2.708 C 34.178,169.393 26.7,158.597 26.7,146.055 c 0,-6.159 1.804,-11.898 4.911,-16.715 -1.848,3.889 -2.884,8.241 -2.884,12.834 0,12.152 7.242,22.611 17.648,27.294" /></g></g></g></g><g
                   id="g772"><g
                     id="g770"
                     clip-path="url(#clipPath740)"><g
                       id="g768"><g
                         id="g766"><path
                           id="path764"
                           style="fill:url(#linearGradient746);stroke:none"
                           d="m 46.375,169.468 c 3.744,1.686 7.898,2.625 12.27,2.625 0.583,0 1.158,-0.024 1.73,-0.055 1.226,-0.118 3.99,-0.192 6.872,-1.458 0.914,-0.402 1.648,-0.845 2.227,-1.263 0.571,-0.377 1.065,-0.824 1.471,-1.321 0.098,-0.125 0.189,-0.25 0.278,-0.378 0.014,0.042 0.038,0.082 0.052,0.125 0.614,1.678 0.175,3.522 -0.996,4.965 -0.418,0.515 -0.93,0.977 -1.519,1.364 -0.596,0.432 -1.353,0.888 -2.295,1.304 -2.976,1.308 -5.828,1.384 -7.095,1.504 -0.59,0.036 -1.187,0.057 -1.787,0.057 -4.513,0 -8.8,-0.969 -12.665,-2.708 C 34.178,169.393 26.7,158.597 26.7,146.055 c 0,-6.159 1.804,-11.898 4.911,-16.715 -1.848,3.889 -2.884,8.241 -2.884,12.834 0,12.152 7.242,22.611 17.648,27.294" /></g></g></g></g></g></g></g></g></g></mask><clipPath
       id="clipPath790"
       clipPathUnits="userSpaceOnUse"><path
         id="path788"
         d="m 26.7001,176.937 h 44.852 V 129.34 h -44.852 z" /></clipPath><clipPath
       id="clipPath794"
       clipPathUnits="userSpaceOnUse"><path
         id="path792"
         d="m 46.375,169.468 c 3.744,1.686 7.898,2.625 12.27,2.625 0.583,0 1.158,-0.024 1.73,-0.055 1.226,-0.118 3.99,-0.192 6.872,-1.458 0.914,-0.402 1.648,-0.845 2.227,-1.263 0.571,-0.377 1.065,-0.824 1.471,-1.321 0.098,-0.125 0.189,-0.25 0.278,-0.378 0.014,0.042 0.038,0.082 0.052,0.125 0.614,1.678 0.175,3.522 -0.996,4.966 -0.418,0.514 -0.93,0.976 -1.519,1.363 -0.596,0.432 -1.353,0.889 -2.295,1.304 -2.976,1.308 -5.828,1.384 -7.095,1.504 -0.59,0.036 -1.187,0.058 -1.787,0.058 -4.513,0 -8.8,-0.97 -12.665,-2.709 C 34.178,169.393 26.7,158.597 26.7,146.055 c 0,-6.159 1.804,-11.898 4.911,-16.715 -1.848,3.89 -2.884,8.241 -2.884,12.834 0,12.152 7.242,22.611 17.648,27.294" /></clipPath><radialGradient
       id="radialGradient800"
       spreadMethod="pad"
       gradientTransform="matrix(41.510651,0,0,-41.510651,42.170219,169.92105)"
       gradientUnits="userSpaceOnUse"
       r="1"
       cy="0"
       cx="0"
       fy="0"
       fx="0"><stop
         id="stop796"
         offset="0"
         style="stop-opacity:1;stop-color:#ffffff" /><stop
         id="stop798"
         offset="1"
         style="stop-opacity:1;stop-color:#4cc1f0" /></radialGradient><clipPath
       id="clipPath804"
       clipPathUnits="userSpaceOnUse"><path
         id="path802"
         d="m 46.375,169.468 c 3.744,1.686 7.898,2.625 12.27,2.625 0.583,0 1.158,-0.024 1.73,-0.055 1.226,-0.118 3.99,-0.192 6.872,-1.458 0.914,-0.402 1.648,-0.845 2.227,-1.263 0.571,-0.377 1.065,-0.824 1.471,-1.321 0.098,-0.125 0.189,-0.25 0.278,-0.378 0.014,0.042 0.038,0.082 0.052,0.125 0.614,1.678 0.175,3.522 -0.996,4.966 -0.418,0.514 -0.93,0.976 -1.519,1.363 -0.596,0.432 -1.353,0.889 -2.295,1.304 -2.976,1.308 -5.828,1.384 -7.095,1.504 -0.59,0.036 -1.187,0.058 -1.787,0.058 -4.513,0 -8.8,-0.97 -12.665,-2.709 C 34.178,169.393 26.7,158.597 26.7,146.055 c 0,-6.159 1.804,-11.898 4.911,-16.715 -1.848,3.89 -2.884,8.241 -2.884,12.834 0,12.152 7.242,22.611 17.648,27.294" /></clipPath><radialGradient
       id="radialGradient812"
       spreadMethod="pad"
       gradientTransform="matrix(41.510651,0,0,-41.510651,42.170219,169.92105)"
       gradientUnits="userSpaceOnUse"
       r="1"
       cy="0"
       cx="0"
       fy="0"
       fx="0"><stop
         id="stop806"
         offset="0"
         style="stop-opacity:1;stop-color:#4dbf5e" /><stop
         id="stop808"
         offset="0.37484762"
         style="stop-opacity:1;stop-color:#4dbf5e" /><stop
         id="stop810"
         offset="1"
         style="stop-opacity:1;stop-color:#59caf5" /></radialGradient></defs><g
     transform="matrix(1.3333333,0,0,-1.3333333,0,110.00001)"
     id="g10"><g
       transform="translate(-18,-100.5)"
       id="g12"><g
         clip-path="url(#clipPath18)"
         id="g14"><g
           transform="translate(107.8481,149.2544)"
           id="g20"><path
             id="path22"
             style="fill:#59c134;fill-opacity:1;fill-rule:nonzero;stroke:none"
             d="m 0,0 c -0.951,0 -2.886,1.477 -4.539,1.477 -0.916,0 -1.728,-0.422 -1.728,-1.407 0,-2.36 8.803,-2.011 8.803,-7.777 0,-3.382 -2.853,-5.948 -7.214,-5.948 -2.853,0 -7.075,1.619 -7.075,3.905 0,0.775 0.771,2.253 2.183,2.253 1.97,0 2.849,-1.726 5.241,-1.726 1.55,0 2.006,0.494 2.006,1.445 0,2.321 -8.797,1.971 -8.797,7.778 0,3.521 2.848,5.915 6.863,5.915 2.495,0 6.333,-1.165 6.333,-3.663 C 2.076,1.09 1.199,0 0,0" /></g><g
           transform="translate(113.083,152.1104)"
           id="g24"><path
             id="path26"
             style="fill:#59c134;fill-opacity:1;fill-rule:nonzero;stroke:none"
             d="M 0,0 C 0,1.688 1.053,2.811 2.533,2.811 4.012,2.811 5.066,1.688 5.066,0 v -13.518 c 0,-1.688 -1.054,-2.815 -2.533,-2.815 -1.48,0 -2.533,1.127 -2.533,2.815 z m 5.154,7.4 c 0,-1.457 -1.164,-2.689 -2.621,-2.689 -1.396,0 -2.622,1.262 -2.622,2.689 0,1.326 1.226,2.557 2.622,2.557 1.391,0 2.621,-1.2 2.621,-2.557" /></g><g
           transform="translate(120.8755,152.1421)"
           id="g28"><path
             id="path30"
             style="fill:#59c134;fill-opacity:1;fill-rule:nonzero;stroke:none"
             d="m 0,0 c 0,1.687 1.055,2.815 2.533,2.815 1.303,0 2.146,-0.706 2.325,-1.903 1.23,1.338 2.849,2.115 4.716,2.115 2.111,0 3.903,-0.879 5.241,-2.572 1.406,1.617 3.626,2.572 5.348,2.572 4.121,0 6.935,-2.394 6.935,-6.831 v -9.712 c 0,-1.69 -1.055,-2.816 -2.533,-2.816 -1.48,0 -2.535,1.126 -2.535,2.816 v 8.833 c 0,2.043 -1.128,3.484 -2.959,3.484 -1.862,0 -2.989,-1.441 -2.989,-3.484 v -8.833 c 0,-1.69 -1.056,-2.816 -2.533,-2.816 -1.481,0 -2.534,1.126 -2.534,2.816 v 8.833 c 0,2.043 -1.126,3.484 -2.956,3.484 -2.076,0 -2.991,-1.441 -2.991,-3.484 v -8.833 c 0,-1.69 -1.055,-2.816 -2.535,-2.816 -1.478,0 -2.533,1.126 -2.533,2.816 z" /></g><g
           transform="translate(159.6357,140.2432)"
           id="g32"><path
             id="path34"
             style="fill:#59c134;fill-opacity:1;fill-rule:nonzero;stroke:none"
             d="M 0,0 C 2.64,0 3.942,2.745 3.942,5.101 3.942,7.5 2.64,10.279 0,10.279 -2.709,10.279 -3.979,7.745 -3.979,5.281 -3.979,2.816 -2.781,0 0,0 m -9.045,11.899 c 0,1.687 1.054,2.815 2.534,2.815 1.408,0 2.218,-0.78 2.532,-2.115 0.956,1.547 2.926,2.327 4.823,2.327 5.459,0 8.169,-5.108 8.169,-10.033 0,-4.788 -3.241,-9.537 -8.34,-9.537 -1.584,0 -3.311,0.597 -4.652,1.759 v -6.19 c 0,-1.69 -1.051,-2.818 -2.532,-2.818 -1.48,0 -2.534,1.128 -2.534,2.818 z" /></g><g
           transform="translate(171.249,160.3042)"
           id="g36"><path
             id="path38"
             style="fill:#59c134;fill-opacity:1;fill-rule:nonzero;stroke:none"
             d="M 0,0 C 0,1.689 1.061,2.815 2.536,2.815 4.016,2.815 5.07,1.689 5.07,0 v -21.678 c 0,-1.688 -1.054,-2.817 -2.534,-2.817 -1.475,0 -2.536,1.129 -2.536,2.817 z" /></g><g
           transform="translate(192.043,147.0708)"
           id="g40"><path
             id="path42"
             style="fill:#59c134;fill-opacity:1;fill-rule:nonzero;stroke:none"
             d="M 0,0 C -0.28,2.217 -1.687,3.873 -4.045,3.873 -6.299,3.873 -7.813,2.147 -8.059,0 Z m -7.952,-3.378 c 0.354,-2.499 2.428,-3.661 4.787,-3.661 2.604,0 4.398,2.045 5.734,2.045 1.092,0 2.078,-1.092 2.078,-2.185 0,-2.181 -4.506,-4.294 -8.268,-4.294 -5.703,0 -9.504,4.155 -9.504,9.746 0,5.142 3.727,9.825 9.08,9.825 5.488,0 9.115,-5.003 9.115,-9.223 0,-1.514 -0.67,-2.253 -2.217,-2.253 z" /></g><g
           transform="translate(205.7314,145.2618)"
           id="g44"><path
             id="path46"
             style="fill:#2aabe8;fill-opacity:1;fill-rule:nonzero;stroke:none"
             d="m 0,0 c 0,-1.261 0.275,-2.303 0.825,-3.127 0.642,-0.986 1.558,-1.478 2.748,-1.478 1.192,0 2.109,0.492 2.749,1.478 C 6.872,-2.28 7.148,-1.238 7.148,0 7.148,1.191 6.86,2.21 6.289,3.058 5.623,4.042 4.72,4.535 3.573,4.535 2.429,4.535 1.523,4.042 0.859,3.058 0.287,2.21 0,1.191 0,0 m -2.611,-16.632 c -1.811,0 -2.715,1.32 -2.715,3.956 V 5.562 c 0,2.614 0.904,3.922 2.715,3.922 1.031,0 1.889,-0.585 2.577,-1.754 1.191,1.238 2.68,1.856 4.467,1.856 2.472,0 4.502,-0.984 6.083,-2.954 1.442,-1.834 2.165,-4.021 2.165,-6.563 0,-2.543 -0.746,-4.754 -2.234,-6.633 -1.581,-2.061 -3.609,-3.092 -6.083,-3.092 -1.695,0 -3.116,0.527 -4.26,1.58 v -4.605 c 0,-2.632 -0.907,-3.951 -2.715,-3.951" /></g><g
           transform="translate(225.6621,145.4165)"
           id="g48"><path
             id="path50"
             style="fill:#2aabe8;fill-opacity:1;fill-rule:nonzero;stroke:none"
             d="M 0,0 C 0,-1.22 0.273,-2.231 0.823,-3.037 1.465,-3.979 2.357,-4.45 3.505,-4.45 4.626,-4.45 5.51,-3.979 6.15,-3.037 6.701,-2.209 6.977,-1.198 6.977,0 6.977,1.15 6.69,2.139 6.114,2.967 5.474,3.886 4.604,4.346 3.505,4.346 2.357,4.346 1.465,3.897 0.823,3.001 0.273,2.195 0,1.195 0,0 M 7.147,-7.578 C 6.069,-8.931 4.558,-9.604 2.61,-9.604 c -2.472,0 -4.49,0.993 -6.048,2.982 -1.443,1.83 -2.164,4.015 -2.164,6.553 0,2.538 0.757,4.733 2.268,6.585 1.604,1.99 3.653,2.984 6.151,2.984 1.741,0 3.182,-0.641 4.33,-1.924 0.62,1.169 1.478,1.753 2.578,1.753 1.786,0 2.68,-1.308 2.68,-3.924 V -5.509 c 0,-2.64 -0.894,-3.959 -2.68,-3.959 -1.122,0 -1.982,0.631 -2.578,1.89" /></g><g
           transform="translate(254.1133,154.7457)"
           id="g52"><path
             id="path54"
             style="fill:#2aabe8;fill-opacity:1;fill-rule:nonzero;stroke:none"
             d="m 0,0 c 0.778,0 1.415,-0.235 1.908,-0.705 0.493,-0.471 0.738,-1.094 0.738,-1.873 0,-0.548 -0.15,-1.179 -0.446,-1.888 l -8.249,-19.587 c -0.616,-1.467 -1.409,-2.199 -2.37,-2.199 -0.801,0 -1.449,0.235 -1.94,0.704 -0.494,0.468 -0.74,1.104 -0.74,1.907 0,0.801 0.366,1.97 1.1,3.504 0.525,1.078 1.053,2.141 1.58,3.195 l -5.464,12.749 c -0.182,0.436 -0.273,1.019 -0.273,1.753 0,0.664 0.261,1.238 0.79,1.718 0.525,0.482 1.134,0.722 1.819,0.722 0.756,0 1.364,-0.266 1.823,-0.794 0.297,-0.366 0.607,-0.977 0.927,-1.825 l 3.06,-8.205 3.333,8.652 C -1.855,-0.725 -1.054,0 0,0" /></g><g
           transform="translate(184.5371,119.4551)"
           id="g56"><path
             id="path58"
             style="fill:#918f90;fill-opacity:1;fill-rule:nonzero;stroke:none"
             d="m 0,0 c -0.89,0 -1.897,-0.452 -2.479,-3.212 -0.646,-3.068 0.644,-3.264 1.268,-3.264 0.568,0 1.777,0.31 2.379,3.247 C 1.589,-1.174 1.254,0 0,0 M 4.423,-3.229 C 3.608,-7.872 0.72,-8.464 -1.728,-8.464 c -2.414,0 -4.637,1.663 -4.007,5.259 0.49,2.81 2.16,5.41 6.216,5.211 2.831,-0.138 4.496,-2.077 3.942,-5.235" /></g><g
           transform="translate(195.1211,111.3887)"
           id="g60"><path
             id="path62"
             style="fill:#918f90;fill-opacity:1;fill-rule:nonzero;stroke:none"
             d="m 0,0 -0.152,-0.151 c -0.606,-0.114 -1.318,-0.208 -1.703,-0.208 -1.431,0 -3.528,0.216 -2.64,3.822 0.599,2.438 1.029,4.262 1.029,4.262 l -1.325,-0.038 -0.113,0.153 0.549,1.911 0.133,0.095 h 1.248 l 0.551,2.443 0.132,0.132 c 1.42,0.322 1.8,0.417 3.104,0.795 L 0.927,13.103 0.095,9.809 2.026,9.846 2.102,9.714 C 1.836,8.918 1.761,8.71 1.515,7.82 L 1.363,7.687 -0.378,7.725 c 0,0 -0.354,-1.469 -0.85,-3.515 -0.535,-2.212 -0.253,-2.1 0.282,-2.31 0.458,-0.182 1.059,0.05 1.4,0.163 L 0.567,1.969 Z" /></g><g
           transform="translate(200.4385,113.2823)"
           id="g64"><path
             id="path66"
             style="fill:#918f90;fill-opacity:1;fill-rule:nonzero;stroke:none"
             d="m 0,0 c 0.898,-0.107 1.874,0.189 2.537,0.738 0.758,0.643 1.44,1.969 1.44,3.408 0,1.59 -1.023,1.781 -1.401,1.781 -0.55,0 -0.966,-0.284 -1.365,-0.55 z M 1.534,7.252 C 2.026,7.592 2.841,8.16 4.07,8.16 5.965,8.16 7.232,6.74 7.232,4.336 7.232,2.973 6.76,1.362 5.775,0.17 3.9,-2.12 1.534,-2.103 -0.474,-2.103 l -1.077,-4.524 -0.134,-0.095 c -0.434,0 -0.851,0.019 -1.287,0.019 -0.642,0 -1.212,-0.037 -1.911,-0.057 l -0.096,0.133 c 0,0 0.667,2.007 1.498,5.456 0.872,3.621 1.686,7.862 1.757,8.725 l 0.133,0.133 3.238,0.531 0.115,-0.133 z" /></g><g
           transform="translate(155.085,116.962)"
           id="g68"><path
             id="path70"
             style="fill:#918f90;fill-opacity:1;fill-rule:evenodd;stroke:none"
             d="M 0,0 C 0,5.161 4.182,9.346 9.341,9.352 V 5.973 C 6.047,5.966 3.38,3.295 3.38,0 c 0,-3.299 2.673,-5.973 5.972,-5.973 3.279,0 5.972,2.648 5.972,5.995 l 3.379,-10e-4 c 0,-5.186 -4.186,-9.373 -9.351,-9.373 C 4.187,-9.352 0,-5.165 0,0" /></g><g
           transform="translate(167.3359,122.2159)"
           id="g72"><path
             id="path74"
             style="fill:#918f90;fill-opacity:1;fill-rule:nonzero;stroke:none"
             d="M 0,0 C 0,1.314 1.064,2.378 2.377,2.378 3.691,2.378 4.755,1.314 4.755,0 4.755,-1.312 3.691,-2.377 2.377,-2.377 1.064,-2.377 0,-1.312 0,0" /></g><g
           transform="translate(160.3105,116.961)"
           id="g76"><path
             id="path78"
             style="fill:#918f90;fill-opacity:1;fill-rule:nonzero;stroke:none"
             d="M 0,0 C 0,2.292 1.857,4.149 4.148,4.149 6.439,4.149 8.297,2.292 8.297,0 8.297,-2.29 6.439,-4.148 4.149,-4.148 1.857,-4.148 0,-2.29 0,0" /></g><g
           transform="translate(221.3828,111.3614)"
           id="g80"><path
             id="path82"
             style="fill:#918f90;fill-opacity:1;fill-rule:nonzero;stroke:none"
             d="m 0,0 -0.112,-0.098 -1.409,-0.028 -0.113,0.099 0.565,2.548 0.549,2.635 0.802,3.661 -3.211,-5.97 -1.55,-2.874 -0.111,-0.071 -1.396,-0.028 -0.069,0.099 -0.141,2.042 -0.451,6.746 -0.578,-2.268 -0.929,-3.451 -0.788,-3.084 -0.086,-0.069 -1.267,-0.015 -0.069,0.099 0.816,2.774 0.998,3.549 0.946,3.479 0.098,0.07 2.069,0.014 0.086,-0.084 0.155,-2.521 0.197,-2.746 C -4.886,2.986 -4.872,2.691 -4.831,1.521 L -1.9,7.127 -0.505,9.775 -0.379,9.845 1.733,9.874 1.804,9.775 1.128,6.283 0.592,3.395 Z" /></g><g
           transform="translate(228.708,116.0381)"
           id="g84"><path
             id="path86"
             style="fill:#918f90;fill-opacity:1;fill-rule:nonzero;stroke:none"
             d="m 0,0 c 0,1.423 -0.915,1.662 -1.437,1.662 -2.21,0 -2.492,-3.436 -2.492,-3.959 0,-1.126 0.676,-1.619 1.437,-1.619 1.507,0 2.071,1.55 2.323,2.705 C -0.07,-0.803 0,-0.395 0,0 m -2.521,-4.958 c -1.874,0 -2.902,0.973 -2.902,2.889 0,1.717 0.916,4.759 3.986,4.759 1.846,0 2.944,-1.028 2.944,-2.844 0,-0.494 -0.084,-1.001 -0.211,-1.494 -0.309,-1.211 -1.168,-3.31 -3.817,-3.31" /></g><g
           transform="translate(232.2588,112.3477)"
           id="g88"><path
             id="path90"
             style="fill:#918f90;fill-opacity:1;fill-rule:nonzero;stroke:none"
             d="m 0,0 0.226,-0.014 c 0.732,0 1.746,0 2.662,0.619 1.042,0.719 1.534,1.973 1.534,2.874 0,1.282 -0.774,1.775 -1.676,1.775 -0.718,0 -1.226,-0.31 -1.676,-0.591 z m -1.719,-1.028 0.748,3.183 0.575,2.577 c 0.254,1.057 0.494,2.127 0.707,3.17 0.182,0.887 0.238,1.211 0.324,1.859 L 0.746,9.86 2.283,10.127 2.354,10.028 1.956,8.465 1.31,5.761 C 1.902,6.084 2.465,6.395 3.367,6.395 4.761,6.395 5.93,5.451 5.93,3.677 5.93,2.958 5.704,1.605 4.761,0.521 3.493,-0.929 1.93,-1.028 0.112,-1.098 h -0.774 l -0.986,-0.014 z" /></g><g
           transform="translate(242.1738,120.6582)"
           id="g92"><path
             id="path94"
             style="fill:#918f90;fill-opacity:1;fill-rule:nonzero;stroke:none"
             d="m 0,0 -0.112,-0.113 -1.478,-0.198 -0.084,0.114 0.296,1.296 0.125,0.112 1.466,0.184 0.111,-0.099 z m -2.028,-9.324 -0.098,-0.071 -1.493,-0.043 -0.07,0.085 c 0.393,1.578 0.506,2.043 0.886,3.748 l 0.184,0.872 c 0.253,1.141 0.297,1.409 0.45,2.422 l 0.099,0.099 1.535,0.225 0.071,-0.098 c -0.351,-1.366 -0.437,-1.746 -0.858,-3.661 l -0.297,-1.451 z" /></g><g
           transform="translate(244.4004,116.0948)"
           id="g96"><path
             id="path98"
             style="fill:#918f90;fill-opacity:1;fill-rule:nonzero;stroke:none"
             d="m 0,0 c -0.535,-2.479 -0.606,-2.873 -0.942,-4.761 l -0.114,-0.084 -1.438,-0.044 -0.055,0.086 0.649,2.916 0.703,3.282 c 0.325,1.492 0.69,3.224 0.859,4.619 L -0.239,6.113 1.31,6.38 1.38,6.296 0.549,2.605 Z" /></g><g
           transform="translate(141.4209,113.5733)"
           id="g100"><path
             id="path102"
             style="fill:#918f90;fill-opacity:1;fill-rule:nonzero;stroke:none"
             d="M 0,0 C 0.134,0.412 0.182,0.924 0.182,1.648 0.182,2.357 0.134,2.869 0,3.297 -0.264,4.072 -0.855,4.483 -1.731,4.483 -2.604,4.483 -3.214,4.089 -3.478,3.297 -3.609,2.901 -3.66,2.44 -3.66,1.648 -3.66,0.857 -3.609,0.38 -3.478,0 c 0.264,-0.792 0.874,-1.204 1.747,-1.204 0.876,0 1.467,0.428 1.731,1.204 m -4.879,-2.308 c -0.1,0 -0.165,0.066 -0.165,0.164 V 8.737 c 0,0.1 0.065,0.165 0.165,0.165 h 1.054 c 0.101,0 0.165,-0.065 0.165,-0.165 V 4.682 h 0.016 c 0.38,0.627 1.056,1.088 2.243,1.088 1.368,0 2.325,-0.642 2.72,-1.896 C 1.534,3.247 1.601,2.621 1.601,1.648 1.601,0.659 1.534,0.034 1.319,-0.594 0.924,-1.847 -0.033,-2.489 -1.401,-2.489 -2.588,-2.49 -3.264,-2.011 -3.644,-1.385 H -3.66 v -0.759 c 0,-0.098 -0.064,-0.164 -0.165,-0.164 z" /></g><g
           transform="translate(145.2441,108.2979)"
           id="g104"><path
             id="path106"
             style="fill:#918f90;fill-opacity:1;fill-rule:nonzero;stroke:none"
             d="m 0,0 c -0.099,0 -0.164,0.066 -0.164,0.165 v 0.956 c 0,0.099 0.065,0.165 0.164,0.165 h 0.299 c 0.641,0 0.988,0.28 1.334,1.187 l 0.263,0.726 -2.901,7.499 c -0.033,0.1 0.016,0.166 0.132,0.166 H 0.28 c 0.1,0 0.165,-0.05 0.199,-0.166 L 2.556,4.995 H 2.59 l 1.993,5.703 c 0.033,0.116 0.099,0.166 0.198,0.166 h 1.122 c 0.097,0 0.165,-0.066 0.13,-0.166 L 2.919,2.357 C 2.226,0.494 1.617,0 0.43,0 Z" /></g></g></g><g
       transform="translate(-18,-100.5)"
       id="g108"><g
         clip-path="url(#clipPath114)"
         id="g110"><g
           id="g116"><g
             id="g118"><path
               id="path130"
               style="fill:url(#radialGradient128);stroke:none"
               d="m 47.389,153.184 c 0,-3 2.431,-5.43 5.429,-5.43 v 0 c 3.001,0 5.432,2.43 5.432,5.43 v 0 c 0,3 -2.431,5.431 -5.432,5.431 v 0 c -2.998,0 -5.429,-2.431 -5.429,-5.431" /></g></g></g></g><g
       transform="translate(-18,-100.5)"
       id="g132"><g
         clip-path="url(#clipPath138)"
         id="g134"><g
           id="g140"><g
             id="g142"><path
               id="path152"
               style="fill:url(#radialGradient150);stroke:none"
               d="M 44.918,174.229 C 34.178,169.393 26.7,158.597 26.7,146.056 v 0 c 0,-17.057 13.827,-30.883 30.883,-30.883 v 0 c 5.926,0 11.466,1.67 16.168,4.568 v 0 c 8.069,4.967 13.676,13.544 14.58,23.481 v 0 c 0.048,0.534 0.186,2.241 0.208,2.52 v 0 c 0.009,0.084 0.013,0.168 0.018,0.252 v 0 c 0.015,0.197 0.024,0.392 0.034,0.585 v 0 c 0.001,0.091 0.003,0.182 0.006,0.275 v 0 c 0.004,0.2 0.004,0.399 0,0.598 v 0 c 0,0.073 0,0.145 -0.005,0.219 v 0 c -0.006,0.271 -0.018,0.545 -0.04,0.814 v 0 c 0,0.003 -0.002,0.008 -0.002,0.012 v 0 c -0.021,0.264 -0.05,0.523 -0.085,0.784 v 0 c -0.007,0.067 -0.017,0.132 -0.026,0.199 v 0 c -0.03,0.203 -0.06,0.402 -0.097,0.601 v 0 c -0.011,0.069 -0.025,0.138 -0.039,0.206 v 0 c -0.041,0.216 -0.087,0.427 -0.138,0.639 v 0 c -0.009,0.043 -0.02,0.085 -0.029,0.126 v 0 c -0.073,0.298 -0.093,0.469 -0.166,0.71 v 0 c -0.043,0.224 -0.119,0.367 -0.221,0.728 v 0 c -1.176,3.217 -3.322,5.802 -6.135,7.125 v 0 c -0.057,0.028 -0.115,0.055 -0.17,0.082 v 0 c -0.039,0.017 -0.078,0.031 -0.115,0.048 v 0 c -0.061,0.026 -0.124,0.054 -0.184,0.078 v 0 c -0.112,0.046 -0.225,0.092 -0.338,0.134 v 0 c -0.018,0.006 -0.035,0.013 -0.052,0.02 v 0 c -0.671,0.246 -1.374,0.425 -2.104,0.524 v 0 c -0.765,0.103 -1.523,0.111 -2.273,0.041 v 0 c 0.04,0.004 0.075,0.008 0.111,0.012 v 0 c -0.04,-0.004 -0.083,-0.01 -0.126,-0.012 v 0 c -0.062,-0.008 -0.123,-0.013 -0.182,-0.021 v 0 c -0.194,-0.02 -0.387,-0.05 -0.581,-0.082 v 0 c -1.789,-0.306 -3.487,-1.082 -4.986,-2.228 v 0 l 0.079,0.053 c 0,0 -1.365,-0.962 -2.892,-3.532 v 0 c -0.848,-1.431 -1.749,-3.361 -2.491,-5.896 v 0 c -0.053,-0.202 -0.11,-0.399 -0.167,-0.597 v 0 c 0,-0.001 -0.003,-0.003 -0.003,-0.003 v 0 c -0.479,-1.767 -1.143,-3.071 -1.779,-4.182 v 0 c -0.801,-1.401 -1.64,-2.471 -2.882,-3.496 v 0 c -2.478,-2.305 -5.585,-3.616 -8.834,-3.478 v 0 c -0.502,0.016 -1.006,0.063 -1.51,0.146 v 0 c -7.136,1.208 -11.749,9.13 -10.301,17.696 v 0 c 0.014,0.082 0.031,0.162 0.046,0.242 v 0 c 0.778,4.509 3.097,8.296 6.186,10.643 v 0 c 1.341,1.02 2.828,1.764 4.392,2.183 v 0 c 0.502,0.132 1.009,0.234 1.525,0.297 v 0 c 0.67,0.095 1.35,0.128 2.035,0.098 v 0 c 0.135,-0.006 0.274,-0.017 0.417,-0.029 v 0 c 0.824,-0.074 1.747,-0.245 2.758,-0.581 v 0 c 0.511,-0.169 1.042,-0.376 1.599,-0.635 v 0 c 2.18,-1.021 3.556,-1.764 4.858,-2.22 v 0 c 0.003,-0.004 0.009,-0.006 0.014,-0.007 v 0 c 0.004,-0.002 0.008,-0.002 0.013,-0.005 v 0 c 0.185,-0.067 0.371,-0.124 0.557,-0.175 v 0 c 0.019,-0.006 0.038,-0.011 0.058,-0.015 v 0 c 3.007,-0.805 6.05,0.469 6.983,3.025 v 0 c 0.613,1.678 0.175,3.522 -0.996,4.965 v 0 c -0.418,0.515 -0.929,0.977 -1.519,1.364 v 0 c -0.596,0.432 -1.354,0.889 -2.295,1.304 v 0 c -2.975,1.308 -5.828,1.384 -7.095,1.505 v 0 c -0.59,0.035 -1.188,0.056 -1.787,0.056 v 0 c -4.513,0 -8.8,-0.969 -12.665,-2.708 m 35.837,-14.252 c 0.007,-0.003 0.013,-0.005 0.02,-0.007 v 0 c -0.02,0.007 -0.041,0.016 -0.063,0.023 v 0 c 0.015,-0.005 0.029,-0.011 0.043,-0.016 m 0.037,-0.014 c -0.006,0.002 -0.011,0.005 -0.017,0.007 v 0 c 0.006,-0.003 0.011,-0.005 0.017,-0.007" /></g></g></g></g><g
       transform="translate(-18,-100.5)"
       id="g154"><g
         clip-path="url(#clipPath160)"
         id="g156"><g
           id="g162"><g
             id="g164"><path
               id="path174"
               style="fill:url(#radialGradient172);stroke:none"
               d="M 33.668,165.592 C 29.313,160.27 26.7,153.469 26.7,146.056 v 0 c 0,-1.28 0.079,-2.543 0.23,-3.78 v 0 c 0.216,1.971 0.847,4.078 1.845,6.233 v 0 c -0.017,3.206 0.543,6.619 1.751,10.019 v 0 c 1.255,3.532 3.064,6.64 5.207,9.173 v 0 c -0.711,-0.683 -1.4,-1.39 -2.065,-2.109" /></g></g></g></g><g
       transform="translate(-18,-100.5)"
       id="g176"><g
         clip-path="url(#clipPath182)"
         id="g178"><g
           id="g184"><g
             id="g186" /><g
             mask="url(#mask296)"
             id="g412"><g
               id="g414" /><g
               id="g622"><g
                 style="opacity:0.69999701"
                 id="g620"
                 clip-path="url(#clipPath418)"><g
                   id="g528"><g
                     id="g526"
                     clip-path="url(#clipPath422)"><g
                       id="g524"><g
                         id="g522"><path
                           id="path520"
                           style="fill:url(#radialGradient428);stroke:none"
                           d="m 53.856,115.397 c -5.319,0.824 -10.457,2.919 -14.87,6.001 4.24,-3.202 9.33,-5.334 14.87,-6.001" /></g></g></g></g><g
                   id="g538"><g
                     id="g536"
                     clip-path="url(#clipPath432)"><g
                       id="g534"><g
                         id="g532"><path
                           id="path530"
                           style="fill:url(#radialGradient438);stroke:none"
                           d="m 34.764,133.777 c 0.809,-0.578 1.653,-1.017 2.519,-1.345 -2.811,1.27 -4.997,3.592 -6.45,6.575 0.461,-1.104 1.084,-2.132 1.904,-3.059 0.592,-0.805 1.269,-1.538 2.027,-2.171" /></g></g></g></g><g
                   id="g548"><g
                     id="g546"
                     clip-path="url(#clipPath442)"><g
                       id="g544"><g
                         id="g542"><path
                           id="path540"
                           style="fill:url(#radialGradient448);stroke:none"
                           d="m 34.764,133.777 c 0.809,-0.578 1.653,-1.017 2.519,-1.345 -2.811,1.27 -4.997,3.592 -6.45,6.575 0.461,-1.104 1.084,-2.132 1.904,-3.059 0.592,-0.805 1.269,-1.538 2.027,-2.171" /></g></g></g></g><g
                   id="g558"><g
                     id="g556"
                     clip-path="url(#clipPath452)"><g
                       id="g554"><g
                         id="g552"><path
                           id="path550"
                           style="fill:url(#radialGradient458);stroke:none"
                           d="m 37.283,132.432 c 0.291,-0.132 0.585,-0.276 0.898,-0.366 -0.307,0.11 -0.607,0.234 -0.898,0.366" /></g></g></g></g><g
                   id="g568"><g
                     id="g566"
                     clip-path="url(#clipPath462)"><g
                       id="g564"><g
                         id="g562"><path
                           id="path560"
                           style="fill:url(#radialGradient468);stroke:none"
                           d="m 52.949,134.821 c 8.87,4.156 22.402,1.507 29.99,-6.385 -7.588,7.892 -21.274,10.853 -29.99,6.385" /></g></g></g></g><g
                   id="g578"><g
                     id="g576"
                     clip-path="url(#clipPath472)"><g
                       id="g574"><g
                         id="g572"><path
                           id="path570"
                           style="fill:url(#radialGradient478);stroke:none"
                           d="m 52.949,134.821 c -7.538,-3.532 -11.019,-3.848 -14.768,-2.755 3.091,-1.097 5.901,-1.789 14.768,2.755" /></g></g></g></g><g
                   id="g588"><g
                     id="g586"
                     clip-path="url(#clipPath482)"><g
                       id="g584"><g
                         id="g582"><path
                           id="path580"
                           style="fill:url(#radialGradient488);stroke:none"
                           d="m 52.949,134.821 c -7.538,-3.532 -11.019,-3.848 -14.768,-2.755 3.091,-1.097 5.901,-1.789 14.768,2.755" /></g></g></g></g><g
                   id="g598"><g
                     id="g596"
                     clip-path="url(#clipPath492)"><g
                       id="g594"><g
                         id="g592"><path
                           id="path590"
                           style="fill:url(#radialGradient498);stroke:none"
                           d="m 52.949,134.821 c -8.867,-4.544 -11.677,-3.852 -14.768,-2.755 -0.313,0.09 -0.607,0.234 -0.898,0.366 -0.866,0.328 -1.71,0.767 -2.519,1.345 -0.758,0.633 -1.435,1.366 -2.027,2.171 -0.82,0.927 -1.443,1.955 -1.904,3.059 -1.326,2.719 -2.041,5.986 -2.058,9.502 -0.999,-2.155 -1.629,-4.262 -1.845,-6.233 1.04,-8.514 5.542,-15.957 12.056,-20.878 4.413,-3.082 9.551,-5.177 14.87,-6.001 1.222,-0.146 2.466,-0.224 3.727,-0.224 5.926,0 11.466,1.671 16.167,4.567 3.63,2.236 6.759,5.203 9.189,8.696 -7.588,7.892 -21.12,10.541 -29.99,6.385" /></g></g></g></g><g
                   id="g608"><g
                     id="g606"
                     clip-path="url(#clipPath502)"><g
                       id="g604"><g
                         id="g602"><path
                           id="path600"
                           style="fill:url(#radialGradient508);stroke:none"
                           d="m 30.526,158.527 c 1.255,3.534 3.064,6.641 5.207,9.173 -0.711,-0.682 -1.4,-1.389 -2.065,-2.108 -4.355,-5.322 -6.968,-12.123 -6.968,-19.537 0,-1.28 0.079,-2.542 0.23,-3.779 0.216,1.971 0.846,4.078 1.845,6.233 -0.017,3.205 0.543,6.619 1.751,10.018" /></g></g></g></g><g
                   id="g618"><g
                     id="g616"
                     clip-path="url(#clipPath512)"><g
                       id="g614"><g
                         id="g612"><path
                           id="path610"
                           style="fill:url(#radialGradient518);stroke:none"
                           d="m 52.949,134.821 c -8.867,-4.544 -11.677,-3.852 -14.768,-2.755 -0.313,0.09 -0.607,0.234 -0.898,0.366 -0.866,0.328 -1.71,0.767 -2.519,1.345 -0.758,0.633 -1.435,1.366 -2.027,2.171 -0.82,0.927 -1.443,1.955 -1.904,3.059 -1.326,2.719 -2.041,5.986 -2.058,9.502 -0.017,3.205 0.543,6.619 1.751,10.018 1.255,3.534 3.064,6.641 5.207,9.173 -0.711,-0.682 -1.4,-1.389 -2.065,-2.108 -4.355,-5.322 -6.968,-12.123 -6.968,-19.537 0,-1.28 0.079,-2.542 0.23,-3.779 1.04,-8.514 5.542,-15.957 12.056,-20.878 4.413,-3.082 9.551,-5.177 14.87,-6.001 1.222,-0.146 2.466,-0.224 3.727,-0.224 5.926,0 11.466,1.671 16.167,4.567 3.63,2.236 6.759,5.203 9.189,8.696 -7.588,7.892 -21.12,10.541 -29.99,6.385" /></g></g></g></g></g></g></g></g><g
           id="g624"><g
             id="g626" /><g
             mask="url(#mask650)"
             id="g684"><g
               id="g686" /><g
               id="g714"><g
                 style="opacity:0.94999701"
                 id="g712"
                 clip-path="url(#clipPath690)"><g
                   id="g710"><g
                     id="g708"
                     clip-path="url(#clipPath694)"><g
                       id="g706"><g
                         id="g704"><path
                           id="path702"
                           style="fill:url(#radialGradient700);stroke:none"
                           d="m 65.726,136.739 c -4.189,-12.997 -7.581,-15.05 -11.641,-16.98 -0.391,-0.217 -0.812,-0.36 -1.226,-0.516 -1.157,-0.522 -2.401,-0.911 -3.742,-1.137 -1.347,-0.122 -2.712,-0.067 -4.07,0.14 -0.385,0.024 -0.767,0.065 -1.144,0.116 4.124,-2.042 8.769,-3.189 13.68,-3.189 5.926,0 11.466,1.671 16.167,4.567 8.07,4.968 13.677,13.544 14.581,23.482 0.048,0.534 0.186,2.241 0.208,2.519 0.009,0.085 0.013,0.169 0.019,0.253 0.014,0.197 0.023,0.392 0.032,0.585 0.002,0.091 0.004,0.182 0.007,0.275 0.004,0.2 0.004,0.399 0,0.599 0,0.072 0,0.144 -0.004,0.218 -0.007,0.271 -0.02,0.544 -0.041,0.813 0,0.004 -0.002,0.009 -0.002,0.014 -0.02,0.263 -0.05,0.522 -0.085,0.783 -0.007,0.067 -0.016,0.133 -0.026,0.2 -0.03,0.202 -0.06,0.401 -0.097,0.601 -0.011,0.067 -0.025,0.137 -0.039,0.206 -0.041,0.215 -0.087,0.426 -0.138,0.638 -0.009,0.042 -0.019,0.085 -0.029,0.126 -0.073,0.298 -0.093,0.469 -0.167,0.71 -0.041,0.224 -0.118,0.366 -0.22,0.728 -0.527,1.439 -1.247,2.749 -2.134,3.879 -9.182,-4.029 -16.906,-11.387 -19.889,-19.63" /></g></g></g></g></g></g></g></g><g
           id="g716"><g
             id="g718" /><g
             mask="url(#mask748)"
             id="g784"><g
               id="g786" /><g
               id="g836"><g
                 id="g834"
                 clip-path="url(#clipPath790)"><g
                   id="g822"><g
                     id="g820"
                     clip-path="url(#clipPath794)"><g
                       id="g818"><g
                         id="g816"><path
                           id="path814"
                           style="fill:url(#radialGradient800);stroke:none"
                           d="m 46.375,169.468 c 3.744,1.686 7.898,2.625 12.27,2.625 0.583,0 1.158,-0.024 1.73,-0.055 1.226,-0.118 3.99,-0.192 6.872,-1.458 0.914,-0.402 1.648,-0.845 2.227,-1.263 0.571,-0.377 1.065,-0.824 1.471,-1.321 0.098,-0.125 0.189,-0.25 0.278,-0.378 0.014,0.042 0.038,0.082 0.052,0.125 0.614,1.678 0.175,3.522 -0.996,4.966 -0.418,0.514 -0.93,0.976 -1.519,1.363 -0.596,0.432 -1.353,0.889 -2.295,1.304 -2.976,1.308 -5.828,1.384 -7.095,1.504 -0.59,0.036 -1.187,0.058 -1.787,0.058 -4.513,0 -8.8,-0.97 -12.665,-2.709 C 34.178,169.393 26.7,158.597 26.7,146.055 c 0,-6.159 1.804,-11.898 4.911,-16.715 -1.848,3.89 -2.884,8.241 -2.884,12.834 0,12.152 7.242,22.611 17.648,27.294" /></g></g></g></g><g
                   id="g832"><g
                     id="g830"
                     clip-path="url(#clipPath804)"><g
                       id="g828"><g
                         id="g826"><path
                           id="path824"
                           style="fill:url(#radialGradient812);stroke:none"
                           d="m 46.375,169.468 c 3.744,1.686 7.898,2.625 12.27,2.625 0.583,0 1.158,-0.024 1.73,-0.055 1.226,-0.118 3.99,-0.192 6.872,-1.458 0.914,-0.402 1.648,-0.845 2.227,-1.263 0.571,-0.377 1.065,-0.824 1.471,-1.321 0.098,-0.125 0.189,-0.25 0.278,-0.378 0.014,0.042 0.038,0.082 0.052,0.125 0.614,1.678 0.175,3.522 -0.996,4.966 -0.418,0.514 -0.93,0.976 -1.519,1.363 -0.596,0.432 -1.353,0.889 -2.295,1.304 -2.976,1.308 -5.828,1.384 -7.095,1.504 -0.59,0.036 -1.187,0.058 -1.787,0.058 -4.513,0 -8.8,-0.97 -12.665,-2.709 C 34.178,169.393 26.7,158.597 26.7,146.055 c 0,-6.159 1.804,-11.898 4.911,-16.715 -1.848,3.89 -2.884,8.241 -2.884,12.834 0,12.152 7.242,22.611 17.648,27.294" /></g></g></g></g></g></g></g></g></g></g></g></svg>