<?xml version="1.0" encoding="UTF-8" standalone="no"?>
<svg
   xmlns:dc="http://purl.org/dc/elements/1.1/"
   xmlns:cc="http://creativecommons.org/ns#"
   xmlns:rdf="http://www.w3.org/1999/02/22-rdf-syntax-ns#"
   xmlns:svg="http://www.w3.org/2000/svg"
   xmlns="http://www.w3.org/2000/svg"
   viewBox="0 0 250 200"
   height="200"
   width="250"
   xml:space="preserve"
   id="svg2"
   version="1.1"><metadata
     id="metadata8"><rdf:RDF><cc:Work
         rdf:about=""><dc:format>image/svg+xml</dc:format><dc:type
           rdf:resource="http://purl.org/dc/dcmitype/StillImage" /><dc:title></dc:title></cc:Work></rdf:RDF></metadata><defs
     id="defs6"><clipPath
       id="clipPath18"
       clipPathUnits="userSpaceOnUse"><path
         id="path16"
         d="M 0,595.276 H 464.935 V 0 H 0 Z" /></clipPath><clipPath
       id="clipPath62"
       clipPathUnits="userSpaceOnUse"><path
         id="path60"
         d="m 220.277,353.764 c 0,-4.144 3.36,-7.502 7.503,-7.502 v 0 c 4.146,0 7.504,3.358 7.504,7.502 v 0 c 0,4.145 -3.358,7.505 -7.504,7.505 v 0 c -4.143,0 -7.503,-3.36 -7.503,-7.505" /></clipPath><radialGradient
       id="radialGradient76"
       spreadMethod="pad"
       gradientTransform="matrix(25.647087,0,0,-25.647087,219.94423,361.92752)"
       gradientUnits="userSpaceOnUse"
       r="1"
       cy="0"
       cx="0"
       fy="0"
       fx="0"><stop
         id="stop68"
         offset="0"
         style="stop-opacity:1;stop-color:#4dbf5e" /><stop
         id="stop70"
         offset="0.27392702"
         style="stop-opacity:1;stop-color:#4dbf5e" /><stop
         id="stop72"
         offset="0.730769"
         style="stop-opacity:1;stop-color:#59caf5" /><stop
         id="stop74"
         offset="1"
         style="stop-opacity:1;stop-color:#59caf5" /></radialGradient><clipPath
       id="clipPath86"
       clipPathUnits="userSpaceOnUse"><path
         id="path84"
         d="m 216.862,382.843 c -14.84,-6.681 -25.172,-21.598 -25.172,-38.93 v 0 c 0,-23.567 19.104,-42.672 42.673,-42.672 v 0 c 8.191,0 15.842,2.309 22.34,6.311 v 0 c 11.151,6.866 18.898,18.717 20.147,32.447 v 0 c 0.067,0.739 0.257,3.099 0.288,3.481 v 0 c 0.011,0.118 0.018,0.234 0.025,0.351 v 0 c 0.02,0.27 0.034,0.539 0.043,0.807 v 0 c 0.005,0.126 0.009,0.253 0.012,0.378 v 0 c 0.005,0.277 0.005,0.553 0,0.829 v 0 c -0.002,0.101 -0.001,0.201 -0.004,0.3 v 0 c -0.01,0.379 -0.03,0.755 -0.059,1.126 v 0 c 0,0.007 -0.002,0.012 -0.003,0.017 v 0 c -0.028,0.364 -0.068,0.725 -0.114,1.084 v 0 c -0.012,0.091 -0.026,0.183 -0.039,0.274 v 0 c -0.04,0.28 -0.084,0.556 -0.133,0.83 v 0 c -0.018,0.096 -0.035,0.191 -0.054,0.286 v 0 c -0.058,0.297 -0.121,0.591 -0.191,0.882 v 0 c -0.013,0.058 -0.026,0.117 -0.039,0.173 v 0 c -0.103,0.413 -0.131,0.649 -0.231,0.981 v 0 c -0.059,0.311 -0.164,0.508 -0.307,1.007 v 0 c -1.622,4.445 -4.591,8.018 -8.475,9.846 v 0 c -0.078,0.038 -0.157,0.076 -0.238,0.111 v 0 c -0.051,0.025 -0.104,0.046 -0.157,0.069 v 0 c -0.084,0.035 -0.167,0.072 -0.252,0.107 v 0 c -0.156,0.065 -0.311,0.126 -0.47,0.186 v 0 c -0.03,0.011 -0.06,0.024 -0.091,0.036 v 0 c 0.024,-0.01 0.048,-0.021 0.072,-0.03 v 0 c -0.943,0.351 -1.93,0.607 -2.958,0.744 v 0 c -1.043,0.141 -2.079,0.155 -3.098,0.062 v 0 c 0.03,0.003 0.059,0.007 0.089,0.01 v 0 c -0.038,-0.004 -0.077,-0.009 -0.116,-0.013 v 0 c -0.004,0 -0.008,-10e-4 -0.011,-10e-4 v 0 c 0.002,0 0.004,0 0.007,10e-4 v 0 c -0.011,-10e-4 -0.022,-0.003 -0.033,-0.004 v 0 c -0.083,-0.008 -0.168,-0.016 -0.251,-0.026 v 0 c -0.269,-0.029 -0.535,-0.07 -0.8,-0.115 v 0 c -2.474,-0.421 -4.822,-1.493 -6.894,-3.079 v 0 l 0.11,0.076 c 0,0 -1.886,-1.331 -3.995,-4.882 v 0 c -1.174,-1.977 -2.417,-4.643 -3.442,-8.148 v 0 c -0.074,-0.277 -0.15,-0.551 -0.232,-0.823 v 0 c -0.001,-0.001 -0.001,-0.005 -0.001,-0.005 v 0 c -0.665,-2.443 -1.581,-4.243 -2.46,-5.778 v 0 c -1.108,-1.937 -2.267,-3.417 -3.984,-4.831 v 0 c -3.424,-3.185 -7.718,-4.996 -12.208,-4.806 v 0 c -0.692,0.022 -1.386,0.086 -2.083,0.203 v 0 c -9.864,1.668 -16.238,12.615 -14.236,24.451 v 0 c 0.02,0.113 0.044,0.223 0.065,0.336 v 0 c 1.073,6.227 4.279,11.46 8.546,14.703 v 0 c 1.854,1.409 3.908,2.44 6.072,3.016 v 0 c 0.691,0.184 1.393,0.325 2.104,0.412 v 0 c 0.926,0.131 1.865,0.177 2.811,0.138 v 0 c 0.188,-0.01 0.383,-0.025 0.578,-0.043 v 0 c 1.139,-0.101 2.412,-0.34 3.812,-0.801 v 0 c 0.704,-0.234 1.44,-0.522 2.206,-0.88 v 0 c 3.018,-1.408 4.916,-2.437 6.713,-3.067 v 0 c 0.009,-0.004 0.014,-0.006 0.022,-0.009 v 0 c 0.005,-0.002 0.011,-0.003 0.016,-0.004 v 0 c 0.258,-0.094 0.514,-0.175 0.771,-0.246 v 0 c 0.027,-0.007 0.051,-0.014 0.077,-0.022 v 0 c 4.16,-1.109 8.362,0.649 9.653,4.183 v 0 c 0.849,2.32 0.242,4.865 -1.377,6.859 v 0 c -0.578,0.711 -1.284,1.35 -2.098,1.885 v 0 c -0.824,0.598 -1.871,1.23 -3.174,1.803 v 0 c -4.109,1.808 -8.053,1.911 -9.8,2.079 v 0 c -0.819,0.046 -1.641,0.078 -2.471,0.078 v 0 c -6.236,0 -12.16,-1.337 -17.501,-3.743 m 43.604,-18.897 c 0.008,0 0.015,10e-4 0.022,10e-4 v 0 c -0.007,0 -0.014,-10e-4 -0.022,-10e-4 m 5.895,-0.786 c -0.011,0.005 -0.023,0.009 -0.035,0.013 v 0 c 0.012,-0.004 0.024,-0.008 0.035,-0.013" /></clipPath><radialGradient
       id="radialGradient98"
       spreadMethod="pad"
       gradientTransform="matrix(36.439842,0,0,-36.439842,218.3452,335.35937)"
       gradientUnits="userSpaceOnUse"
       r="1"
       cy="0"
       cx="0"
       fy="0"
       fx="0"><stop
         id="stop92"
         offset="0"
         style="stop-opacity:1;stop-color:#b3e5e4" /><stop
         id="stop94"
         offset="0.96863558"
         style="stop-opacity:1;stop-color:#40c1f3" /><stop
         id="stop96"
         offset="1"
         style="stop-opacity:1;stop-color:#40c1f3" /></radialGradient><clipPath
       id="clipPath108"
       clipPathUnits="userSpaceOnUse"><path
         id="path106"
         d="m 201.317,370.91 c -6.017,-7.354 -9.627,-16.753 -9.627,-26.997 v 0 c 0,-1.768 0.109,-3.511 0.317,-5.224 v 0 c 0.299,2.727 1.168,5.637 2.549,8.616 v 0 c -0.023,4.429 0.751,9.147 2.419,13.842 v 0 c 1.734,4.882 4.234,9.175 7.195,12.675 v 0 c -0.982,-0.943 -1.934,-1.916 -2.853,-2.912" /></clipPath><radialGradient
       id="radialGradient120"
       spreadMethod="pad"
       gradientTransform="matrix(26.17939,18.413431,13.502833,-19.19787,222.35602,363.63098)"
       gradientUnits="userSpaceOnUse"
       r="1"
       cy="0"
       cx="0"
       fy="0"
       fx="0"><stop
         id="stop114"
         offset="0"
         style="stop-opacity:1;stop-color:#4dbf5c" /><stop
         id="stop116"
         offset="0.37484762"
         style="stop-opacity:1;stop-color:#4dbf5c" /><stop
         id="stop118"
         offset="1"
         style="stop-opacity:1;stop-color:#5ac1ea" /></radialGradient><clipPath
       id="clipPath130"
       clipPathUnits="userSpaceOnUse"><path
         id="path128"
         d="M 0,595.276 H 464.935 V 0 H 0 Z" /></clipPath><clipPath
       id="clipPath138"
       clipPathUnits="userSpaceOnUse"><path
         id="path136"
         d="m 191.69,373.822 h 77.711 V 301.241 H 191.69 Z" /></clipPath><clipPath
       id="clipPath142"
       clipPathUnits="userSpaceOnUse"><path
         id="path140"
         d="m 191.69,373.822 h 77.711 V 301.241 H 191.69 Z" /></clipPath><clipPath
       id="clipPath146"
       clipPathUnits="userSpaceOnUse"><path
         id="path144"
         d="m 229.214,301.551 c -7.348,1.139 -14.451,4.032 -20.547,8.292 5.858,-4.424 12.89,-7.37 20.547,-8.292" /></clipPath><linearGradient
       id="linearGradient152"
       spreadMethod="pad"
       gradientTransform="matrix(-40.224888,1.7488739,1.7488739,40.224888,220.81494,305.61523)"
       gradientUnits="userSpaceOnUse"
       y2="0"
       x2="1"
       y1="0"
       x1="0"><stop
         id="stop148"
         offset="0"
         style="stop-opacity:1;stop-color:#ffffff" /><stop
         id="stop150"
         offset="1"
         style="stop-opacity:1;stop-color:#231f20" /></linearGradient><clipPath
       id="clipPath156"
       clipPathUnits="userSpaceOnUse"><path
         id="path154"
         d="m 202.832,326.95 c 1.118,-0.8 2.283,-1.408 3.48,-1.859 -3.883,1.753 -6.905,4.962 -8.913,9.085 0.638,-1.527 1.497,-2.948 2.633,-4.225 0.819,-1.116 1.753,-2.129 2.8,-3.001" /></clipPath><linearGradient
       id="linearGradient162"
       spreadMethod="pad"
       gradientTransform="matrix(-40.223091,1.7487959,1.7487959,40.223091,221.8208,328.76465)"
       gradientUnits="userSpaceOnUse"
       y2="0"
       x2="1"
       y1="0"
       x1="0"><stop
         id="stop158"
         offset="0"
         style="stop-opacity:1;stop-color:#ffffff" /><stop
         id="stop160"
         offset="1"
         style="stop-opacity:1;stop-color:#231f20" /></linearGradient><clipPath
       id="clipPath166"
       clipPathUnits="userSpaceOnUse"><path
         id="path164"
         d="m 202.832,326.95 c 1.118,-0.8 2.283,-1.408 3.48,-1.859 -3.883,1.753 -6.905,4.962 -8.913,9.085 0.638,-1.527 1.497,-2.948 2.633,-4.225 0.819,-1.116 1.753,-2.129 2.8,-3.001" /></clipPath><linearGradient
       id="linearGradient172"
       spreadMethod="pad"
       gradientTransform="matrix(-40.223091,1.7487959,1.7487959,40.223091,221.8208,328.76465)"
       gradientUnits="userSpaceOnUse"
       y2="0"
       x2="1"
       y1="0"
       x1="0"><stop
         id="stop168"
         offset="0"
         style="stop-opacity:1;stop-color:#ffffff" /><stop
         id="stop170"
         offset="1"
         style="stop-opacity:1;stop-color:#231f20" /></linearGradient><clipPath
       id="clipPath176"
       clipPathUnits="userSpaceOnUse"><path
         id="path174"
         d="m 206.312,325.091 c 0.405,-0.185 0.81,-0.381 1.242,-0.507 -0.425,0.151 -0.837,0.322 -1.242,0.507" /></clipPath><linearGradient
       id="linearGradient182"
       spreadMethod="pad"
       gradientTransform="matrix(-40.219128,1.7486236,1.7486236,40.219128,221.62109,324.19824)"
       gradientUnits="userSpaceOnUse"
       y2="0"
       x2="1"
       y1="0"
       x1="0"><stop
         id="stop178"
         offset="0"
         style="stop-opacity:1;stop-color:#ffffff" /><stop
         id="stop180"
         offset="1"
         style="stop-opacity:1;stop-color:#231f20" /></linearGradient><clipPath
       id="clipPath186"
       clipPathUnits="userSpaceOnUse"><path
         id="path184"
         d="m 227.961,328.393 c 12.254,5.741 30.953,2.081 41.44,-8.827 -10.487,10.908 -29.398,14.998 -41.44,8.827" /></clipPath><linearGradient
       id="linearGradient192"
       spreadMethod="pad"
       gradientTransform="matrix(-40.224709,1.7488662,1.7488662,40.224709,221.73975,326.89453)"
       gradientUnits="userSpaceOnUse"
       y2="0"
       x2="1"
       y1="0"
       x1="0"><stop
         id="stop188"
         offset="0"
         style="stop-opacity:1;stop-color:#ffffff" /><stop
         id="stop190"
         offset="1"
         style="stop-opacity:1;stop-color:#231f20" /></linearGradient><clipPath
       id="clipPath196"
       clipPathUnits="userSpaceOnUse"><path
         id="path194"
         d="m 227.961,328.393 c -10.417,-4.882 -15.227,-5.32 -20.407,-3.809 4.27,-1.517 8.154,-2.472 20.407,3.809" /></clipPath><linearGradient
       id="linearGradient202"
       spreadMethod="pad"
       gradientTransform="matrix(-40.224144,1.7488416,1.7488416,40.224144,221.69531,325.86816)"
       gradientUnits="userSpaceOnUse"
       y2="0"
       x2="1"
       y1="0"
       x1="0"><stop
         id="stop198"
         offset="0"
         style="stop-opacity:1;stop-color:#ffffff" /><stop
         id="stop200"
         offset="1"
         style="stop-opacity:1;stop-color:#231f20" /></linearGradient><clipPath
       id="clipPath206"
       clipPathUnits="userSpaceOnUse"><path
         id="path204"
         d="m 227.961,328.393 c -10.417,-4.882 -15.227,-5.32 -20.407,-3.809 4.27,-1.517 8.154,-2.472 20.407,3.809" /></clipPath><linearGradient
       id="linearGradient212"
       spreadMethod="pad"
       gradientTransform="matrix(-40.224144,1.7488416,1.7488416,40.224144,221.69531,325.86816)"
       gradientUnits="userSpaceOnUse"
       y2="0"
       x2="1"
       y1="0"
       x1="0"><stop
         id="stop208"
         offset="0"
         style="stop-opacity:1;stop-color:#ffffff" /><stop
         id="stop210"
         offset="1"
         style="stop-opacity:1;stop-color:#231f20" /></linearGradient><clipPath
       id="clipPath216"
       clipPathUnits="userSpaceOnUse"><path
         id="path214"
         d="m 227.961,328.393 c -12.253,-6.281 -16.137,-5.326 -20.407,-3.809 -0.432,0.126 -0.837,0.322 -1.242,0.507 -1.197,0.451 -2.362,1.059 -3.48,1.859 -1.047,0.872 -1.981,1.885 -2.8,3.001 -1.136,1.277 -1.995,2.698 -2.633,4.225 -1.83,3.756 -2.817,8.269 -2.843,13.129 -1.381,-2.98 -2.25,-5.889 -2.549,-8.617 1.437,-11.761 7.659,-22.045 16.66,-28.845 6.096,-4.26 13.199,-7.153 20.547,-8.292 1.688,-0.202 3.406,-0.31 5.148,-0.31 8.192,0 15.843,2.31 22.341,6.311 5.017,3.089 9.34,7.189 12.698,12.014 -10.487,10.908 -29.186,14.568 -41.44,8.827" /></clipPath><linearGradient
       id="linearGradient222"
       spreadMethod="pad"
       gradientTransform="matrix(-40.224628,1.7488626,1.7488626,40.224628,221.61133,323.94141)"
       gradientUnits="userSpaceOnUse"
       y2="0"
       x2="1"
       y1="0"
       x1="0"><stop
         id="stop218"
         offset="0"
         style="stop-opacity:1;stop-color:#ffffff" /><stop
         id="stop220"
         offset="1"
         style="stop-opacity:1;stop-color:#231f20" /></linearGradient><clipPath
       id="clipPath226"
       clipPathUnits="userSpaceOnUse"><path
         id="path224"
         d="m 196.975,361.147 c 1.734,4.881 4.234,9.175 7.196,12.675 -0.983,-0.943 -1.935,-1.916 -2.854,-2.912 -6.017,-7.354 -9.627,-16.753 -9.627,-26.996 0,-1.769 0.109,-3.513 0.317,-5.226 0.299,2.728 1.168,5.637 2.549,8.617 -0.023,4.429 0.751,9.147 2.419,13.842" /></clipPath><linearGradient
       id="linearGradient232"
       spreadMethod="pad"
       gradientTransform="matrix(-40.223957,1.7488335,1.7488335,40.223957,222.96973,355.17383)"
       gradientUnits="userSpaceOnUse"
       y2="0"
       x2="1"
       y1="0"
       x1="0"><stop
         id="stop228"
         offset="0"
         style="stop-opacity:1;stop-color:#ffffff" /><stop
         id="stop230"
         offset="1"
         style="stop-opacity:1;stop-color:#231f20" /></linearGradient><clipPath
       id="clipPath236"
       clipPathUnits="userSpaceOnUse"><path
         id="path234"
         d="m 227.961,328.393 c -12.253,-6.281 -16.137,-5.326 -20.407,-3.809 -0.432,0.126 -0.837,0.322 -1.242,0.507 -1.197,0.451 -2.362,1.059 -3.48,1.859 -1.047,0.872 -1.981,1.885 -2.8,3.001 -1.136,1.277 -1.995,2.698 -2.633,4.225 -1.83,3.756 -2.817,8.269 -2.843,13.129 -0.023,4.429 0.751,9.147 2.419,13.842 1.734,4.881 4.234,9.175 7.196,12.675 -0.983,-0.943 -1.935,-1.916 -2.854,-2.912 -6.017,-7.354 -9.627,-16.753 -9.627,-26.996 0,-1.769 0.109,-3.513 0.317,-5.226 1.437,-11.761 7.659,-22.045 16.66,-28.845 6.096,-4.26 13.199,-7.153 20.547,-8.292 1.688,-0.202 3.406,-0.31 5.148,-0.31 8.192,0 15.843,2.31 22.341,6.311 5.017,3.089 9.34,7.189 12.698,12.014 -10.487,10.908 -29.186,14.568 -41.44,8.827" /></clipPath><linearGradient
       id="linearGradient242"
       spreadMethod="pad"
       gradientTransform="matrix(-40.224281,1.7488476,1.7488476,40.224281,222.19629,337.38379)"
       gradientUnits="userSpaceOnUse"
       y2="0"
       x2="1"
       y1="0"
       x1="0"><stop
         id="stop238"
         offset="0"
         style="stop-opacity:1;stop-color:#ffffff" /><stop
         id="stop240"
         offset="1"
         style="stop-opacity:1;stop-color:#231f20" /></linearGradient><mask
       id="mask244"
       height="1"
       width="1"
       y="0"
       x="0"
       maskUnits="userSpaceOnUse"><g
         id="g358"><g
           style="opacity:0.69999701"
           id="g356"
           clip-path="url(#clipPath138)"><path
             id="path246"
             style="fill:#000000;fill-opacity:1;fill-rule:nonzero;stroke:none"
             d="m 191.69,373.822 h 77.711 V 301.241 H 191.69 Z" /><g
             id="g354"><g
               id="g248" /><g
               id="g352"><g
                 id="g350"
                 clip-path="url(#clipPath142)"><g
                   id="g258"><g
                     id="g256"
                     clip-path="url(#clipPath146)"><g
                       id="g254"><g
                         id="g252"><path
                           id="path250"
                           style="fill:url(#linearGradient152);stroke:none"
                           d="m 229.214,301.551 c -7.348,1.139 -14.451,4.032 -20.547,8.292 5.858,-4.424 12.89,-7.37 20.547,-8.292" /></g></g></g></g><g
                   id="g268"><g
                     id="g266"
                     clip-path="url(#clipPath156)"><g
                       id="g264"><g
                         id="g262"><path
                           id="path260"
                           style="fill:url(#linearGradient162);stroke:none"
                           d="m 202.832,326.95 c 1.118,-0.8 2.283,-1.408 3.48,-1.859 -3.883,1.753 -6.905,4.962 -8.913,9.085 0.638,-1.527 1.497,-2.948 2.633,-4.225 0.819,-1.116 1.753,-2.129 2.8,-3.001" /></g></g></g></g><g
                   id="g278"><g
                     id="g276"
                     clip-path="url(#clipPath166)"><g
                       id="g274"><g
                         id="g272"><path
                           id="path270"
                           style="fill:url(#linearGradient172);stroke:none"
                           d="m 202.832,326.95 c 1.118,-0.8 2.283,-1.408 3.48,-1.859 -3.883,1.753 -6.905,4.962 -8.913,9.085 0.638,-1.527 1.497,-2.948 2.633,-4.225 0.819,-1.116 1.753,-2.129 2.8,-3.001" /></g></g></g></g><g
                   id="g288"><g
                     id="g286"
                     clip-path="url(#clipPath176)"><g
                       id="g284"><g
                         id="g282"><path
                           id="path280"
                           style="fill:url(#linearGradient182);stroke:none"
                           d="m 206.312,325.091 c 0.405,-0.185 0.81,-0.381 1.242,-0.507 -0.425,0.151 -0.837,0.322 -1.242,0.507" /></g></g></g></g><g
                   id="g298"><g
                     id="g296"
                     clip-path="url(#clipPath186)"><g
                       id="g294"><g
                         id="g292"><path
                           id="path290"
                           style="fill:url(#linearGradient192);stroke:none"
                           d="m 227.961,328.393 c 12.254,5.741 30.953,2.081 41.44,-8.827 -10.487,10.908 -29.398,14.998 -41.44,8.827" /></g></g></g></g><g
                   id="g308"><g
                     id="g306"
                     clip-path="url(#clipPath196)"><g
                       id="g304"><g
                         id="g302"><path
                           id="path300"
                           style="fill:url(#linearGradient202);stroke:none"
                           d="m 227.961,328.393 c -10.417,-4.882 -15.227,-5.32 -20.407,-3.809 4.27,-1.517 8.154,-2.472 20.407,3.809" /></g></g></g></g><g
                   id="g318"><g
                     id="g316"
                     clip-path="url(#clipPath206)"><g
                       id="g314"><g
                         id="g312"><path
                           id="path310"
                           style="fill:url(#linearGradient212);stroke:none"
                           d="m 227.961,328.393 c -10.417,-4.882 -15.227,-5.32 -20.407,-3.809 4.27,-1.517 8.154,-2.472 20.407,3.809" /></g></g></g></g><g
                   id="g328"><g
                     id="g326"
                     clip-path="url(#clipPath216)"><g
                       id="g324"><g
                         id="g322"><path
                           id="path320"
                           style="fill:url(#linearGradient222);stroke:none"
                           d="m 227.961,328.393 c -12.253,-6.281 -16.137,-5.326 -20.407,-3.809 -0.432,0.126 -0.837,0.322 -1.242,0.507 -1.197,0.451 -2.362,1.059 -3.48,1.859 -1.047,0.872 -1.981,1.885 -2.8,3.001 -1.136,1.277 -1.995,2.698 -2.633,4.225 -1.83,3.756 -2.817,8.269 -2.843,13.129 -1.381,-2.98 -2.25,-5.889 -2.549,-8.617 1.437,-11.761 7.659,-22.045 16.66,-28.845 6.096,-4.26 13.199,-7.153 20.547,-8.292 1.688,-0.202 3.406,-0.31 5.148,-0.31 8.192,0 15.843,2.31 22.341,6.311 5.017,3.089 9.34,7.189 12.698,12.014 -10.487,10.908 -29.186,14.568 -41.44,8.827" /></g></g></g></g><g
                   id="g338"><g
                     id="g336"
                     clip-path="url(#clipPath226)"><g
                       id="g334"><g
                         id="g332"><path
                           id="path330"
                           style="fill:url(#linearGradient232);stroke:none"
                           d="m 196.975,361.147 c 1.734,4.881 4.234,9.175 7.196,12.675 -0.983,-0.943 -1.935,-1.916 -2.854,-2.912 -6.017,-7.354 -9.627,-16.753 -9.627,-26.996 0,-1.769 0.109,-3.513 0.317,-5.226 0.299,2.728 1.168,5.637 2.549,8.617 -0.023,4.429 0.751,9.147 2.419,13.842" /></g></g></g></g><g
                   id="g348"><g
                     id="g346"
                     clip-path="url(#clipPath236)"><g
                       id="g344"><g
                         id="g342"><path
                           id="path340"
                           style="fill:url(#linearGradient242);stroke:none"
                           d="m 227.961,328.393 c -12.253,-6.281 -16.137,-5.326 -20.407,-3.809 -0.432,0.126 -0.837,0.322 -1.242,0.507 -1.197,0.451 -2.362,1.059 -3.48,1.859 -1.047,0.872 -1.981,1.885 -2.8,3.001 -1.136,1.277 -1.995,2.698 -2.633,4.225 -1.83,3.756 -2.817,8.269 -2.843,13.129 -0.023,4.429 0.751,9.147 2.419,13.842 1.734,4.881 4.234,9.175 7.196,12.675 -0.983,-0.943 -1.935,-1.916 -2.854,-2.912 -6.017,-7.354 -9.627,-16.753 -9.627,-26.996 0,-1.769 0.109,-3.513 0.317,-5.226 1.437,-11.761 7.659,-22.045 16.66,-28.845 6.096,-4.26 13.199,-7.153 20.547,-8.292 1.688,-0.202 3.406,-0.31 5.148,-0.31 8.192,0 15.843,2.31 22.341,6.311 5.017,3.089 9.34,7.189 12.698,12.014 -10.487,10.908 -29.186,14.568 -41.44,8.827" /></g></g></g></g></g></g></g></g></g></mask><clipPath
       id="clipPath366"
       clipPathUnits="userSpaceOnUse"><path
         id="path364"
         d="m 191.69,373.822 h 77.711 V 301.241 H 191.69 Z" /></clipPath><clipPath
       id="clipPath370"
       clipPathUnits="userSpaceOnUse"><path
         id="path368"
         d="m 229.214,301.551 c -7.348,1.14 -14.451,4.032 -20.546,8.292 5.857,-4.424 12.889,-7.371 20.546,-8.292" /></clipPath><radialGradient
       id="radialGradient376"
       spreadMethod="pad"
       gradientTransform="matrix(66.779587,0,0,-66.779587,207.66238,329.45679)"
       gradientUnits="userSpaceOnUse"
       r="1"
       cy="0"
       cx="0"
       fy="0"
       fx="0"><stop
         id="stop372"
         offset="0"
         style="stop-opacity:1;stop-color:#59caf5" /><stop
         id="stop374"
         offset="1"
         style="stop-opacity:1;stop-color:#269bd4" /></radialGradient><clipPath
       id="clipPath380"
       clipPathUnits="userSpaceOnUse"><path
         id="path378"
         d="m 202.832,326.95 c 1.118,-0.799 2.283,-1.408 3.48,-1.859 -3.883,1.753 -6.905,4.962 -8.913,9.084 0.638,-1.525 1.496,-2.948 2.633,-4.224 0.819,-1.116 1.753,-2.129 2.8,-3.001" /></clipPath><radialGradient
       id="radialGradient386"
       spreadMethod="pad"
       gradientTransform="matrix(66.777992,0,0,-66.777992,207.66275,329.4566)"
       gradientUnits="userSpaceOnUse"
       r="1"
       cy="0"
       cx="0"
       fy="0"
       fx="0"><stop
         id="stop382"
         offset="0"
         style="stop-opacity:1;stop-color:#59caf5" /><stop
         id="stop384"
         offset="1"
         style="stop-opacity:1;stop-color:#269bd4" /></radialGradient><clipPath
       id="clipPath390"
       clipPathUnits="userSpaceOnUse"><path
         id="path388"
         d="m 202.832,326.95 c 1.118,-0.799 2.283,-1.408 3.48,-1.859 -3.883,1.753 -6.905,4.962 -8.913,9.084 0.638,-1.525 1.496,-2.948 2.633,-4.224 0.819,-1.116 1.753,-2.129 2.8,-3.001" /></clipPath><radialGradient
       id="radialGradient396"
       spreadMethod="pad"
       gradientTransform="matrix(66.777992,0,0,-66.777992,207.66275,329.4566)"
       gradientUnits="userSpaceOnUse"
       r="1"
       cy="0"
       cx="0"
       fy="0"
       fx="0"><stop
         id="stop392"
         offset="0"
         style="stop-opacity:1;stop-color:#59caf5" /><stop
         id="stop394"
         offset="1"
         style="stop-opacity:1;stop-color:#269bd4" /></radialGradient><clipPath
       id="clipPath400"
       clipPathUnits="userSpaceOnUse"><path
         id="path398"
         d="m 206.312,325.091 c 0.405,-0.184 0.81,-0.381 1.242,-0.507 -0.424,0.151 -0.837,0.323 -1.242,0.507" /></clipPath><radialGradient
       id="radialGradient406"
       spreadMethod="pad"
       gradientTransform="matrix(66.804916,0,0,-66.804916,207.66243,329.45834)"
       gradientUnits="userSpaceOnUse"
       r="1"
       cy="0"
       cx="0"
       fy="0"
       fx="0"><stop
         id="stop402"
         offset="0"
         style="stop-opacity:1;stop-color:#59caf5" /><stop
         id="stop404"
         offset="1"
         style="stop-opacity:1;stop-color:#269bd4" /></radialGradient><clipPath
       id="clipPath410"
       clipPathUnits="userSpaceOnUse"><path
         id="path408"
         d="m 227.961,328.392 c 12.254,5.742 30.953,2.081 41.44,-8.826 -10.487,10.907 -29.397,14.999 -41.44,8.826" /></clipPath><radialGradient
       id="radialGradient416"
       spreadMethod="pad"
       gradientTransform="matrix(66.779602,0,0,-66.779602,207.66232,329.45636)"
       gradientUnits="userSpaceOnUse"
       r="1"
       cy="0"
       cx="0"
       fy="0"
       fx="0"><stop
         id="stop412"
         offset="0"
         style="stop-opacity:1;stop-color:#59caf5" /><stop
         id="stop414"
         offset="1"
         style="stop-opacity:1;stop-color:#269bd4" /></radialGradient><clipPath
       id="clipPath420"
       clipPathUnits="userSpaceOnUse"><path
         id="path418"
         d="m 227.961,328.392 c -10.417,-4.882 -15.226,-5.318 -20.407,-3.808 4.27,-1.517 8.154,-2.472 20.407,3.808" /></clipPath><radialGradient
       id="radialGradient426"
       spreadMethod="pad"
       gradientTransform="matrix(66.778206,0,0,-66.778206,207.66254,329.45624)"
       gradientUnits="userSpaceOnUse"
       r="1"
       cy="0"
       cx="0"
       fy="0"
       fx="0"><stop
         id="stop422"
         offset="0"
         style="stop-opacity:1;stop-color:#59caf5" /><stop
         id="stop424"
         offset="1"
         style="stop-opacity:1;stop-color:#269bd4" /></radialGradient><clipPath
       id="clipPath430"
       clipPathUnits="userSpaceOnUse"><path
         id="path428"
         d="m 227.961,328.392 c -10.417,-4.882 -15.226,-5.318 -20.407,-3.808 4.27,-1.517 8.154,-2.472 20.407,3.808" /></clipPath><radialGradient
       id="radialGradient436"
       spreadMethod="pad"
       gradientTransform="matrix(66.778206,0,0,-66.778206,207.66254,329.45624)"
       gradientUnits="userSpaceOnUse"
       r="1"
       cy="0"
       cx="0"
       fy="0"
       fx="0"><stop
         id="stop432"
         offset="0"
         style="stop-opacity:1;stop-color:#59caf5" /><stop
         id="stop434"
         offset="1"
         style="stop-opacity:1;stop-color:#269bd4" /></radialGradient><clipPath
       id="clipPath440"
       clipPathUnits="userSpaceOnUse"><path
         id="path438"
         d="m 227.961,328.392 c -12.253,-6.28 -16.137,-5.325 -20.407,-3.808 -0.432,0.126 -0.837,0.323 -1.242,0.507 -1.197,0.451 -2.362,1.06 -3.48,1.859 -1.047,0.872 -1.981,1.885 -2.8,3.001 -1.137,1.276 -1.995,2.699 -2.633,4.224 -1.83,3.757 -2.818,8.271 -2.843,13.129 -1.38,-2.979 -2.25,-5.888 -2.549,-8.615 1.437,-11.762 7.659,-22.046 16.661,-28.846 6.095,-4.26 13.198,-7.152 20.546,-8.292 1.688,-0.203 3.406,-0.31 5.148,-0.31 8.192,0 15.843,2.31 22.341,6.311 5.017,3.089 9.341,7.189 12.698,12.014 -10.487,10.907 -29.186,14.568 -41.44,8.826" /></clipPath><radialGradient
       id="radialGradient446"
       spreadMethod="pad"
       gradientTransform="matrix(66.779289,0,0,-66.779289,207.6624,329.45621)"
       gradientUnits="userSpaceOnUse"
       r="1"
       cy="0"
       cx="0"
       fy="0"
       fx="0"><stop
         id="stop442"
         offset="0"
         style="stop-opacity:1;stop-color:#59caf5" /><stop
         id="stop444"
         offset="1"
         style="stop-opacity:1;stop-color:#269bd4" /></radialGradient><clipPath
       id="clipPath450"
       clipPathUnits="userSpaceOnUse"><path
         id="path448"
         d="m 196.975,361.147 c 1.735,4.882 4.234,9.175 7.196,12.675 -0.983,-0.943 -1.934,-1.916 -2.854,-2.912 -6.017,-7.354 -9.627,-16.753 -9.627,-26.996 0,-1.769 0.109,-3.513 0.317,-5.225 0.299,2.727 1.169,5.636 2.549,8.615 -0.023,4.43 0.751,9.148 2.419,13.843" /></clipPath><radialGradient
       id="radialGradient456"
       spreadMethod="pad"
       gradientTransform="matrix(66.779785,0,0,-66.779785,207.66289,329.45581)"
       gradientUnits="userSpaceOnUse"
       r="1"
       cy="0"
       cx="0"
       fy="0"
       fx="0"><stop
         id="stop452"
         offset="0"
         style="stop-opacity:1;stop-color:#59caf5" /><stop
         id="stop454"
         offset="1"
         style="stop-opacity:1;stop-color:#269bd4" /></radialGradient><clipPath
       id="clipPath460"
       clipPathUnits="userSpaceOnUse"><path
         id="path458"
         d="m 227.961,328.392 c -12.253,-6.28 -16.137,-5.325 -20.407,-3.808 -0.432,0.126 -0.837,0.323 -1.242,0.507 -1.197,0.451 -2.362,1.06 -3.48,1.859 -1.047,0.872 -1.981,1.885 -2.8,3.001 -1.137,1.276 -1.995,2.699 -2.633,4.224 -1.83,3.757 -2.818,8.271 -2.843,13.129 -0.023,4.43 0.751,9.148 2.419,13.843 1.735,4.882 4.234,9.175 7.196,12.675 -0.983,-0.943 -1.934,-1.916 -2.854,-2.912 -6.017,-7.354 -9.627,-16.753 -9.627,-26.996 0,-1.769 0.109,-3.513 0.317,-5.225 1.437,-11.762 7.659,-22.046 16.661,-28.846 6.095,-4.26 13.198,-7.152 20.546,-8.292 1.688,-0.203 3.406,-0.31 5.148,-0.31 8.192,0 15.843,2.31 22.341,6.311 5.017,3.089 9.341,7.189 12.698,12.014 -10.487,10.907 -29.186,14.568 -41.44,8.826" /></clipPath><radialGradient
       id="radialGradient466"
       spreadMethod="pad"
       gradientTransform="matrix(66.779022,0,0,-66.779022,207.66281,329.45642)"
       gradientUnits="userSpaceOnUse"
       r="1"
       cy="0"
       cx="0"
       fy="0"
       fx="0"><stop
         id="stop462"
         offset="0"
         style="stop-opacity:1;stop-color:#59caf5" /><stop
         id="stop464"
         offset="1"
         style="stop-opacity:1;stop-color:#2aabe8" /></radialGradient><clipPath
       id="clipPath578"
       clipPathUnits="userSpaceOnUse"><path
         id="path576"
         d="m 215.461,358.166 h 61.761 v -56.925 h -61.761 z" /></clipPath><clipPath
       id="clipPath582"
       clipPathUnits="userSpaceOnUse"><path
         id="path580"
         d="m 215.461,358.166 h 61.762 v -56.925 h -61.762 z" /></clipPath><clipPath
       id="clipPath586"
       clipPathUnits="userSpaceOnUse"><path
         id="path584"
         d="m 215.461,358.166 h 61.761 v -56.925 h -61.761 z" /></clipPath><clipPath
       id="clipPath590"
       clipPathUnits="userSpaceOnUse"><path
         id="path588"
         d="m 245.615,331.042 c -5.788,-17.96 -10.476,-20.797 -16.085,-23.464 -0.54,-0.297 -1.123,-0.497 -1.694,-0.713 -1.598,-0.721 -3.316,-1.261 -5.172,-1.571 -1.862,-0.168 -3.748,-0.092 -5.622,0.195 -0.534,0.032 -1.061,0.086 -1.581,0.158 5.697,-2.819 12.114,-4.406 18.901,-4.406 8.192,0 15.843,2.31 22.341,6.311 11.151,6.866 18.898,18.718 20.147,32.447 0.067,0.739 0.257,3.1 0.288,3.48 0.011,0.119 0.018,0.234 0.026,0.352 0.019,0.27 0.033,0.539 0.042,0.807 0.005,0.126 0.009,0.253 0.012,0.378 0.005,0.277 0.005,0.553 0,0.829 -0.002,0.1 -0.001,0.2 -0.004,0.301 -0.011,0.378 -0.03,0.753 -0.059,1.125 0,0.006 -10e-4,0.012 -0.002,0.017 -0.029,0.363 -0.07,0.725 -0.115,1.084 -0.012,0.091 -0.026,0.183 -0.039,0.274 -0.04,0.28 -0.084,0.555 -0.133,0.83 -0.018,0.095 -0.035,0.191 -0.054,0.286 -0.057,0.297 -0.122,0.591 -0.19,0.882 -0.014,0.058 -0.027,0.117 -0.04,0.173 -0.103,0.413 -0.131,0.65 -0.231,0.982 -0.059,0.309 -0.164,0.508 -0.307,1.006 -0.726,1.988 -1.722,3.799 -2.947,5.361 -12.687,-5.567 -23.362,-15.734 -27.482,-27.124" /></clipPath><linearGradient
       id="linearGradient596"
       spreadMethod="pad"
       gradientTransform="matrix(98.113281,31.367042,31.367042,-98.113281,252.88525,328.36426)"
       gradientUnits="userSpaceOnUse"
       y2="0"
       x2="1"
       y1="0"
       x1="0"><stop
         id="stop592"
         offset="0"
         style="stop-opacity:1;stop-color:#ffffff" /><stop
         id="stop594"
         offset="1"
         style="stop-opacity:1;stop-color:#231f20" /></linearGradient><mask
       id="mask598"
       height="1"
       width="1"
       y="0"
       x="0"
       maskUnits="userSpaceOnUse"><g
         id="g630"><g
           style="opacity:0.94999701"
           id="g628"
           clip-path="url(#clipPath578)"><path
             id="path600"
             style="fill:#000000;fill-opacity:1;fill-rule:nonzero;stroke:none"
             d="m 215.461,358.166 h 61.762 v -56.925 h -61.762 z" /><g
             id="g626"><g
               id="g602" /><g
               id="g624"><g
                 id="g622"
                 clip-path="url(#clipPath582)"><g
                   id="g620"><g
                     id="g604" /><g
                     id="g618"><g
                       style="opacity:0.85000598"
                       id="g616"
                       clip-path="url(#clipPath586)"><g
                         id="g614"><g
                           id="g612"
                           clip-path="url(#clipPath590)"><g
                             id="g610"><g
                               id="g608"><path
                                 id="path606"
                                 style="fill:url(#linearGradient596);stroke:none"
                                 d="m 245.615,331.042 c -5.788,-17.96 -10.476,-20.797 -16.085,-23.464 -0.54,-0.297 -1.123,-0.497 -1.694,-0.713 -1.598,-0.721 -3.316,-1.261 -5.172,-1.571 -1.862,-0.168 -3.748,-0.092 -5.622,0.195 -0.534,0.032 -1.061,0.086 -1.581,0.158 5.697,-2.819 12.114,-4.406 18.901,-4.406 8.192,0 15.843,2.31 22.341,6.311 11.151,6.866 18.898,18.718 20.147,32.447 0.067,0.739 0.257,3.1 0.288,3.48 0.011,0.119 0.018,0.234 0.026,0.352 0.019,0.27 0.033,0.539 0.042,0.807 0.005,0.126 0.009,0.253 0.012,0.378 0.005,0.277 0.005,0.553 0,0.829 -0.002,0.1 -0.001,0.2 -0.004,0.301 -0.011,0.378 -0.03,0.753 -0.059,1.125 0,0.006 -10e-4,0.012 -0.002,0.017 -0.029,0.363 -0.07,0.725 -0.115,1.084 -0.012,0.091 -0.026,0.183 -0.039,0.274 -0.04,0.28 -0.084,0.555 -0.133,0.83 -0.018,0.095 -0.035,0.191 -0.054,0.286 -0.057,0.297 -0.122,0.591 -0.19,0.882 -0.014,0.058 -0.027,0.117 -0.04,0.173 -0.103,0.413 -0.131,0.65 -0.231,0.982 -0.059,0.309 -0.164,0.508 -0.307,1.006 -0.726,1.988 -1.722,3.799 -2.947,5.361 -12.687,-5.567 -23.362,-15.734 -27.482,-27.124" /></g></g></g></g></g></g></g></g></g></g></g></g></mask><clipPath
       id="clipPath638"
       clipPathUnits="userSpaceOnUse"><path
         id="path636"
         d="m 215.461,358.166 h 61.761 v -56.925 h -61.761 z" /></clipPath><clipPath
       id="clipPath642"
       clipPathUnits="userSpaceOnUse"><path
         id="path640"
         d="m 245.615,331.042 c -5.788,-17.96 -10.476,-20.797 -16.085,-23.464 -0.54,-0.297 -1.123,-0.497 -1.694,-0.713 -1.598,-0.722 -3.316,-1.261 -5.172,-1.571 -1.862,-0.168 -3.748,-0.092 -5.622,0.196 -0.534,0.031 -1.061,0.085 -1.581,0.158 5.697,-2.82 12.114,-4.407 18.901,-4.407 8.192,0 15.843,2.31 22.341,6.311 11.151,6.866 18.898,18.717 20.147,32.448 0.066,0.738 0.257,3.098 0.288,3.48 0.011,0.117 0.018,0.233 0.025,0.351 0.02,0.269 0.034,0.539 0.043,0.807 0.005,0.126 0.009,0.253 0.012,0.378 0.005,0.277 0.005,0.554 0,0.829 -0.002,0.1 -0.001,0.2 -0.004,0.301 -0.011,0.378 -0.03,0.754 -0.059,1.125 0,0.006 -10e-4,0.012 -0.002,0.017 -0.029,0.364 -0.069,0.725 -0.115,1.084 -0.012,0.091 -0.026,0.183 -0.039,0.274 -0.04,0.279 -0.085,0.556 -0.133,0.83 -0.018,0.095 -0.035,0.191 -0.054,0.286 -0.057,0.297 -0.121,0.591 -0.191,0.882 -0.013,0.058 -0.026,0.116 -0.039,0.174 -0.103,0.412 -0.131,0.649 -0.231,0.98 -0.059,0.311 -0.164,0.508 -0.306,1.006 -0.727,1.989 -1.723,3.801 -2.949,5.362 -12.686,-5.568 -23.361,-15.734 -27.481,-27.124" /></clipPath><radialGradient
       id="radialGradient648"
       spreadMethod="pad"
       gradientTransform="matrix(37.696484,37.696484,37.696484,-37.696484,245.08861,335.55682)"
       gradientUnits="userSpaceOnUse"
       r="1"
       cy="0"
       cx="0"
       fy="0"
       fx="0"><stop
         id="stop644"
         offset="0"
         style="stop-opacity:1;stop-color:#bfdf14" /><stop
         id="stop646"
         offset="1"
         style="stop-opacity:1;stop-color:#33b652" /></radialGradient><clipPath
       id="clipPath670"
       clipPathUnits="userSpaceOnUse"><path
         id="path668"
         d="m 191.69,386.586 h 61.976 V 320.817 H 191.69 Z" /></clipPath><clipPath
       id="clipPath674"
       clipPathUnits="userSpaceOnUse"><path
         id="path672"
         d="m 191.69,386.586 h 62.442 v -65.77 H 191.69 Z" /></clipPath><clipPath
       id="clipPath678"
       clipPathUnits="userSpaceOnUse"><path
         id="path676"
         d="m 218.876,376.266 c 5.173,2.33 10.912,3.627 16.954,3.627 0.804,0 1.6,-0.032 2.392,-0.078 1.695,-0.161 5.515,-0.262 9.496,-2.012 1.263,-0.556 2.278,-1.169 3.074,-1.747 0.791,-0.519 1.474,-1.139 2.033,-1.827 0.137,-0.168 0.264,-0.343 0.384,-0.52 0.024,0.059 0.053,0.113 0.074,0.173 0.849,2.32 0.243,4.865 -1.377,6.858 -0.578,0.712 -1.283,1.351 -2.098,1.886 -0.824,0.598 -1.871,1.23 -3.174,1.803 -4.11,1.808 -8.053,1.911 -9.8,2.078 -0.819,0.047 -1.642,0.079 -2.472,0.079 -6.236,0 -12.16,-1.338 -17.5,-3.743 -14.84,-6.681 -25.172,-21.598 -25.172,-38.929 0,-8.512 2.493,-16.44 6.786,-23.098 -2.556,5.374 -3.988,11.387 -3.988,17.734 0,16.791 10.01,31.243 24.388,37.716" /></clipPath><linearGradient
       id="linearGradient684"
       spreadMethod="pad"
       gradientTransform="matrix(61.976444,0,0,-61.976444,191.68994,353.70117)"
       gradientUnits="userSpaceOnUse"
       y2="0"
       x2="1"
       y1="0"
       x1="0"><stop
         id="stop680"
         offset="0"
         style="stop-opacity:1;stop-color:#ffffff" /><stop
         id="stop682"
         offset="1"
         style="stop-opacity:1;stop-color:#231f20" /></linearGradient><clipPath
       id="clipPath688"
       clipPathUnits="userSpaceOnUse"><path
         id="path686"
         d="m 218.876,376.266 c 5.173,2.33 10.912,3.627 16.954,3.627 0.804,0 1.6,-0.032 2.392,-0.078 1.695,-0.161 5.515,-0.262 9.496,-2.012 1.263,-0.556 2.278,-1.169 3.074,-1.747 0.791,-0.519 1.474,-1.139 2.033,-1.827 0.137,-0.168 0.264,-0.343 0.384,-0.52 0.024,0.059 0.053,0.113 0.074,0.173 0.849,2.32 0.243,4.865 -1.377,6.858 -0.578,0.712 -1.283,1.351 -2.098,1.886 -0.824,0.598 -1.871,1.23 -3.174,1.803 -4.11,1.808 -8.053,1.911 -9.8,2.078 -0.819,0.047 -1.642,0.079 -2.472,0.079 -6.236,0 -12.16,-1.338 -17.5,-3.743 -14.84,-6.681 -25.172,-21.598 -25.172,-38.929 0,-8.512 2.493,-16.44 6.786,-23.098 -2.556,5.374 -3.988,11.387 -3.988,17.734 0,16.791 10.01,31.243 24.388,37.716" /></clipPath><linearGradient
       id="linearGradient694"
       spreadMethod="pad"
       gradientTransform="matrix(61.976444,0,0,-61.976444,191.68994,353.70117)"
       gradientUnits="userSpaceOnUse"
       y2="0"
       x2="1"
       y1="0"
       x1="0"><stop
         id="stop690"
         offset="0"
         style="stop-opacity:1;stop-color:#ffffff" /><stop
         id="stop692"
         offset="1"
         style="stop-opacity:1;stop-color:#231f20" /></linearGradient><mask
       id="mask696"
       height="1"
       width="1"
       y="0"
       x="0"
       maskUnits="userSpaceOnUse"><g
         id="g730"><g
           id="g728"
           clip-path="url(#clipPath670)"><path
             id="path698"
             style="fill:#000000;fill-opacity:1;fill-rule:nonzero;stroke:none"
             d="m 191.69,386.586 h 62.442 v -65.77 H 191.69 Z" /><g
             id="g726"><g
               id="g700" /><g
               id="g724"><g
                 id="g722"
                 clip-path="url(#clipPath674)"><g
                   id="g710"><g
                     id="g708"
                     clip-path="url(#clipPath678)"><g
                       id="g706"><g
                         id="g704"><path
                           id="path702"
                           style="fill:url(#linearGradient684);stroke:none"
                           d="m 218.876,376.266 c 5.173,2.33 10.912,3.627 16.954,3.627 0.804,0 1.6,-0.032 2.392,-0.078 1.695,-0.161 5.515,-0.262 9.496,-2.012 1.263,-0.556 2.278,-1.169 3.074,-1.747 0.791,-0.519 1.474,-1.139 2.033,-1.827 0.137,-0.168 0.264,-0.343 0.384,-0.52 0.024,0.059 0.053,0.113 0.074,0.173 0.849,2.32 0.243,4.865 -1.377,6.858 -0.578,0.712 -1.283,1.351 -2.098,1.886 -0.824,0.598 -1.871,1.23 -3.174,1.803 -4.11,1.808 -8.053,1.911 -9.8,2.078 -0.819,0.047 -1.642,0.079 -2.472,0.079 -6.236,0 -12.16,-1.338 -17.5,-3.743 -14.84,-6.681 -25.172,-21.598 -25.172,-38.929 0,-8.512 2.493,-16.44 6.786,-23.098 -2.556,5.374 -3.988,11.387 -3.988,17.734 0,16.791 10.01,31.243 24.388,37.716" /></g></g></g></g><g
                   id="g720"><g
                     id="g718"
                     clip-path="url(#clipPath688)"><g
                       id="g716"><g
                         id="g714"><path
                           id="path712"
                           style="fill:url(#linearGradient694);stroke:none"
                           d="m 218.876,376.266 c 5.173,2.33 10.912,3.627 16.954,3.627 0.804,0 1.6,-0.032 2.392,-0.078 1.695,-0.161 5.515,-0.262 9.496,-2.012 1.263,-0.556 2.278,-1.169 3.074,-1.747 0.791,-0.519 1.474,-1.139 2.033,-1.827 0.137,-0.168 0.264,-0.343 0.384,-0.52 0.024,0.059 0.053,0.113 0.074,0.173 0.849,2.32 0.243,4.865 -1.377,6.858 -0.578,0.712 -1.283,1.351 -2.098,1.886 -0.824,0.598 -1.871,1.23 -3.174,1.803 -4.11,1.808 -8.053,1.911 -9.8,2.078 -0.819,0.047 -1.642,0.079 -2.472,0.079 -6.236,0 -12.16,-1.338 -17.5,-3.743 -14.84,-6.681 -25.172,-21.598 -25.172,-38.929 0,-8.512 2.493,-16.44 6.786,-23.098 -2.556,5.374 -3.988,11.387 -3.988,17.734 0,16.791 10.01,31.243 24.388,37.716" /></g></g></g></g></g></g></g></g></g></mask><clipPath
       id="clipPath738"
       clipPathUnits="userSpaceOnUse"><path
         id="path736"
         d="m 191.69,386.586 h 61.976 V 320.817 H 191.69 Z" /></clipPath><clipPath
       id="clipPath742"
       clipPathUnits="userSpaceOnUse"><path
         id="path740"
         d="m 218.876,376.266 c 5.173,2.329 10.912,3.626 16.953,3.626 0.805,0 1.601,-0.031 2.393,-0.077 1.695,-0.161 5.515,-0.262 9.496,-2.013 1.263,-0.555 2.278,-1.168 3.075,-1.746 0.79,-0.519 1.473,-1.139 2.032,-1.827 0.137,-0.169 0.264,-0.344 0.384,-0.52 0.024,0.059 0.053,0.113 0.074,0.172 0.849,2.321 0.243,4.866 -1.377,6.86 -0.578,0.711 -1.284,1.35 -2.098,1.885 -0.824,0.598 -1.871,1.23 -3.174,1.803 -4.109,1.808 -8.053,1.911 -9.8,2.078 -0.819,0.047 -1.642,0.079 -2.472,0.079 -6.235,0 -12.16,-1.338 -17.5,-3.743 -14.839,-6.681 -25.172,-21.598 -25.172,-38.929 0,-8.512 2.493,-16.44 6.786,-23.097 -2.556,5.373 -3.988,11.386 -3.988,17.733 0,16.791 10.01,31.243 24.388,37.716" /></clipPath><radialGradient
       id="radialGradient748"
       spreadMethod="pad"
       gradientTransform="matrix(57.358578,0,0,-57.358578,213.06639,376.89127)"
       gradientUnits="userSpaceOnUse"
       r="1"
       cy="0"
       cx="0"
       fy="0"
       fx="0"><stop
         id="stop744"
         offset="0"
         style="stop-opacity:1;stop-color:#ffffff" /><stop
         id="stop746"
         offset="1"
         style="stop-opacity:1;stop-color:#4cc1f0" /></radialGradient><clipPath
       id="clipPath752"
       clipPathUnits="userSpaceOnUse"><path
         id="path750"
         d="m 218.876,376.266 c 5.173,2.329 10.912,3.626 16.953,3.626 0.805,0 1.601,-0.031 2.393,-0.077 1.695,-0.161 5.515,-0.262 9.496,-2.013 1.263,-0.555 2.278,-1.168 3.075,-1.746 0.79,-0.519 1.473,-1.139 2.032,-1.827 0.137,-0.169 0.264,-0.344 0.384,-0.52 0.024,0.059 0.053,0.113 0.074,0.172 0.849,2.321 0.243,4.866 -1.377,6.86 -0.578,0.711 -1.284,1.35 -2.098,1.885 -0.824,0.598 -1.871,1.23 -3.174,1.803 -4.109,1.808 -8.053,1.911 -9.8,2.078 -0.819,0.047 -1.642,0.079 -2.472,0.079 -6.235,0 -12.16,-1.338 -17.5,-3.743 -14.839,-6.681 -25.172,-21.598 -25.172,-38.929 0,-8.512 2.493,-16.44 6.786,-23.097 -2.556,5.373 -3.988,11.386 -3.988,17.733 0,16.791 10.01,31.243 24.388,37.716" /></clipPath><radialGradient
       id="radialGradient760"
       spreadMethod="pad"
       gradientTransform="matrix(57.358578,0,0,-57.358578,213.06639,376.89127)"
       gradientUnits="userSpaceOnUse"
       r="1"
       cy="0"
       cx="0"
       fy="0"
       fx="0"><stop
         id="stop754"
         offset="0"
         style="stop-opacity:1;stop-color:#4dbf5e" /><stop
         id="stop756"
         offset="0.37484762"
         style="stop-opacity:1;stop-color:#4dbf5e" /><stop
         id="stop758"
         offset="1"
         style="stop-opacity:1;stop-color:#59caf5" /></radialGradient></defs><g
     transform="matrix(1.3333333,0,0,-1.3333333,0,199.99998)"
     id="g10"><g
       transform="translate(-139.5,-250.5)"
       id="g12"><g
         clip-path="url(#clipPath18)"
         id="g14"><g
           transform="translate(165.25,280.144)"
           id="g20"><path
             id="path22"
             style="fill:#59c134;fill-opacity:1;fill-rule:nonzero;stroke:none"
             d="m 0,0 c -0.956,0 -2.905,1.489 -4.568,1.489 -0.923,0 -1.741,-0.426 -1.741,-1.418 0,-2.375 8.863,-2.024 8.863,-7.83 0,-3.405 -2.873,-5.989 -7.263,-5.989 -2.872,0 -7.123,1.631 -7.123,3.932 0,0.78 0.777,2.268 2.198,2.268 1.983,0 2.868,-1.737 5.276,-1.737 1.561,0 2.019,0.498 2.019,1.454 0,2.338 -8.854,1.985 -8.854,7.831 0,3.544 2.866,5.954 6.907,5.954 2.514,0 6.377,-1.172 6.377,-3.686 C 2.091,1.097 1.207,0 0,0" /></g><g
           transform="translate(170.5207,283.0196)"
           id="g24"><path
             id="path26"
             style="fill:#59c134;fill-opacity:1;fill-rule:nonzero;stroke:none"
             d="M 0,0 C 0,1.698 1.06,2.83 2.549,2.83 4.039,2.83 5.1,1.698 5.1,0 v -13.609 c 0,-1.7 -1.061,-2.833 -2.551,-2.833 -1.489,0 -2.549,1.133 -2.549,2.833 z m 5.188,7.449 c 0,-1.467 -1.172,-2.706 -2.639,-2.706 -1.405,0 -2.638,1.27 -2.638,2.706 0,1.334 1.233,2.573 2.638,2.573 1.4,0 2.639,-1.206 2.639,-2.573" /></g><g
           transform="translate(178.3641,283.0508)"
           id="g28"><path
             id="path30"
             style="fill:#59c134;fill-opacity:1;fill-rule:nonzero;stroke:none"
             d="m 0,0 c 0,1.698 1.064,2.833 2.551,2.833 1.312,0 2.162,-0.71 2.34,-1.915 1.238,1.347 2.869,2.128 4.748,2.128 2.126,0 3.929,-0.884 5.277,-2.587 1.416,1.627 3.65,2.587 5.382,2.587 4.149,0 6.983,-2.408 6.983,-6.875 v -9.778 c 0,-1.7 -1.062,-2.835 -2.55,-2.835 -1.489,0 -2.552,1.135 -2.552,2.835 v 8.893 c 0,2.057 -1.135,3.508 -2.979,3.508 -1.874,0 -3.008,-1.451 -3.008,-3.508 v -8.893 c 0,-1.7 -1.064,-2.835 -2.55,-2.835 -1.491,0 -2.552,1.135 -2.552,2.835 v 8.893 c 0,2.057 -1.133,3.508 -2.976,3.508 -2.09,0 -3.01,-1.451 -3.01,-3.508 v -8.893 c 0,-1.7 -1.064,-2.835 -2.553,-2.835 -1.487,0 -2.551,1.135 -2.551,2.835 z" /></g><g
           transform="translate(217.3854,271.0733)"
           id="g32"><path
             id="path34"
             style="fill:#59c134;fill-opacity:1;fill-rule:nonzero;stroke:none"
             d="m 0,0 c 2.658,0 3.969,2.761 3.969,5.134 0,2.415 -1.311,5.212 -3.969,5.212 -2.727,0 -4.005,-2.55 -4.005,-5.031 C -4.005,2.833 -2.8,0 0,0 m -9.105,11.978 c 0,1.699 1.06,2.834 2.551,2.834 1.418,0 2.232,-0.785 2.549,-2.129 0.961,1.559 2.945,2.342 4.853,2.342 5.497,0 8.225,-5.142 8.225,-10.099 0,-4.821 -3.261,-9.603 -8.395,-9.603 -1.595,0 -3.333,0.602 -4.683,1.772 v -6.232 c 0,-1.702 -1.06,-2.838 -2.549,-2.838 -1.491,0 -2.551,1.136 -2.551,2.838 z" /></g><g
           transform="translate(229.0757,291.2676)"
           id="g36"><path
             id="path38"
             style="fill:#59c134;fill-opacity:1;fill-rule:nonzero;stroke:none"
             d="M 0,0 C 0,1.701 1.068,2.833 2.553,2.833 4.043,2.833 5.105,1.701 5.105,0 v -21.824 c 0,-1.698 -1.062,-2.835 -2.552,-2.835 -1.485,0 -2.553,1.137 -2.553,2.835 z" /></g><g
           transform="translate(250.0101,277.9453)"
           id="g40"><path
             id="path42"
             style="fill:#59c134;fill-opacity:1;fill-rule:nonzero;stroke:none"
             d="M 0,0 C -0.282,2.233 -1.697,3.899 -4.072,3.899 -6.341,3.899 -7.865,2.162 -8.112,0 Z m -8.005,-3.402 c 0.356,-2.515 2.445,-3.683 4.819,-3.683 2.621,0 4.427,2.057 5.772,2.057 1.1,0 2.093,-1.099 2.093,-2.198 0,-2.196 -4.537,-4.323 -8.325,-4.323 -5.74,0 -9.566,4.182 -9.566,9.811 0,5.176 3.752,9.891 9.14,9.891 5.525,0 9.175,-5.037 9.175,-9.284 0,-1.525 -0.673,-2.271 -2.231,-2.271 z" /></g><g
           transform="translate(263.7902,276.1241)"
           id="g44"><path
             id="path46"
             style="fill:#2aabe8;fill-opacity:1;fill-rule:nonzero;stroke:none"
             d="m 0,0 c 0,-1.269 0.277,-2.318 0.83,-3.149 0.646,-0.991 1.568,-1.487 2.767,-1.487 1.199,0 2.123,0.496 2.768,1.487 C 6.919,-2.296 7.196,-1.245 7.196,0 7.196,1.199 6.907,2.226 6.331,3.079 5.662,4.071 4.751,4.567 3.597,4.567 2.445,4.567 1.534,4.071 0.866,3.079 0.288,2.226 0,1.199 0,0 m -2.63,-16.743 c -1.822,0 -2.731,1.328 -2.731,3.983 V 5.599 c 0,2.632 0.909,3.949 2.731,3.949 1.038,0 1.904,-0.588 2.596,-1.764 1.199,1.245 2.698,1.868 4.497,1.868 2.49,0 4.532,-0.992 6.122,-2.976 1.453,-1.845 2.181,-4.046 2.181,-6.606 0,-2.561 -0.752,-4.786 -2.25,-6.678 -1.59,-2.075 -3.631,-3.112 -6.122,-3.112 -1.708,0 -3.137,0.53 -4.289,1.59 v -4.635 c 0,-2.652 -0.913,-3.978 -2.735,-3.978" /></g><g
           transform="translate(283.8538,276.2806)"
           id="g48"><path
             id="path50"
             style="fill:#2aabe8;fill-opacity:1;fill-rule:nonzero;stroke:none"
             d="m 0,0 c 0,-1.227 0.277,-2.247 0.83,-3.058 0.646,-0.949 1.545,-1.423 2.698,-1.423 1.131,0 2.018,0.474 2.665,1.423 C 6.747,-2.224 7.022,-1.205 7.022,0 7.022,1.157 6.734,2.153 6.158,2.986 5.512,3.912 4.635,4.375 3.528,4.375 2.375,4.375 1.476,3.924 0.83,3.021 0.277,2.21 0,1.203 0,0 m 7.196,-7.629 c -1.085,-1.36 -2.608,-2.04 -4.568,-2.04 -2.489,0 -4.519,1.001 -6.088,3.003 -1.452,1.842 -2.178,4.04 -2.178,6.596 0,2.555 0.76,4.765 2.283,6.631 1.614,2.002 3.678,3.004 6.192,3.004 1.751,0 3.205,-0.647 4.359,-1.938 0.622,1.176 1.487,1.765 2.594,1.765 1.799,0 2.699,-1.318 2.699,-3.951 V -5.545 c 0,-2.658 -0.9,-3.986 -2.699,-3.986 -1.13,0 -1.994,0.634 -2.594,1.902" /></g><g
           transform="translate(312.4958,285.6721)"
           id="g52"><path
             id="path54"
             style="fill:#2aabe8;fill-opacity:1;fill-rule:nonzero;stroke:none"
             d="m 0,0 c 0.784,0 1.424,-0.237 1.921,-0.709 0.496,-0.474 0.743,-1.102 0.743,-1.886 0,-0.553 -0.15,-1.188 -0.449,-1.902 l -8.303,-19.718 c -0.621,-1.476 -1.418,-2.215 -2.387,-2.215 -0.808,0 -1.459,0.238 -1.954,0.709 -0.496,0.473 -0.743,1.113 -0.743,1.921 0,0.808 0.368,1.983 1.107,3.528 0.53,1.085 1.059,2.156 1.59,3.217 l -5.499,12.835 c -0.185,0.437 -0.277,1.025 -0.277,1.764 0,0.668 0.264,1.245 0.795,1.73 0.531,0.484 1.143,0.726 1.833,0.726 0.761,0 1.371,-0.267 1.833,-0.799 0.301,-0.37 0.612,-0.983 0.935,-1.838 l 3.079,-8.26 3.356,8.71 C -1.868,-0.729 -1.06,0 0,0" /></g></g></g><g
       transform="translate(-139.5,-250.5)"
       id="g56"><g
         clip-path="url(#clipPath62)"
         id="g58"><g
           id="g64"><g
             id="g66"><path
               id="path78"
               style="fill:url(#radialGradient76);stroke:none"
               d="m 220.277,353.764 c 0,-4.144 3.36,-7.502 7.503,-7.502 v 0 c 4.146,0 7.504,3.358 7.504,7.502 v 0 c 0,4.145 -3.358,7.505 -7.504,7.505 v 0 c -4.143,0 -7.503,-3.36 -7.503,-7.505" /></g></g></g></g><g
       transform="translate(-139.5,-250.5)"
       id="g80"><g
         clip-path="url(#clipPath86)"
         id="g82"><g
           id="g88"><g
             id="g90"><path
               id="path100"
               style="fill:url(#radialGradient98);stroke:none"
               d="m 216.862,382.843 c -14.84,-6.681 -25.172,-21.598 -25.172,-38.93 v 0 c 0,-23.567 19.104,-42.672 42.673,-42.672 v 0 c 8.191,0 15.842,2.309 22.34,6.311 v 0 c 11.151,6.866 18.898,18.717 20.147,32.447 v 0 c 0.067,0.739 0.257,3.099 0.288,3.481 v 0 c 0.011,0.118 0.018,0.234 0.025,0.351 v 0 c 0.02,0.27 0.034,0.539 0.043,0.807 v 0 c 0.005,0.126 0.009,0.253 0.012,0.378 v 0 c 0.005,0.277 0.005,0.553 0,0.829 v 0 c -0.002,0.101 -0.001,0.201 -0.004,0.3 v 0 c -0.01,0.379 -0.03,0.755 -0.059,1.126 v 0 c 0,0.007 -0.002,0.012 -0.003,0.017 v 0 c -0.028,0.364 -0.068,0.725 -0.114,1.084 v 0 c -0.012,0.091 -0.026,0.183 -0.039,0.274 v 0 c -0.04,0.28 -0.084,0.556 -0.133,0.83 v 0 c -0.018,0.096 -0.035,0.191 -0.054,0.286 v 0 c -0.058,0.297 -0.121,0.591 -0.191,0.882 v 0 c -0.013,0.058 -0.026,0.117 -0.039,0.173 v 0 c -0.103,0.413 -0.131,0.649 -0.231,0.981 v 0 c -0.059,0.311 -0.164,0.508 -0.307,1.007 v 0 c -1.622,4.445 -4.591,8.018 -8.475,9.846 v 0 c -0.078,0.038 -0.157,0.076 -0.238,0.111 v 0 c -0.051,0.025 -0.104,0.046 -0.157,0.069 v 0 c -0.084,0.035 -0.167,0.072 -0.252,0.107 v 0 c -0.156,0.065 -0.311,0.126 -0.47,0.186 v 0 c -0.03,0.011 -0.06,0.024 -0.091,0.036 v 0 c 0.024,-0.01 0.048,-0.021 0.072,-0.03 v 0 c -0.943,0.351 -1.93,0.607 -2.958,0.744 v 0 c -1.043,0.141 -2.079,0.155 -3.098,0.062 v 0 c 0.03,0.003 0.059,0.007 0.089,0.01 v 0 c -0.038,-0.004 -0.077,-0.009 -0.116,-0.013 v 0 c -0.004,0 -0.008,-10e-4 -0.011,-10e-4 v 0 c 0.002,0 0.004,0 0.007,10e-4 v 0 c -0.011,-10e-4 -0.022,-0.003 -0.033,-0.004 v 0 c -0.083,-0.008 -0.168,-0.016 -0.251,-0.026 v 0 c -0.269,-0.029 -0.535,-0.07 -0.8,-0.115 v 0 c -2.474,-0.421 -4.822,-1.493 -6.894,-3.079 v 0 l 0.11,0.076 c 0,0 -1.886,-1.331 -3.995,-4.882 v 0 c -1.174,-1.977 -2.417,-4.643 -3.442,-8.148 v 0 c -0.074,-0.277 -0.15,-0.551 -0.232,-0.823 v 0 c -0.001,-0.001 -0.001,-0.005 -0.001,-0.005 v 0 c -0.665,-2.443 -1.581,-4.243 -2.46,-5.778 v 0 c -1.108,-1.937 -2.267,-3.417 -3.984,-4.831 v 0 c -3.424,-3.185 -7.718,-4.996 -12.208,-4.806 v 0 c -0.692,0.022 -1.386,0.086 -2.083,0.203 v 0 c -9.864,1.668 -16.238,12.615 -14.236,24.451 v 0 c 0.02,0.113 0.044,0.223 0.065,0.336 v 0 c 1.073,6.227 4.279,11.46 8.546,14.703 v 0 c 1.854,1.409 3.908,2.44 6.072,3.016 v 0 c 0.691,0.184 1.393,0.325 2.104,0.412 v 0 c 0.926,0.131 1.865,0.177 2.811,0.138 v 0 c 0.188,-0.01 0.383,-0.025 0.578,-0.043 v 0 c 1.139,-0.101 2.412,-0.34 3.812,-0.801 v 0 c 0.704,-0.234 1.44,-0.522 2.206,-0.88 v 0 c 3.018,-1.408 4.916,-2.437 6.713,-3.067 v 0 c 0.009,-0.004 0.014,-0.006 0.022,-0.009 v 0 c 0.005,-0.002 0.011,-0.003 0.016,-0.004 v 0 c 0.258,-0.094 0.514,-0.175 0.771,-0.246 v 0 c 0.027,-0.007 0.051,-0.014 0.077,-0.022 v 0 c 4.16,-1.109 8.362,0.649 9.653,4.183 v 0 c 0.849,2.32 0.242,4.865 -1.377,6.859 v 0 c -0.578,0.711 -1.284,1.35 -2.098,1.885 v 0 c -0.824,0.598 -1.871,1.23 -3.174,1.803 v 0 c -4.109,1.808 -8.053,1.911 -9.8,2.079 v 0 c -0.819,0.046 -1.641,0.078 -2.471,0.078 v 0 c -6.236,0 -12.16,-1.337 -17.501,-3.743 m 43.604,-18.897 c 0.008,0 0.015,10e-4 0.022,10e-4 v 0 c -0.007,0 -0.014,-10e-4 -0.022,-10e-4 m 5.895,-0.786 c -0.011,0.005 -0.023,0.009 -0.035,0.013 v 0 c 0.012,-0.004 0.024,-0.008 0.035,-0.013" /></g></g></g></g><g
       transform="translate(-139.5,-250.5)"
       id="g102"><g
         clip-path="url(#clipPath108)"
         id="g104"><g
           id="g110"><g
             id="g112"><path
               id="path122"
               style="fill:url(#radialGradient120);stroke:none"
               d="m 201.317,370.91 c -6.017,-7.354 -9.627,-16.753 -9.627,-26.997 v 0 c 0,-1.768 0.109,-3.511 0.317,-5.224 v 0 c 0.299,2.727 1.168,5.637 2.549,8.616 v 0 c -0.023,4.429 0.751,9.147 2.419,13.842 v 0 c 1.734,4.882 4.234,9.175 7.195,12.675 v 0 c -0.982,-0.943 -1.934,-1.916 -2.853,-2.912" /></g></g></g></g><g
       transform="translate(-139.5,-250.5)"
       id="g124"><g
         clip-path="url(#clipPath130)"
         id="g126"><g
           id="g132"><g
             id="g134" /><g
             mask="url(#mask244)"
             id="g360"><g
               id="g362" /><g
               id="g570"><g
                 style="opacity:0.69999701"
                 id="g568"
                 clip-path="url(#clipPath366)"><g
                   id="g476"><g
                     id="g474"
                     clip-path="url(#clipPath370)"><g
                       id="g472"><g
                         id="g470"><path
                           id="path468"
                           style="fill:url(#radialGradient376);stroke:none"
                           d="m 229.214,301.551 c -7.348,1.14 -14.451,4.032 -20.546,8.292 5.857,-4.424 12.889,-7.371 20.546,-8.292" /></g></g></g></g><g
                   id="g486"><g
                     id="g484"
                     clip-path="url(#clipPath380)"><g
                       id="g482"><g
                         id="g480"><path
                           id="path478"
                           style="fill:url(#radialGradient386);stroke:none"
                           d="m 202.832,326.95 c 1.118,-0.799 2.283,-1.408 3.48,-1.859 -3.883,1.753 -6.905,4.962 -8.913,9.084 0.638,-1.525 1.496,-2.948 2.633,-4.224 0.819,-1.116 1.753,-2.129 2.8,-3.001" /></g></g></g></g><g
                   id="g496"><g
                     id="g494"
                     clip-path="url(#clipPath390)"><g
                       id="g492"><g
                         id="g490"><path
                           id="path488"
                           style="fill:url(#radialGradient396);stroke:none"
                           d="m 202.832,326.95 c 1.118,-0.799 2.283,-1.408 3.48,-1.859 -3.883,1.753 -6.905,4.962 -8.913,9.084 0.638,-1.525 1.496,-2.948 2.633,-4.224 0.819,-1.116 1.753,-2.129 2.8,-3.001" /></g></g></g></g><g
                   id="g506"><g
                     id="g504"
                     clip-path="url(#clipPath400)"><g
                       id="g502"><g
                         id="g500"><path
                           id="path498"
                           style="fill:url(#radialGradient406);stroke:none"
                           d="m 206.312,325.091 c 0.405,-0.184 0.81,-0.381 1.242,-0.507 -0.424,0.151 -0.837,0.323 -1.242,0.507" /></g></g></g></g><g
                   id="g516"><g
                     id="g514"
                     clip-path="url(#clipPath410)"><g
                       id="g512"><g
                         id="g510"><path
                           id="path508"
                           style="fill:url(#radialGradient416);stroke:none"
                           d="m 227.961,328.392 c 12.254,5.742 30.953,2.081 41.44,-8.826 -10.487,10.907 -29.397,14.999 -41.44,8.826" /></g></g></g></g><g
                   id="g526"><g
                     id="g524"
                     clip-path="url(#clipPath420)"><g
                       id="g522"><g
                         id="g520"><path
                           id="path518"
                           style="fill:url(#radialGradient426);stroke:none"
                           d="m 227.961,328.392 c -10.417,-4.882 -15.226,-5.318 -20.407,-3.808 4.27,-1.517 8.154,-2.472 20.407,3.808" /></g></g></g></g><g
                   id="g536"><g
                     id="g534"
                     clip-path="url(#clipPath430)"><g
                       id="g532"><g
                         id="g530"><path
                           id="path528"
                           style="fill:url(#radialGradient436);stroke:none"
                           d="m 227.961,328.392 c -10.417,-4.882 -15.226,-5.318 -20.407,-3.808 4.27,-1.517 8.154,-2.472 20.407,3.808" /></g></g></g></g><g
                   id="g546"><g
                     id="g544"
                     clip-path="url(#clipPath440)"><g
                       id="g542"><g
                         id="g540"><path
                           id="path538"
                           style="fill:url(#radialGradient446);stroke:none"
                           d="m 227.961,328.392 c -12.253,-6.28 -16.137,-5.325 -20.407,-3.808 -0.432,0.126 -0.837,0.323 -1.242,0.507 -1.197,0.451 -2.362,1.06 -3.48,1.859 -1.047,0.872 -1.981,1.885 -2.8,3.001 -1.137,1.276 -1.995,2.699 -2.633,4.224 -1.83,3.757 -2.818,8.271 -2.843,13.129 -1.38,-2.979 -2.25,-5.888 -2.549,-8.615 1.437,-11.762 7.659,-22.046 16.661,-28.846 6.095,-4.26 13.198,-7.152 20.546,-8.292 1.688,-0.203 3.406,-0.31 5.148,-0.31 8.192,0 15.843,2.31 22.341,6.311 5.017,3.089 9.341,7.189 12.698,12.014 -10.487,10.907 -29.186,14.568 -41.44,8.826" /></g></g></g></g><g
                   id="g556"><g
                     id="g554"
                     clip-path="url(#clipPath450)"><g
                       id="g552"><g
                         id="g550"><path
                           id="path548"
                           style="fill:url(#radialGradient456);stroke:none"
                           d="m 196.975,361.147 c 1.735,4.882 4.234,9.175 7.196,12.675 -0.983,-0.943 -1.934,-1.916 -2.854,-2.912 -6.017,-7.354 -9.627,-16.753 -9.627,-26.996 0,-1.769 0.109,-3.513 0.317,-5.225 0.299,2.727 1.169,5.636 2.549,8.615 -0.023,4.43 0.751,9.148 2.419,13.843" /></g></g></g></g><g
                   id="g566"><g
                     id="g564"
                     clip-path="url(#clipPath460)"><g
                       id="g562"><g
                         id="g560"><path
                           id="path558"
                           style="fill:url(#radialGradient466);stroke:none"
                           d="m 227.961,328.392 c -12.253,-6.28 -16.137,-5.325 -20.407,-3.808 -0.432,0.126 -0.837,0.323 -1.242,0.507 -1.197,0.451 -2.362,1.06 -3.48,1.859 -1.047,0.872 -1.981,1.885 -2.8,3.001 -1.137,1.276 -1.995,2.699 -2.633,4.224 -1.83,3.757 -2.818,8.271 -2.843,13.129 -0.023,4.43 0.751,9.148 2.419,13.843 1.735,4.882 4.234,9.175 7.196,12.675 -0.983,-0.943 -1.934,-1.916 -2.854,-2.912 -6.017,-7.354 -9.627,-16.753 -9.627,-26.996 0,-1.769 0.109,-3.513 0.317,-5.225 1.437,-11.762 7.659,-22.046 16.661,-28.846 6.095,-4.26 13.198,-7.152 20.546,-8.292 1.688,-0.203 3.406,-0.31 5.148,-0.31 8.192,0 15.843,2.31 22.341,6.311 5.017,3.089 9.341,7.189 12.698,12.014 -10.487,10.907 -29.186,14.568 -41.44,8.826" /></g></g></g></g></g></g></g></g><g
           id="g572"><g
             id="g574" /><g
             mask="url(#mask598)"
             id="g632"><g
               id="g634" /><g
               id="g662"><g
                 style="opacity:0.94999701"
                 id="g660"
                 clip-path="url(#clipPath638)"><g
                   id="g658"><g
                     id="g656"
                     clip-path="url(#clipPath642)"><g
                       id="g654"><g
                         id="g652"><path
                           id="path650"
                           style="fill:url(#radialGradient648);stroke:none"
                           d="m 245.615,331.042 c -5.788,-17.96 -10.476,-20.797 -16.085,-23.464 -0.54,-0.297 -1.123,-0.497 -1.694,-0.713 -1.598,-0.722 -3.316,-1.261 -5.172,-1.571 -1.862,-0.168 -3.748,-0.092 -5.622,0.196 -0.534,0.031 -1.061,0.085 -1.581,0.158 5.697,-2.82 12.114,-4.407 18.901,-4.407 8.192,0 15.843,2.31 22.341,6.311 11.151,6.866 18.898,18.717 20.147,32.448 0.066,0.738 0.257,3.098 0.288,3.48 0.011,0.117 0.018,0.233 0.025,0.351 0.02,0.269 0.034,0.539 0.043,0.807 0.005,0.126 0.009,0.253 0.012,0.378 0.005,0.277 0.005,0.554 0,0.829 -0.002,0.1 -0.001,0.2 -0.004,0.301 -0.011,0.378 -0.03,0.754 -0.059,1.125 0,0.006 -10e-4,0.012 -0.002,0.017 -0.029,0.364 -0.069,0.725 -0.115,1.084 -0.012,0.091 -0.026,0.183 -0.039,0.274 -0.04,0.279 -0.085,0.556 -0.133,0.83 -0.018,0.095 -0.035,0.191 -0.054,0.286 -0.057,0.297 -0.121,0.591 -0.191,0.882 -0.013,0.058 -0.026,0.116 -0.039,0.174 -0.103,0.412 -0.131,0.649 -0.231,0.98 -0.059,0.311 -0.164,0.508 -0.306,1.006 -0.727,1.989 -1.723,3.801 -2.949,5.362 -12.686,-5.568 -23.361,-15.734 -27.481,-27.124" /></g></g></g></g></g></g></g></g><g
           id="g664"><g
             id="g666" /><g
             mask="url(#mask696)"
             id="g732"><g
               id="g734" /><g
               id="g784"><g
                 id="g782"
                 clip-path="url(#clipPath738)"><g
                   id="g770"><g
                     id="g768"
                     clip-path="url(#clipPath742)"><g
                       id="g766"><g
                         id="g764"><path
                           id="path762"
                           style="fill:url(#radialGradient748);stroke:none"
                           d="m 218.876,376.266 c 5.173,2.329 10.912,3.626 16.953,3.626 0.805,0 1.601,-0.031 2.393,-0.077 1.695,-0.161 5.515,-0.262 9.496,-2.013 1.263,-0.555 2.278,-1.168 3.075,-1.746 0.79,-0.519 1.473,-1.139 2.032,-1.827 0.137,-0.169 0.264,-0.344 0.384,-0.52 0.024,0.059 0.053,0.113 0.074,0.172 0.849,2.321 0.243,4.866 -1.377,6.86 -0.578,0.711 -1.284,1.35 -2.098,1.885 -0.824,0.598 -1.871,1.23 -3.174,1.803 -4.109,1.808 -8.053,1.911 -9.8,2.078 -0.819,0.047 -1.642,0.079 -2.472,0.079 -6.235,0 -12.16,-1.338 -17.5,-3.743 -14.839,-6.681 -25.172,-21.598 -25.172,-38.929 0,-8.512 2.493,-16.44 6.786,-23.097 -2.556,5.373 -3.988,11.386 -3.988,17.733 0,16.791 10.01,31.243 24.388,37.716" /></g></g></g></g><g
                   id="g780"><g
                     id="g778"
                     clip-path="url(#clipPath752)"><g
                       id="g776"><g
                         id="g774"><path
                           id="path772"
                           style="fill:url(#radialGradient760);stroke:none"
                           d="m 218.876,376.266 c 5.173,2.329 10.912,3.626 16.953,3.626 0.805,0 1.601,-0.031 2.393,-0.077 1.695,-0.161 5.515,-0.262 9.496,-2.013 1.263,-0.555 2.278,-1.168 3.075,-1.746 0.79,-0.519 1.473,-1.139 2.032,-1.827 0.137,-0.169 0.264,-0.344 0.384,-0.52 0.024,0.059 0.053,0.113 0.074,0.172 0.849,2.321 0.243,4.866 -1.377,6.86 -0.578,0.711 -1.284,1.35 -2.098,1.885 -0.824,0.598 -1.871,1.23 -3.174,1.803 -4.109,1.808 -8.053,1.911 -9.8,2.078 -0.819,0.047 -1.642,0.079 -2.472,0.079 -6.235,0 -12.16,-1.338 -17.5,-3.743 -14.839,-6.681 -25.172,-21.598 -25.172,-38.929 0,-8.512 2.493,-16.44 6.786,-23.097 -2.556,5.373 -3.988,11.386 -3.988,17.733 0,16.791 10.01,31.243 24.388,37.716" /></g></g></g></g></g></g></g></g></g></g></g></svg>