<?xml version="1.0" encoding="UTF-8" standalone="no"?>
<svg
   xmlns:dc="http://purl.org/dc/elements/1.1/"
   xmlns:cc="http://creativecommons.org/ns#"
   xmlns:rdf="http://www.w3.org/1999/02/22-rdf-syntax-ns#"
   xmlns:svg="http://www.w3.org/2000/svg"
   xmlns="http://www.w3.org/2000/svg"
   viewBox="0 0 619.91333 250"
   height="250"
   width="619.91333"
   xml:space="preserve"
   id="svg2"
   version="1.1"><metadata
     id="metadata8"><rdf:RDF><cc:Work
         rdf:about=""><dc:format>image/svg+xml</dc:format><dc:type
           rdf:resource="http://purl.org/dc/dcmitype/StillImage" /><dc:title></dc:title></cc:Work></rdf:RDF></metadata><defs
     id="defs6"><clipPath
       id="clipPath18"
       clipPathUnits="userSpaceOnUse"><path
         id="path16"
         d="M 0,595.276 H 464.935 V 0 H 0 Z" /></clipPath><clipPath
       id="clipPath114"
       clipPathUnits="userSpaceOnUse"><path
         id="path112"
         d="m 119.386,316.792 c 0,-2.128 1.725,-3.852 3.852,-3.852 v 0 c 2.128,0 3.853,1.724 3.853,3.852 v 0 c 0,2.127 -1.725,3.853 -3.853,3.853 v 0 c -2.127,0 -3.852,-1.726 -3.852,-3.853" /></clipPath><radialGradient
       id="radialGradient128"
       spreadMethod="pad"
       gradientTransform="matrix(13.167572,0,0,-13.167572,119.21564,320.98294)"
       gradientUnits="userSpaceOnUse"
       r="1"
       cy="0"
       cx="0"
       fy="0"
       fx="0"><stop
         id="stop120"
         offset="0"
         style="stop-opacity:1;stop-color:#4dbf5e" /><stop
         id="stop122"
         offset="0.27392702"
         style="stop-opacity:1;stop-color:#4dbf5e" /><stop
         id="stop124"
         offset="0.730769"
         style="stop-opacity:1;stop-color:#59caf5" /><stop
         id="stop126"
         offset="1"
         style="stop-opacity:1;stop-color:#59caf5" /></radialGradient><clipPath
       id="clipPath138"
       clipPathUnits="userSpaceOnUse"><path
         id="path136"
         d="m 117.634,331.722 c -7.621,-3.431 -12.925,-11.09 -12.925,-19.987 v 0 c 0,-12.102 9.809,-21.91 21.909,-21.91 v 0 c 4.205,0 8.135,1.185 11.47,3.24 v 0 c 5.726,3.525 9.703,9.609 10.344,16.659 v 0 c 0.034,0.379 0.133,1.59 0.147,1.788 v 0 c 0.007,0.059 0.01,0.119 0.015,0.18 v 0 c 0.01,0.139 0.016,0.278 0.022,0.415 v 0 c 10e-4,0.064 0.003,0.128 0.005,0.194 v 0 c 0.002,0.141 0.002,0.283 0,0.425 v 0 c 0,0.051 0,0.102 -0.003,0.154 v 0 c -0.005,0.193 -0.014,0.387 -0.029,0.578 v 0 c 0,0.002 -0.002,0.006 -0.002,0.008 v 0 c -0.014,0.188 -0.035,0.372 -0.06,0.557 v 0 c -0.005,0.047 -0.012,0.094 -0.018,0.141 v 0 c -0.022,0.144 -0.043,0.285 -0.069,0.426 v 0 c -0.008,0.049 -0.018,0.099 -0.028,0.147 v 0 c -0.029,0.152 -0.061,0.303 -0.098,0.454 v 0 c -0.007,0.029 -0.013,0.059 -0.02,0.088 v 0 c -0.051,0.211 -0.066,0.333 -0.119,0.504 v 0 c -0.029,0.158 -0.084,0.26 -0.156,0.517 v 0 c -0.834,2.282 -2.357,4.115 -4.353,5.055 v 0 c -0.04,0.019 -0.081,0.038 -0.12,0.058 v 0 c -0.028,0.012 -0.054,0.022 -0.082,0.034 v 0 c -0.043,0.018 -0.087,0.038 -0.13,0.055 v 0 c -0.079,0.032 -0.159,0.064 -0.24,0.095 v 0 c -0.008,0.002 -0.015,0.005 -0.022,0.008 v 0 c -0.481,0.179 -0.984,0.307 -1.507,0.377 v 0 c -0.532,0.073 -1.059,0.079 -1.58,0.033 v 0 c 0.016,0.002 0.031,0.004 0.046,0.006 v 0 c -0.029,-0.004 -0.059,-0.008 -0.09,-0.009 v 0 c -0.043,-0.005 -0.086,-0.009 -0.129,-0.015 v 0 c -0.137,-0.015 -0.275,-0.036 -0.412,-0.057 v 0 c -1.269,-0.218 -2.474,-0.769 -3.537,-1.581 v 0 l 0.056,0.037 c 0,0 -0.968,-0.683 -2.051,-2.505 v 0 c -0.603,-1.016 -1.241,-2.385 -1.768,-4.184 v 0 c -0.038,-0.143 -0.078,-0.283 -0.119,-0.422 v 0 c 0,-0.002 -0.001,-0.003 -0.001,-0.003 v 0 c -0.341,-1.255 -0.811,-2.179 -1.262,-2.967 v 0 c -0.569,-0.995 -1.164,-1.754 -2.045,-2.48 v 0 c -1.759,-1.636 -3.963,-2.566 -6.268,-2.468 v 0 c -0.355,0.012 -0.713,0.044 -1.07,0.104 v 0 c -5.063,0.857 -8.336,6.476 -7.309,12.555 v 0 c 0.01,0.057 0.022,0.114 0.033,0.17 v 0 c 0.552,3.199 2.198,5.886 4.389,7.551 v 0 c 0.95,0.723 2.006,1.251 3.116,1.549 v 0 c 0.356,0.093 0.715,0.166 1.082,0.211 v 0 c 0.475,0.067 0.957,0.09 1.443,0.07 v 0 c 0.096,-0.006 0.195,-0.012 0.296,-0.022 v 0 c 0.584,-0.052 1.239,-0.173 1.956,-0.412 v 0 c 0.363,-0.12 0.74,-0.266 1.135,-0.45 v 0 c 1.547,-0.724 2.523,-1.251 3.446,-1.575 v 0 c 0.004,-0.003 0.006,-0.004 0.011,-0.005 v 0 c 0.002,-10e-4 0.005,-10e-4 0.009,-0.003 v 0 c 0.131,-0.049 0.262,-0.089 0.395,-0.124 v 0 c 0.013,-0.006 0.027,-0.009 0.041,-0.011 v 0 c 2.133,-0.571 4.292,0.332 4.954,2.145 v 0 c 0.435,1.192 0.124,2.5 -0.707,3.524 v 0 c -0.297,0.363 -0.659,0.692 -1.077,0.966 v 0 c -0.423,0.307 -0.961,0.631 -1.629,0.926 v 0 c -2.111,0.928 -4.134,0.981 -5.033,1.068 v 0 c -0.419,0.024 -0.843,0.039 -1.268,0.039 v 0 c -3.201,0 -6.243,-0.687 -8.984,-1.921 m 25.438,-10.117 c 0.004,-0.001 0.008,-0.003 0.012,-0.004 v 0 c -0.018,0.007 -0.036,0.015 -0.057,0.021 v 0 c 0.016,-0.005 0.03,-0.011 0.045,-0.017" /></clipPath><radialGradient
       id="radialGradient150"
       spreadMethod="pad"
       gradientTransform="matrix(18.70908,0,0,-18.70908,118.39414,307.34235)"
       gradientUnits="userSpaceOnUse"
       r="1"
       cy="0"
       cx="0"
       fy="0"
       fx="0"><stop
         id="stop144"
         offset="0"
         style="stop-opacity:1;stop-color:#b3e5e4" /><stop
         id="stop146"
         offset="0.96863558"
         style="stop-opacity:1;stop-color:#40c1f3" /><stop
         id="stop148"
         offset="1"
         style="stop-opacity:1;stop-color:#40c1f3" /></radialGradient><clipPath
       id="clipPath160"
       clipPathUnits="userSpaceOnUse"><path
         id="path158"
         d="m 109.652,325.595 c -3.09,-3.776 -4.943,-8.601 -4.943,-13.86 v 0 c 0,-0.909 0.055,-1.805 0.163,-2.682 v 0 c 0.153,1.398 0.6,2.893 1.308,4.422 v 0 c -0.011,2.274 0.386,4.696 1.243,7.108 v 0 c 0.89,2.506 2.174,4.711 3.694,6.507 v 0 c -0.504,-0.484 -0.993,-0.986 -1.465,-1.495" /></clipPath><radialGradient
       id="radialGradient172"
       spreadMethod="pad"
       gradientTransform="matrix(13.439894,9.4549351,6.9357085,-9.8575296,120.45368,321.86084)"
       gradientUnits="userSpaceOnUse"
       r="1"
       cy="0"
       cx="0"
       fy="0"
       fx="0"><stop
         id="stop166"
         offset="0"
         style="stop-opacity:1;stop-color:#4dbf5c" /><stop
         id="stop168"
         offset="0.37484762"
         style="stop-opacity:1;stop-color:#4dbf5c" /><stop
         id="stop170"
         offset="1"
         style="stop-opacity:1;stop-color:#5ac1ea" /></radialGradient><clipPath
       id="clipPath182"
       clipPathUnits="userSpaceOnUse"><path
         id="path180"
         d="M 0,595.276 H 464.935 V 0 H 0 Z" /></clipPath><clipPath
       id="clipPath190"
       clipPathUnits="userSpaceOnUse"><path
         id="path188"
         d="m 104.709,327.09 h 39.898 v -37.265 h -39.898 z" /></clipPath><clipPath
       id="clipPath194"
       clipPathUnits="userSpaceOnUse"><path
         id="path192"
         d="m 104.708,327.09 h 39.899 v -37.265 h -39.899 z" /></clipPath><clipPath
       id="clipPath198"
       clipPathUnits="userSpaceOnUse"><path
         id="path196"
         d="m 123.974,289.983 c -3.773,0.586 -7.418,2.072 -10.549,4.258 3.008,-2.271 6.619,-3.784 10.549,-4.258" /></clipPath><linearGradient
       id="linearGradient204"
       spreadMethod="pad"
       gradientTransform="matrix(-20.652348,0.8979107,0.8979107,20.652348,119.66162,292.07031)"
       gradientUnits="userSpaceOnUse"
       y2="0"
       x2="1"
       y1="0"
       x1="0"><stop
         id="stop200"
         offset="0"
         style="stop-opacity:1;stop-color:#ffffff" /><stop
         id="stop202"
         offset="1"
         style="stop-opacity:1;stop-color:#231f20" /></linearGradient><clipPath
       id="clipPath208"
       clipPathUnits="userSpaceOnUse"><path
         id="path206"
         d="m 110.429,303.024 c 0.574,-0.41 1.173,-0.721 1.788,-0.955 -1.995,0.902 -3.546,2.549 -4.577,4.665 0.328,-0.783 0.769,-1.512 1.352,-2.17 0.42,-0.572 0.9,-1.091 1.437,-1.54" /></clipPath><linearGradient
       id="linearGradient214"
       spreadMethod="pad"
       gradientTransform="matrix(-20.653181,0.8979468,0.8979468,20.653181,120.18018,303.95605)"
       gradientUnits="userSpaceOnUse"
       y2="0"
       x2="1"
       y1="0"
       x1="0"><stop
         id="stop210"
         offset="0"
         style="stop-opacity:1;stop-color:#ffffff" /><stop
         id="stop212"
         offset="1"
         style="stop-opacity:1;stop-color:#231f20" /></linearGradient><clipPath
       id="clipPath218"
       clipPathUnits="userSpaceOnUse"><path
         id="path216"
         d="m 110.429,303.024 c 0.574,-0.41 1.173,-0.721 1.788,-0.955 -1.995,0.902 -3.546,2.549 -4.577,4.665 0.328,-0.783 0.769,-1.512 1.352,-2.17 0.42,-0.572 0.9,-1.091 1.437,-1.54" /></clipPath><linearGradient
       id="linearGradient224"
       spreadMethod="pad"
       gradientTransform="matrix(-20.653181,0.8979468,0.8979468,20.653181,120.18018,303.95605)"
       gradientUnits="userSpaceOnUse"
       y2="0"
       x2="1"
       y1="0"
       x1="0"><stop
         id="stop220"
         offset="0"
         style="stop-opacity:1;stop-color:#ffffff" /><stop
         id="stop222"
         offset="1"
         style="stop-opacity:1;stop-color:#231f20" /></linearGradient><clipPath
       id="clipPath228"
       clipPathUnits="userSpaceOnUse"><path
         id="path226"
         d="m 112.217,302.069 c 0.206,-0.093 0.415,-0.195 0.637,-0.258 -0.218,0.077 -0.431,0.165 -0.637,0.258" /></clipPath><linearGradient
       id="linearGradient234"
       spreadMethod="pad"
       gradientTransform="matrix(-20.621916,0.8965876,0.8965876,20.621916,120.06641,301.6123)"
       gradientUnits="userSpaceOnUse"
       y2="0"
       x2="1"
       y1="0"
       x1="0"><stop
         id="stop230"
         offset="0"
         style="stop-opacity:1;stop-color:#ffffff" /><stop
         id="stop232"
         offset="1"
         style="stop-opacity:1;stop-color:#231f20" /></linearGradient><clipPath
       id="clipPath238"
       clipPathUnits="userSpaceOnUse"><path
         id="path236"
         d="m 123.331,303.765 c 6.292,2.948 15.893,1.068 21.276,-4.531 -5.383,5.599 -15.093,7.701 -21.276,4.531" /></clipPath><linearGradient
       id="linearGradient244"
       spreadMethod="pad"
       gradientTransform="matrix(-20.652321,0.8979095,0.8979095,20.652321,120.13672,302.99609)"
       gradientUnits="userSpaceOnUse"
       y2="0"
       x2="1"
       y1="0"
       x1="0"><stop
         id="stop240"
         offset="0"
         style="stop-opacity:1;stop-color:#ffffff" /><stop
         id="stop242"
         offset="1"
         style="stop-opacity:1;stop-color:#231f20" /></linearGradient><clipPath
       id="clipPath248"
       clipPathUnits="userSpaceOnUse"><path
         id="path246"
         d="m 123.331,303.765 c -5.348,-2.506 -7.818,-2.731 -10.477,-1.954 2.192,-0.78 4.186,-1.27 10.477,1.954" /></clipPath><linearGradient
       id="linearGradient254"
       spreadMethod="pad"
       gradientTransform="matrix(-20.651491,0.8978733,0.8978733,20.651491,120.11377,302.46875)"
       gradientUnits="userSpaceOnUse"
       y2="0"
       x2="1"
       y1="0"
       x1="0"><stop
         id="stop250"
         offset="0"
         style="stop-opacity:1;stop-color:#ffffff" /><stop
         id="stop252"
         offset="1"
         style="stop-opacity:1;stop-color:#231f20" /></linearGradient><clipPath
       id="clipPath258"
       clipPathUnits="userSpaceOnUse"><path
         id="path256"
         d="m 123.331,303.765 c -5.348,-2.506 -7.818,-2.731 -10.477,-1.954 2.192,-0.78 4.186,-1.27 10.477,1.954" /></clipPath><linearGradient
       id="linearGradient264"
       spreadMethod="pad"
       gradientTransform="matrix(-20.651491,0.8978733,0.8978733,20.651491,120.11377,302.46875)"
       gradientUnits="userSpaceOnUse"
       y2="0"
       x2="1"
       y1="0"
       x1="0"><stop
         id="stop260"
         offset="0"
         style="stop-opacity:1;stop-color:#ffffff" /><stop
         id="stop262"
         offset="1"
         style="stop-opacity:1;stop-color:#231f20" /></linearGradient><clipPath
       id="clipPath268"
       clipPathUnits="userSpaceOnUse"><path
         id="path266"
         d="m 123.331,303.765 c -6.291,-3.224 -8.285,-2.734 -10.477,-1.954 -0.222,0.063 -0.431,0.165 -0.637,0.258 -0.615,0.234 -1.214,0.545 -1.788,0.955 -0.537,0.449 -1.017,0.968 -1.437,1.54 -0.583,0.658 -1.024,1.387 -1.352,2.17 -0.94,1.928 -1.447,4.246 -1.46,6.742 -0.708,-1.53 -1.155,-3.025 -1.308,-4.423 0.737,-6.04 3.932,-11.32 8.553,-14.812 3.131,-2.186 6.776,-3.672 10.549,-4.258 0.867,-0.102 1.75,-0.158 2.644,-0.158 4.205,0 8.134,1.185 11.47,3.24 2.575,1.586 4.795,3.692 6.519,6.169 -5.383,5.599 -14.984,7.479 -21.276,4.531" /></clipPath><linearGradient
       id="linearGradient274"
       spreadMethod="pad"
       gradientTransform="matrix(-20.651882,0.8978903,0.8978903,20.651882,120.07129,301.48047)"
       gradientUnits="userSpaceOnUse"
       y2="0"
       x2="1"
       y1="0"
       x1="0"><stop
         id="stop270"
         offset="0"
         style="stop-opacity:1;stop-color:#ffffff" /><stop
         id="stop272"
         offset="1"
         style="stop-opacity:1;stop-color:#231f20" /></linearGradient><clipPath
       id="clipPath278"
       clipPathUnits="userSpaceOnUse"><path
         id="path276"
         d="m 107.423,320.583 c 0.89,2.506 2.173,4.711 3.694,6.507 -0.504,-0.484 -0.993,-0.986 -1.465,-1.495 -3.09,-3.776 -4.944,-8.601 -4.944,-13.861 0,-0.908 0.056,-1.803 0.164,-2.681 0.153,1.398 0.6,2.893 1.308,4.423 -0.012,2.273 0.386,4.695 1.243,7.107" /></clipPath><linearGradient
       id="linearGradient284"
       spreadMethod="pad"
       gradientTransform="matrix(-20.652664,0.8979244,0.8979244,20.652664,120.76904,317.5166)"
       gradientUnits="userSpaceOnUse"
       y2="0"
       x2="1"
       y1="0"
       x1="0"><stop
         id="stop280"
         offset="0"
         style="stop-opacity:1;stop-color:#ffffff" /><stop
         id="stop282"
         offset="1"
         style="stop-opacity:1;stop-color:#231f20" /></linearGradient><clipPath
       id="clipPath288"
       clipPathUnits="userSpaceOnUse"><path
         id="path286"
         d="m 123.331,303.765 c -6.291,-3.224 -8.285,-2.734 -10.477,-1.954 -0.222,0.063 -0.431,0.165 -0.637,0.258 -0.615,0.234 -1.214,0.545 -1.788,0.955 -0.537,0.449 -1.017,0.968 -1.437,1.54 -0.583,0.658 -1.024,1.387 -1.352,2.17 -0.94,1.928 -1.447,4.246 -1.46,6.742 -0.012,2.273 0.386,4.695 1.243,7.107 0.89,2.506 2.173,4.711 3.694,6.507 -0.504,-0.484 -0.993,-0.986 -1.465,-1.495 -3.09,-3.776 -4.944,-8.601 -4.944,-13.861 0,-0.908 0.056,-1.803 0.164,-2.681 0.737,-6.04 3.932,-11.32 8.553,-14.812 3.131,-2.186 6.776,-3.672 10.549,-4.258 0.867,-0.102 1.75,-0.158 2.644,-0.158 4.205,0 8.134,1.185 11.47,3.24 2.575,1.586 4.795,3.692 6.519,6.169 -5.383,5.599 -14.984,7.479 -21.276,4.531" /></clipPath><linearGradient
       id="linearGradient294"
       spreadMethod="pad"
       gradientTransform="matrix(-20.651913,0.8978916,0.8978916,20.651913,120.37109,308.38184)"
       gradientUnits="userSpaceOnUse"
       y2="0"
       x2="1"
       y1="0"
       x1="0"><stop
         id="stop290"
         offset="0"
         style="stop-opacity:1;stop-color:#ffffff" /><stop
         id="stop292"
         offset="1"
         style="stop-opacity:1;stop-color:#231f20" /></linearGradient><mask
       id="mask296"
       height="1"
       width="1"
       y="0"
       x="0"
       maskUnits="userSpaceOnUse"><g
         id="g410"><g
           style="opacity:0.69999701"
           id="g408"
           clip-path="url(#clipPath190)"><path
             id="path298"
             style="fill:#000000;fill-opacity:1;fill-rule:nonzero;stroke:none"
             d="m 104.708,327.09 h 39.898 v -37.265 h -39.898 z" /><g
             id="g406"><g
               id="g300" /><g
               id="g404"><g
                 id="g402"
                 clip-path="url(#clipPath194)"><g
                   id="g310"><g
                     id="g308"
                     clip-path="url(#clipPath198)"><g
                       id="g306"><g
                         id="g304"><path
                           id="path302"
                           style="fill:url(#linearGradient204);stroke:none"
                           d="m 123.974,289.983 c -3.773,0.586 -7.418,2.072 -10.549,4.258 3.008,-2.271 6.619,-3.784 10.549,-4.258" /></g></g></g></g><g
                   id="g320"><g
                     id="g318"
                     clip-path="url(#clipPath208)"><g
                       id="g316"><g
                         id="g314"><path
                           id="path312"
                           style="fill:url(#linearGradient214);stroke:none"
                           d="m 110.429,303.024 c 0.574,-0.41 1.173,-0.721 1.788,-0.955 -1.995,0.902 -3.546,2.549 -4.577,4.665 0.328,-0.783 0.769,-1.512 1.352,-2.17 0.42,-0.572 0.9,-1.091 1.437,-1.54" /></g></g></g></g><g
                   id="g330"><g
                     id="g328"
                     clip-path="url(#clipPath218)"><g
                       id="g326"><g
                         id="g324"><path
                           id="path322"
                           style="fill:url(#linearGradient224);stroke:none"
                           d="m 110.429,303.024 c 0.574,-0.41 1.173,-0.721 1.788,-0.955 -1.995,0.902 -3.546,2.549 -4.577,4.665 0.328,-0.783 0.769,-1.512 1.352,-2.17 0.42,-0.572 0.9,-1.091 1.437,-1.54" /></g></g></g></g><g
                   id="g340"><g
                     id="g338"
                     clip-path="url(#clipPath228)"><g
                       id="g336"><g
                         id="g334"><path
                           id="path332"
                           style="fill:url(#linearGradient234);stroke:none"
                           d="m 112.217,302.069 c 0.206,-0.093 0.415,-0.195 0.637,-0.258 -0.218,0.077 -0.431,0.165 -0.637,0.258" /></g></g></g></g><g
                   id="g350"><g
                     id="g348"
                     clip-path="url(#clipPath238)"><g
                       id="g346"><g
                         id="g344"><path
                           id="path342"
                           style="fill:url(#linearGradient244);stroke:none"
                           d="m 123.331,303.765 c 6.292,2.948 15.893,1.068 21.276,-4.531 -5.383,5.599 -15.093,7.701 -21.276,4.531" /></g></g></g></g><g
                   id="g360"><g
                     id="g358"
                     clip-path="url(#clipPath248)"><g
                       id="g356"><g
                         id="g354"><path
                           id="path352"
                           style="fill:url(#linearGradient254);stroke:none"
                           d="m 123.331,303.765 c -5.348,-2.506 -7.818,-2.731 -10.477,-1.954 2.192,-0.78 4.186,-1.27 10.477,1.954" /></g></g></g></g><g
                   id="g370"><g
                     id="g368"
                     clip-path="url(#clipPath258)"><g
                       id="g366"><g
                         id="g364"><path
                           id="path362"
                           style="fill:url(#linearGradient264);stroke:none"
                           d="m 123.331,303.765 c -5.348,-2.506 -7.818,-2.731 -10.477,-1.954 2.192,-0.78 4.186,-1.27 10.477,1.954" /></g></g></g></g><g
                   id="g380"><g
                     id="g378"
                     clip-path="url(#clipPath268)"><g
                       id="g376"><g
                         id="g374"><path
                           id="path372"
                           style="fill:url(#linearGradient274);stroke:none"
                           d="m 123.331,303.765 c -6.291,-3.224 -8.285,-2.734 -10.477,-1.954 -0.222,0.063 -0.431,0.165 -0.637,0.258 -0.615,0.234 -1.214,0.545 -1.788,0.955 -0.537,0.449 -1.017,0.968 -1.437,1.54 -0.583,0.658 -1.024,1.387 -1.352,2.17 -0.94,1.928 -1.447,4.246 -1.46,6.742 -0.708,-1.53 -1.155,-3.025 -1.308,-4.423 0.737,-6.04 3.932,-11.32 8.553,-14.812 3.131,-2.186 6.776,-3.672 10.549,-4.258 0.867,-0.102 1.75,-0.158 2.644,-0.158 4.205,0 8.134,1.185 11.47,3.24 2.575,1.586 4.795,3.692 6.519,6.169 -5.383,5.599 -14.984,7.479 -21.276,4.531" /></g></g></g></g><g
                   id="g390"><g
                     id="g388"
                     clip-path="url(#clipPath278)"><g
                       id="g386"><g
                         id="g384"><path
                           id="path382"
                           style="fill:url(#linearGradient284);stroke:none"
                           d="m 107.423,320.583 c 0.89,2.506 2.173,4.711 3.694,6.507 -0.504,-0.484 -0.993,-0.986 -1.465,-1.495 -3.09,-3.776 -4.944,-8.601 -4.944,-13.861 0,-0.908 0.056,-1.803 0.164,-2.681 0.153,1.398 0.6,2.893 1.308,4.423 -0.012,2.273 0.386,4.695 1.243,7.107" /></g></g></g></g><g
                   id="g400"><g
                     id="g398"
                     clip-path="url(#clipPath288)"><g
                       id="g396"><g
                         id="g394"><path
                           id="path392"
                           style="fill:url(#linearGradient294);stroke:none"
                           d="m 123.331,303.765 c -6.291,-3.224 -8.285,-2.734 -10.477,-1.954 -0.222,0.063 -0.431,0.165 -0.637,0.258 -0.615,0.234 -1.214,0.545 -1.788,0.955 -0.537,0.449 -1.017,0.968 -1.437,1.54 -0.583,0.658 -1.024,1.387 -1.352,2.17 -0.94,1.928 -1.447,4.246 -1.46,6.742 -0.012,2.273 0.386,4.695 1.243,7.107 0.89,2.506 2.173,4.711 3.694,6.507 -0.504,-0.484 -0.993,-0.986 -1.465,-1.495 -3.09,-3.776 -4.944,-8.601 -4.944,-13.861 0,-0.908 0.056,-1.803 0.164,-2.681 0.737,-6.04 3.932,-11.32 8.553,-14.812 3.131,-2.186 6.776,-3.672 10.549,-4.258 0.867,-0.102 1.75,-0.158 2.644,-0.158 4.205,0 8.134,1.185 11.47,3.24 2.575,1.586 4.795,3.692 6.519,6.169 -5.383,5.599 -14.984,7.479 -21.276,4.531" /></g></g></g></g></g></g></g></g></g></mask><clipPath
       id="clipPath418"
       clipPathUnits="userSpaceOnUse"><path
         id="path416"
         d="m 104.709,327.09 h 39.898 v -37.265 h -39.898 z" /></clipPath><clipPath
       id="clipPath422"
       clipPathUnits="userSpaceOnUse"><path
         id="path420"
         d="m 123.974,289.983 c -3.773,0.586 -7.418,2.072 -10.549,4.258 3.008,-2.271 6.619,-3.784 10.549,-4.258" /></clipPath><radialGradient
       id="radialGradient428"
       spreadMethod="pad"
       gradientTransform="matrix(34.288807,0,0,-34.288807,112.90887,304.31277)"
       gradientUnits="userSpaceOnUse"
       r="1"
       cy="0"
       cx="0"
       fy="0"
       fx="0"><stop
         id="stop424"
         offset="0"
         style="stop-opacity:1;stop-color:#59caf5" /><stop
         id="stop426"
         offset="1"
         style="stop-opacity:1;stop-color:#269bd4" /></radialGradient><clipPath
       id="clipPath432"
       clipPathUnits="userSpaceOnUse"><path
         id="path430"
         d="m 110.429,303.024 c 0.574,-0.41 1.173,-0.721 1.788,-0.955 -1.995,0.902 -3.546,2.549 -4.577,4.665 0.328,-0.783 0.769,-1.512 1.352,-2.17 0.42,-0.572 0.9,-1.091 1.437,-1.54" /></clipPath><radialGradient
       id="radialGradient438"
       spreadMethod="pad"
       gradientTransform="matrix(34.2897,0,0,-34.2897,112.91029,304.31088)"
       gradientUnits="userSpaceOnUse"
       r="1"
       cy="0"
       cx="0"
       fy="0"
       fx="0"><stop
         id="stop434"
         offset="0"
         style="stop-opacity:1;stop-color:#59caf5" /><stop
         id="stop436"
         offset="1"
         style="stop-opacity:1;stop-color:#269bd4" /></radialGradient><clipPath
       id="clipPath442"
       clipPathUnits="userSpaceOnUse"><path
         id="path440"
         d="m 110.429,303.024 c 0.574,-0.41 1.173,-0.721 1.788,-0.955 -1.995,0.902 -3.546,2.549 -4.577,4.665 0.328,-0.783 0.769,-1.512 1.352,-2.17 0.42,-0.572 0.9,-1.091 1.437,-1.54" /></clipPath><radialGradient
       id="radialGradient448"
       spreadMethod="pad"
       gradientTransform="matrix(34.2897,0,0,-34.2897,112.91029,304.31088)"
       gradientUnits="userSpaceOnUse"
       r="1"
       cy="0"
       cx="0"
       fy="0"
       fx="0"><stop
         id="stop444"
         offset="0"
         style="stop-opacity:1;stop-color:#59caf5" /><stop
         id="stop446"
         offset="1"
         style="stop-opacity:1;stop-color:#269bd4" /></radialGradient><clipPath
       id="clipPath452"
       clipPathUnits="userSpaceOnUse"><path
         id="path450"
         d="m 112.217,302.069 c 0.206,-0.093 0.415,-0.195 0.637,-0.258 -0.218,0.077 -0.431,0.165 -0.637,0.258" /></clipPath><radialGradient
       id="radialGradient458"
       spreadMethod="pad"
       gradientTransform="matrix(34.126888,0,0,-34.126888,112.90918,304.30023)"
       gradientUnits="userSpaceOnUse"
       r="1"
       cy="0"
       cx="0"
       fy="0"
       fx="0"><stop
         id="stop454"
         offset="0"
         style="stop-opacity:1;stop-color:#59caf5" /><stop
         id="stop456"
         offset="1"
         style="stop-opacity:1;stop-color:#269bd4" /></radialGradient><clipPath
       id="clipPath462"
       clipPathUnits="userSpaceOnUse"><path
         id="path460"
         d="m 123.331,303.765 c 6.292,2.948 15.893,1.068 21.276,-4.531 -5.383,5.599 -15.093,7.701 -21.276,4.531" /></clipPath><radialGradient
       id="radialGradient468"
       spreadMethod="pad"
       gradientTransform="matrix(34.286224,0,0,-34.286224,112.90885,304.31128)"
       gradientUnits="userSpaceOnUse"
       r="1"
       cy="0"
       cx="0"
       fy="0"
       fx="0"><stop
         id="stop464"
         offset="0"
         style="stop-opacity:1;stop-color:#59caf5" /><stop
         id="stop466"
         offset="1"
         style="stop-opacity:1;stop-color:#269bd4" /></radialGradient><clipPath
       id="clipPath472"
       clipPathUnits="userSpaceOnUse"><path
         id="path470"
         d="m 123.331,303.765 c -5.348,-2.506 -7.818,-2.731 -10.477,-1.954 2.192,-0.78 4.186,-1.27 10.477,1.954" /></clipPath><radialGradient
       id="radialGradient478"
       spreadMethod="pad"
       gradientTransform="matrix(34.283417,0,0,-34.283417,112.90931,304.31033)"
       gradientUnits="userSpaceOnUse"
       r="1"
       cy="0"
       cx="0"
       fy="0"
       fx="0"><stop
         id="stop474"
         offset="0"
         style="stop-opacity:1;stop-color:#59caf5" /><stop
         id="stop476"
         offset="1"
         style="stop-opacity:1;stop-color:#269bd4" /></radialGradient><clipPath
       id="clipPath482"
       clipPathUnits="userSpaceOnUse"><path
         id="path480"
         d="m 123.331,303.765 c -5.348,-2.506 -7.818,-2.731 -10.477,-1.954 2.192,-0.78 4.186,-1.27 10.477,1.954" /></clipPath><radialGradient
       id="radialGradient488"
       spreadMethod="pad"
       gradientTransform="matrix(34.283417,0,0,-34.283417,112.90931,304.31033)"
       gradientUnits="userSpaceOnUse"
       r="1"
       cy="0"
       cx="0"
       fy="0"
       fx="0"><stop
         id="stop484"
         offset="0"
         style="stop-opacity:1;stop-color:#59caf5" /><stop
         id="stop486"
         offset="1"
         style="stop-opacity:1;stop-color:#269bd4" /></radialGradient><clipPath
       id="clipPath492"
       clipPathUnits="userSpaceOnUse"><path
         id="path490"
         d="m 123.331,303.765 c -6.291,-3.224 -8.285,-2.734 -10.477,-1.954 -0.222,0.063 -0.431,0.165 -0.637,0.258 -0.615,0.234 -1.214,0.545 -1.788,0.955 -0.537,0.449 -1.017,0.968 -1.437,1.54 -0.583,0.658 -1.024,1.387 -1.352,2.17 -0.94,1.928 -1.447,4.246 -1.46,6.742 -0.708,-1.53 -1.155,-3.025 -1.308,-4.423 0.737,-6.04 3.932,-11.32 8.553,-14.812 3.131,-2.186 6.776,-3.672 10.549,-4.258 0.867,-0.102 1.75,-0.158 2.644,-0.158 4.205,0 8.134,1.185 11.47,3.24 2.575,1.586 4.795,3.692 6.519,6.169 -5.383,5.599 -14.984,7.479 -21.276,4.531" /></clipPath><radialGradient
       id="radialGradient498"
       spreadMethod="pad"
       gradientTransform="matrix(34.285523,0,0,-34.285523,112.90963,304.31165)"
       gradientUnits="userSpaceOnUse"
       r="1"
       cy="0"
       cx="0"
       fy="0"
       fx="0"><stop
         id="stop494"
         offset="0"
         style="stop-opacity:1;stop-color:#59caf5" /><stop
         id="stop496"
         offset="1"
         style="stop-opacity:1;stop-color:#269bd4" /></radialGradient><clipPath
       id="clipPath502"
       clipPathUnits="userSpaceOnUse"><path
         id="path500"
         d="m 107.423,320.583 c 0.89,2.506 2.173,4.711 3.694,6.507 -0.504,-0.484 -0.993,-0.985 -1.465,-1.495 -3.09,-3.776 -4.943,-8.601 -4.943,-13.861 0,-0.908 0.055,-1.803 0.163,-2.681 0.153,1.398 0.6,2.893 1.308,4.423 -0.012,2.273 0.386,4.695 1.243,7.107" /></clipPath><radialGradient
       id="radialGradient508"
       spreadMethod="pad"
       gradientTransform="matrix(34.284374,0,0,-34.284374,112.90985,304.31299)"
       gradientUnits="userSpaceOnUse"
       r="1"
       cy="0"
       cx="0"
       fy="0"
       fx="0"><stop
         id="stop504"
         offset="0"
         style="stop-opacity:1;stop-color:#59caf5" /><stop
         id="stop506"
         offset="1"
         style="stop-opacity:1;stop-color:#269bd4" /></radialGradient><clipPath
       id="clipPath512"
       clipPathUnits="userSpaceOnUse"><path
         id="path510"
         d="m 123.331,303.765 c -6.291,-3.224 -8.285,-2.734 -10.477,-1.954 -0.222,0.063 -0.431,0.165 -0.637,0.258 -0.615,0.234 -1.214,0.545 -1.788,0.955 -0.537,0.449 -1.017,0.968 -1.437,1.54 -0.583,0.658 -1.024,1.387 -1.352,2.17 -0.94,1.928 -1.447,4.246 -1.46,6.742 -0.012,2.273 0.386,4.695 1.243,7.107 0.89,2.506 2.173,4.711 3.694,6.507 -0.504,-0.484 -0.993,-0.985 -1.465,-1.495 -3.09,-3.776 -4.943,-8.601 -4.943,-13.861 0,-0.908 0.055,-1.803 0.163,-2.681 0.737,-6.04 3.932,-11.32 8.553,-14.812 3.131,-2.186 6.776,-3.672 10.549,-4.258 0.867,-0.102 1.75,-0.158 2.644,-0.158 4.205,0 8.134,1.185 11.47,3.24 2.575,1.586 4.795,3.692 6.519,6.169 -5.383,5.599 -14.984,7.479 -21.276,4.531" /></clipPath><radialGradient
       id="radialGradient518"
       spreadMethod="pad"
       gradientTransform="matrix(34.285686,0,0,-34.285686,112.90947,304.31168)"
       gradientUnits="userSpaceOnUse"
       r="1"
       cy="0"
       cx="0"
       fy="0"
       fx="0"><stop
         id="stop514"
         offset="0"
         style="stop-opacity:1;stop-color:#59caf5" /><stop
         id="stop516"
         offset="1"
         style="stop-opacity:1;stop-color:#2aabe8" /></radialGradient><clipPath
       id="clipPath630"
       clipPathUnits="userSpaceOnUse"><path
         id="path628"
         d="m 116.913,319.052 h 31.71 v -29.227 h -31.71 z" /></clipPath><clipPath
       id="clipPath634"
       clipPathUnits="userSpaceOnUse"><path
         id="path632"
         d="m 116.913,319.052 h 31.711 v -29.227 h -31.711 z" /></clipPath><clipPath
       id="clipPath638"
       clipPathUnits="userSpaceOnUse"><path
         id="path636"
         d="m 116.913,319.052 h 31.71 v -29.227 h -31.71 z" /></clipPath><clipPath
       id="clipPath642"
       clipPathUnits="userSpaceOnUse"><path
         id="path640"
         d="m 132.396,305.125 c -2.973,-9.221 -5.379,-10.677 -8.259,-12.046 -0.278,-0.154 -0.576,-0.256 -0.87,-0.366 -0.821,-0.371 -1.703,-0.647 -2.655,-0.807 -0.956,-0.087 -1.924,-0.048 -2.887,0.1 -0.274,0.015 -0.544,0.045 -0.812,0.082 2.926,-1.448 6.221,-2.263 9.705,-2.263 4.205,0 8.134,1.185 11.47,3.24 5.725,3.525 9.703,9.609 10.344,16.66 0.034,0.379 0.132,1.589 0.148,1.787 0.006,0.059 0.009,0.119 0.013,0.179 0.01,0.14 0.016,0.279 0.023,0.415 10e-4,0.065 0.003,0.129 0.005,0.195 0.003,0.141 0.003,0.283 0,0.425 0,0.051 0,0.102 -0.003,0.155 -0.005,0.192 -0.014,0.386 -0.029,0.577 0,0.002 -0.002,0.006 -0.002,0.009 -0.014,0.187 -0.035,0.371 -0.06,0.556 -0.005,0.047 -0.011,0.094 -0.018,0.141 -0.022,0.144 -0.043,0.285 -0.07,0.427 -0.007,0.048 -0.017,0.097 -0.027,0.146 -0.029,0.153 -0.061,0.303 -0.098,0.453 -0.006,0.03 -0.013,0.06 -0.02,0.089 -0.052,0.211 -0.066,0.333 -0.119,0.504 -0.029,0.158 -0.084,0.26 -0.156,0.517 -0.374,1.02 -0.885,1.95 -1.514,2.752 -6.514,-2.859 -11.993,-8.079 -14.109,-13.927" /></clipPath><linearGradient
       id="linearGradient648"
       spreadMethod="pad"
       gradientTransform="matrix(50.374237,16.104761,16.104761,-50.374237,136.12842,303.75098)"
       gradientUnits="userSpaceOnUse"
       y2="0"
       x2="1"
       y1="0"
       x1="0"><stop
         id="stop644"
         offset="0"
         style="stop-opacity:1;stop-color:#ffffff" /><stop
         id="stop646"
         offset="1"
         style="stop-opacity:1;stop-color:#231f20" /></linearGradient><mask
       id="mask650"
       height="1"
       width="1"
       y="0"
       x="0"
       maskUnits="userSpaceOnUse"><g
         id="g682"><g
           style="opacity:0.94999701"
           id="g680"
           clip-path="url(#clipPath630)"><path
             id="path652"
             style="fill:#000000;fill-opacity:1;fill-rule:nonzero;stroke:none"
             d="m 116.913,319.052 h 31.71 v -29.227 h -31.71 z" /><g
             id="g678"><g
               id="g654" /><g
               id="g676"><g
                 id="g674"
                 clip-path="url(#clipPath634)"><g
                   id="g672"><g
                     id="g656" /><g
                     id="g670"><g
                       style="opacity:0.85000598"
                       id="g668"
                       clip-path="url(#clipPath638)"><g
                         id="g666"><g
                           id="g664"
                           clip-path="url(#clipPath642)"><g
                             id="g662"><g
                               id="g660"><path
                                 id="path658"
                                 style="fill:url(#linearGradient648);stroke:none"
                                 d="m 132.396,305.125 c -2.973,-9.221 -5.379,-10.677 -8.259,-12.046 -0.278,-0.154 -0.576,-0.256 -0.87,-0.366 -0.821,-0.371 -1.703,-0.647 -2.655,-0.807 -0.956,-0.087 -1.924,-0.048 -2.887,0.1 -0.274,0.015 -0.544,0.045 -0.812,0.082 2.926,-1.448 6.221,-2.263 9.705,-2.263 4.205,0 8.134,1.185 11.47,3.24 5.725,3.525 9.703,9.609 10.344,16.66 0.034,0.379 0.132,1.589 0.148,1.787 0.006,0.059 0.009,0.119 0.013,0.179 0.01,0.14 0.016,0.279 0.023,0.415 10e-4,0.065 0.003,0.129 0.005,0.195 0.003,0.141 0.003,0.283 0,0.425 0,0.051 0,0.102 -0.003,0.155 -0.005,0.192 -0.014,0.386 -0.029,0.577 0,0.002 -0.002,0.006 -0.002,0.009 -0.014,0.187 -0.035,0.371 -0.06,0.556 -0.005,0.047 -0.011,0.094 -0.018,0.141 -0.022,0.144 -0.043,0.285 -0.07,0.427 -0.007,0.048 -0.017,0.097 -0.027,0.146 -0.029,0.153 -0.061,0.303 -0.098,0.453 -0.006,0.03 -0.013,0.06 -0.02,0.089 -0.052,0.211 -0.066,0.333 -0.119,0.504 -0.029,0.158 -0.084,0.26 -0.156,0.517 -0.374,1.02 -0.885,1.95 -1.514,2.752 -6.514,-2.859 -11.993,-8.079 -14.109,-13.927" /></g></g></g></g></g></g></g></g></g></g></g></g></mask><clipPath
       id="clipPath690"
       clipPathUnits="userSpaceOnUse"><path
         id="path688"
         d="m 116.913,319.052 h 31.71 v -29.227 h -31.71 z" /></clipPath><clipPath
       id="clipPath694"
       clipPathUnits="userSpaceOnUse"><path
         id="path692"
         d="m 132.396,305.125 c -2.973,-9.221 -5.379,-10.677 -8.259,-12.046 -0.278,-0.154 -0.576,-0.256 -0.87,-0.366 -0.821,-0.371 -1.703,-0.647 -2.655,-0.807 -0.956,-0.087 -1.924,-0.048 -2.887,0.1 -0.274,0.016 -0.544,0.045 -0.812,0.082 2.926,-1.448 6.221,-2.263 9.705,-2.263 4.205,0 8.134,1.185 11.47,3.24 5.726,3.525 9.703,9.609 10.344,16.66 0.034,0.379 0.132,1.589 0.148,1.787 0.006,0.059 0.009,0.119 0.013,0.179 0.01,0.14 0.016,0.279 0.023,0.415 10e-4,0.065 0.003,0.129 0.005,0.195 0.003,0.141 0.003,0.283 0,0.425 0,0.051 0,0.102 -0.003,0.155 -0.005,0.192 -0.014,0.386 -0.029,0.577 0,0.002 -0.002,0.006 -0.002,0.009 -0.014,0.187 -0.035,0.371 -0.06,0.556 -0.005,0.047 -0.011,0.094 -0.018,0.141 -0.022,0.144 -0.043,0.285 -0.07,0.427 -0.007,0.048 -0.017,0.098 -0.027,0.146 -0.029,0.153 -0.061,0.303 -0.098,0.453 -0.006,0.03 -0.013,0.06 -0.02,0.089 -0.052,0.211 -0.066,0.333 -0.119,0.504 -0.029,0.158 -0.084,0.26 -0.156,0.517 -0.374,1.02 -0.885,1.95 -1.514,2.752 -6.514,-2.859 -11.993,-8.079 -14.109,-13.927" /></clipPath><radialGradient
       id="radialGradient700"
       spreadMethod="pad"
       gradientTransform="matrix(19.354286,19.354286,19.354286,-19.354286,132.12503,307.44348)"
       gradientUnits="userSpaceOnUse"
       r="1"
       cy="0"
       cx="0"
       fy="0"
       fx="0"><stop
         id="stop696"
         offset="0"
         style="stop-opacity:1;stop-color:#bfdf14" /><stop
         id="stop698"
         offset="1"
         style="stop-opacity:1;stop-color:#33b652" /></radialGradient><clipPath
       id="clipPath722"
       clipPathUnits="userSpaceOnUse"><path
         id="path720"
         d="m 104.709,333.643 h 31.82 v -33.767 h -31.82 z" /></clipPath><clipPath
       id="clipPath726"
       clipPathUnits="userSpaceOnUse"><path
         id="path724"
         d="m 104.708,333.644 h 32.059 v -33.768 h -32.059 z" /></clipPath><clipPath
       id="clipPath730"
       clipPathUnits="userSpaceOnUse"><path
         id="path728"
         d="m 118.667,328.345 c 2.656,1.196 5.603,1.862 8.704,1.862 0.414,0 0.822,-0.017 1.228,-0.04 0.87,-0.083 2.83,-0.136 4.875,-1.033 0.649,-0.285 1.17,-0.6 1.58,-0.897 0.405,-0.267 0.756,-0.585 1.044,-0.937 0.069,-0.088 0.133,-0.177 0.197,-0.269 0.01,0.031 0.027,0.059 0.037,0.089 0.435,1.192 0.124,2.499 -0.707,3.524 -0.296,0.364 -0.659,0.692 -1.077,0.966 -0.423,0.307 -0.961,0.631 -1.629,0.926 -2.111,0.928 -4.134,0.982 -5.033,1.068 -0.419,0.024 -0.843,0.04 -1.268,0.04 -3.201,0 -6.243,-0.688 -8.985,-1.922 -7.619,-3.431 -12.925,-11.09 -12.925,-19.988 0,-4.37 1.28,-8.44 3.485,-11.858 -1.311,2.759 -2.047,5.846 -2.047,9.104 0,8.622 5.138,16.041 12.521,19.365" /></clipPath><linearGradient
       id="linearGradient736"
       spreadMethod="pad"
       gradientTransform="matrix(31.819864,0,0,-31.819864,104.7085,316.75977)"
       gradientUnits="userSpaceOnUse"
       y2="0"
       x2="1"
       y1="0"
       x1="0"><stop
         id="stop732"
         offset="0"
         style="stop-opacity:1;stop-color:#ffffff" /><stop
         id="stop734"
         offset="1"
         style="stop-opacity:1;stop-color:#231f20" /></linearGradient><clipPath
       id="clipPath740"
       clipPathUnits="userSpaceOnUse"><path
         id="path738"
         d="m 118.667,328.345 c 2.656,1.196 5.603,1.862 8.704,1.862 0.414,0 0.822,-0.017 1.228,-0.04 0.87,-0.083 2.83,-0.136 4.875,-1.033 0.649,-0.285 1.17,-0.6 1.58,-0.897 0.405,-0.267 0.756,-0.585 1.044,-0.937 0.069,-0.088 0.133,-0.177 0.197,-0.269 0.01,0.031 0.027,0.059 0.037,0.089 0.435,1.192 0.124,2.499 -0.707,3.524 -0.296,0.364 -0.659,0.692 -1.077,0.966 -0.423,0.307 -0.961,0.631 -1.629,0.926 -2.111,0.928 -4.134,0.982 -5.033,1.068 -0.419,0.024 -0.843,0.04 -1.268,0.04 -3.201,0 -6.243,-0.688 -8.985,-1.922 -7.619,-3.431 -12.925,-11.09 -12.925,-19.988 0,-4.37 1.28,-8.44 3.485,-11.858 -1.311,2.759 -2.047,5.846 -2.047,9.104 0,8.622 5.138,16.041 12.521,19.365" /></clipPath><linearGradient
       id="linearGradient746"
       spreadMethod="pad"
       gradientTransform="matrix(31.819864,0,0,-31.819864,104.7085,316.75977)"
       gradientUnits="userSpaceOnUse"
       y2="0"
       x2="1"
       y1="0"
       x1="0"><stop
         id="stop742"
         offset="0"
         style="stop-opacity:1;stop-color:#ffffff" /><stop
         id="stop744"
         offset="1"
         style="stop-opacity:1;stop-color:#231f20" /></linearGradient><mask
       id="mask748"
       height="1"
       width="1"
       y="0"
       x="0"
       maskUnits="userSpaceOnUse"><g
         id="g782"><g
           id="g780"
           clip-path="url(#clipPath722)"><path
             id="path750"
             style="fill:#000000;fill-opacity:1;fill-rule:nonzero;stroke:none"
             d="m 104.708,333.644 h 32.059 v -33.768 h -32.059 z" /><g
             id="g778"><g
               id="g752" /><g
               id="g776"><g
                 id="g774"
                 clip-path="url(#clipPath726)"><g
                   id="g762"><g
                     id="g760"
                     clip-path="url(#clipPath730)"><g
                       id="g758"><g
                         id="g756"><path
                           id="path754"
                           style="fill:url(#linearGradient736);stroke:none"
                           d="m 118.667,328.345 c 2.656,1.196 5.603,1.862 8.704,1.862 0.414,0 0.822,-0.017 1.228,-0.04 0.87,-0.083 2.83,-0.136 4.875,-1.033 0.649,-0.285 1.17,-0.6 1.58,-0.897 0.405,-0.267 0.756,-0.585 1.044,-0.937 0.069,-0.088 0.133,-0.177 0.197,-0.269 0.01,0.031 0.027,0.059 0.037,0.089 0.435,1.192 0.124,2.499 -0.707,3.524 -0.296,0.364 -0.659,0.692 -1.077,0.966 -0.423,0.307 -0.961,0.631 -1.629,0.926 -2.111,0.928 -4.134,0.982 -5.033,1.068 -0.419,0.024 -0.843,0.04 -1.268,0.04 -3.201,0 -6.243,-0.688 -8.985,-1.922 -7.619,-3.431 -12.925,-11.09 -12.925,-19.988 0,-4.37 1.28,-8.44 3.485,-11.858 -1.311,2.759 -2.047,5.846 -2.047,9.104 0,8.622 5.138,16.041 12.521,19.365" /></g></g></g></g><g
                   id="g772"><g
                     id="g770"
                     clip-path="url(#clipPath740)"><g
                       id="g768"><g
                         id="g766"><path
                           id="path764"
                           style="fill:url(#linearGradient746);stroke:none"
                           d="m 118.667,328.345 c 2.656,1.196 5.603,1.862 8.704,1.862 0.414,0 0.822,-0.017 1.228,-0.04 0.87,-0.083 2.83,-0.136 4.875,-1.033 0.649,-0.285 1.17,-0.6 1.58,-0.897 0.405,-0.267 0.756,-0.585 1.044,-0.937 0.069,-0.088 0.133,-0.177 0.197,-0.269 0.01,0.031 0.027,0.059 0.037,0.089 0.435,1.192 0.124,2.499 -0.707,3.524 -0.296,0.364 -0.659,0.692 -1.077,0.966 -0.423,0.307 -0.961,0.631 -1.629,0.926 -2.111,0.928 -4.134,0.982 -5.033,1.068 -0.419,0.024 -0.843,0.04 -1.268,0.04 -3.201,0 -6.243,-0.688 -8.985,-1.922 -7.619,-3.431 -12.925,-11.09 -12.925,-19.988 0,-4.37 1.28,-8.44 3.485,-11.858 -1.311,2.759 -2.047,5.846 -2.047,9.104 0,8.622 5.138,16.041 12.521,19.365" /></g></g></g></g></g></g></g></g></g></mask><clipPath
       id="clipPath790"
       clipPathUnits="userSpaceOnUse"><path
         id="path788"
         d="m 104.709,333.643 h 31.82 v -33.767 h -31.82 z" /></clipPath><clipPath
       id="clipPath794"
       clipPathUnits="userSpaceOnUse"><path
         id="path792"
         d="m 118.667,328.345 c 2.656,1.196 5.603,1.862 8.704,1.862 0.414,0 0.822,-0.017 1.228,-0.04 0.87,-0.083 2.83,-0.136 4.875,-1.033 0.649,-0.285 1.17,-0.6 1.58,-0.897 0.406,-0.267 0.756,-0.585 1.044,-0.937 0.069,-0.088 0.133,-0.177 0.197,-0.269 0.01,0.031 0.027,0.059 0.037,0.089 0.435,1.192 0.124,2.499 -0.706,3.524 -0.297,0.364 -0.66,0.692 -1.078,0.966 -0.423,0.307 -0.961,0.631 -1.629,0.926 -2.111,0.928 -4.134,0.982 -5.033,1.068 -0.419,0.024 -0.843,0.04 -1.268,0.04 -3.201,0 -6.243,-0.688 -8.985,-1.922 -7.619,-3.431 -12.924,-11.09 -12.924,-19.988 0,-4.37 1.279,-8.44 3.484,-11.858 -1.311,2.759 -2.047,5.846 -2.047,9.104 0,8.622 5.138,16.042 12.521,19.365" /></clipPath><radialGradient
       id="radialGradient800"
       spreadMethod="pad"
       gradientTransform="matrix(29.449343,0,0,-29.449343,115.68377,328.66577)"
       gradientUnits="userSpaceOnUse"
       r="1"
       cy="0"
       cx="0"
       fy="0"
       fx="0"><stop
         id="stop796"
         offset="0"
         style="stop-opacity:1;stop-color:#ffffff" /><stop
         id="stop798"
         offset="1"
         style="stop-opacity:1;stop-color:#4cc1f0" /></radialGradient><clipPath
       id="clipPath804"
       clipPathUnits="userSpaceOnUse"><path
         id="path802"
         d="m 118.667,328.345 c 2.656,1.196 5.603,1.862 8.704,1.862 0.414,0 0.822,-0.017 1.228,-0.04 0.87,-0.083 2.83,-0.136 4.875,-1.033 0.649,-0.285 1.17,-0.6 1.58,-0.897 0.406,-0.267 0.756,-0.585 1.044,-0.937 0.069,-0.088 0.133,-0.177 0.197,-0.269 0.01,0.031 0.027,0.059 0.037,0.089 0.435,1.192 0.124,2.499 -0.706,3.524 -0.297,0.364 -0.66,0.692 -1.078,0.966 -0.423,0.307 -0.961,0.631 -1.629,0.926 -2.111,0.928 -4.134,0.982 -5.033,1.068 -0.419,0.024 -0.843,0.04 -1.268,0.04 -3.201,0 -6.243,-0.688 -8.985,-1.922 -7.619,-3.431 -12.924,-11.09 -12.924,-19.988 0,-4.37 1.279,-8.44 3.484,-11.858 -1.311,2.759 -2.047,5.846 -2.047,9.104 0,8.622 5.138,16.042 12.521,19.365" /></clipPath><radialGradient
       id="radialGradient812"
       spreadMethod="pad"
       gradientTransform="matrix(29.449343,0,0,-29.449343,115.68377,328.66577)"
       gradientUnits="userSpaceOnUse"
       r="1"
       cy="0"
       cx="0"
       fy="0"
       fx="0"><stop
         id="stop806"
         offset="0"
         style="stop-opacity:1;stop-color:#4dbf5e" /><stop
         id="stop808"
         offset="0.37484762"
         style="stop-opacity:1;stop-color:#4dbf5e" /><stop
         id="stop810"
         offset="1"
         style="stop-opacity:1;stop-color:#59caf5" /></radialGradient></defs><g
     transform="matrix(1.3333333,0,0,-1.3333333,0,249.99998)"
     id="g10"><g
       transform="matrix(1.700881,0,0,1.700881,-166.71572,-412.01942)"
       id="g12"><g
         clip-path="url(#clipPath18)"
         id="g14"><g
           transform="translate(170.7989,315.9912)"
           id="g20"><path
             id="path22"
             style="fill:#59c134;fill-opacity:1;fill-rule:nonzero;stroke:none"
             d="m 0,0 c -1.209,0 -3.671,1.879 -5.773,1.879 -1.166,0 -2.199,-0.537 -2.199,-1.79 0,-3.001 11.199,-2.559 11.199,-9.894 0,-4.301 -3.631,-7.565 -9.178,-7.565 -3.629,0 -9,2.059 -9,4.968 0,0.984 0.982,2.866 2.777,2.866 2.507,0 3.625,-2.197 6.668,-2.197 1.972,0 2.551,0.629 2.551,1.838 0,2.954 -11.19,2.508 -11.19,9.895 0,4.479 3.622,7.523 8.73,7.523 3.175,0 8.056,-1.481 8.056,-4.659 C 2.641,1.387 1.525,0 0,0" /></g><g
           transform="translate(177.458,319.6241)"
           id="g24"><path
             id="path26"
             style="fill:#59c134;fill-opacity:1;fill-rule:nonzero;stroke:none"
             d="M 0,0 C 0,2.147 1.339,3.576 3.223,3.576 5.104,3.576 6.445,2.147 6.445,0 v -17.195 c 0,-2.149 -1.341,-3.581 -3.222,-3.581 -1.884,0 -3.223,1.432 -3.223,3.581 z m 6.557,9.413 c 0,-1.852 -1.481,-3.42 -3.334,-3.42 -1.776,0 -3.336,1.605 -3.336,3.42 0,1.687 1.56,3.253 3.336,3.253 1.768,0 3.334,-1.525 3.334,-3.253" /></g><g
           transform="translate(187.3706,319.6651)"
           id="g28"><path
             id="path30"
             style="fill:#59c134;fill-opacity:1;fill-rule:nonzero;stroke:none"
             d="m 0,0 c 0,2.146 1.342,3.58 3.222,3.58 1.658,0 2.73,-0.897 2.959,-2.421 1.564,1.702 3.623,2.691 5.998,2.691 2.686,0 4.965,-1.119 6.667,-3.272 1.789,2.057 4.612,3.272 6.803,3.272 5.243,0 8.822,-3.045 8.822,-8.69 v -12.354 c 0,-2.149 -1.342,-3.581 -3.222,-3.581 -1.882,0 -3.224,1.432 -3.224,3.581 v 11.237 c 0,2.599 -1.436,4.432 -3.765,4.432 -2.368,0 -3.802,-1.833 -3.802,-4.432 v -11.237 c 0,-2.149 -1.343,-3.581 -3.222,-3.581 -1.883,0 -3.224,1.432 -3.224,3.581 v 11.237 c 0,2.599 -1.432,4.432 -3.76,4.432 -2.641,0 -3.804,-1.833 -3.804,-4.432 v -11.237 c 0,-2.149 -1.343,-3.581 -3.226,-3.581 -1.88,0 -3.222,1.432 -3.222,3.581 z" /></g><g
           transform="translate(236.6768,304.5284)"
           id="g32"><path
             id="path34"
             style="fill:#59c134;fill-opacity:1;fill-rule:nonzero;stroke:none"
             d="m 0,0 c 3.358,0 5.015,3.491 5.015,6.489 0,3.05 -1.657,6.587 -5.015,6.587 -3.446,0 -5.061,-3.223 -5.061,-6.358 C -5.061,3.583 -3.538,0 0,0 m -11.505,15.137 c 0,2.146 1.339,3.58 3.224,3.58 1.791,0 2.821,-0.992 3.22,-2.691 1.215,1.969 3.723,2.96 6.134,2.96 6.945,0 10.392,-6.497 10.392,-12.762 0,-6.09 -4.122,-12.131 -10.608,-12.131 -2.015,0 -4.212,0.76 -5.918,2.237 v -7.874 c 0,-2.149 -1.338,-3.585 -3.22,-3.585 -1.885,0 -3.224,1.436 -3.224,3.585 z" /></g><g
           transform="translate(251.4502,330.0469)"
           id="g36"><path
             id="path38"
             style="fill:#59c134;fill-opacity:1;fill-rule:nonzero;stroke:none"
             d="M 0,0 C 0,2.148 1.349,3.581 3.226,3.581 5.108,3.581 6.45,2.148 6.45,0 v -27.576 c 0,-2.147 -1.342,-3.583 -3.224,-3.583 -1.877,0 -3.226,1.436 -3.226,3.583 z" /></g><g
           transform="translate(277.9014,313.2129)"
           id="g40"><path
             id="path42"
             style="fill:#59c134;fill-opacity:1;fill-rule:nonzero;stroke:none"
             d="M 0,0 C -0.356,2.82 -2.145,4.927 -5.145,4.927 -8.013,4.927 -9.939,2.731 -10.251,0 Z m -10.116,-4.297 c 0.451,-3.179 3.089,-4.656 6.09,-4.656 3.313,0 5.595,2.6 7.294,2.6 1.39,0 2.644,-1.388 2.644,-2.779 0,-2.773 -5.733,-5.462 -10.519,-5.462 -7.254,0 -12.089,5.285 -12.089,12.399 0,6.54 4.74,12.497 11.551,12.497 6.981,0 11.594,-6.364 11.594,-11.732 0,-1.927 -0.851,-2.867 -2.821,-2.867 z" /></g><g
           transform="translate(295.314,310.9121)"
           id="g44"><path
             id="path46"
             style="fill:#2aabe8;fill-opacity:1;fill-rule:nonzero;stroke:none"
             d="m 0,0 c 0,-1.604 0.35,-2.93 1.049,-3.979 0.817,-1.253 1.983,-1.878 3.497,-1.878 1.515,0 2.682,0.625 3.497,1.878 C 8.742,-2.9 9.094,-1.574 9.094,0 9.094,1.515 8.728,2.812 8,3.89 7.154,5.142 6.004,5.77 4.546,5.77 3.089,5.77 1.939,5.142 1.093,3.89 0.365,2.812 0,1.515 0,0 m -3.322,-21.156 c -2.303,0 -3.453,1.678 -3.453,5.031 v 23.2 c 0,3.325 1.15,4.989 3.453,4.989 1.312,0 2.404,-0.744 3.279,-2.23 1.515,1.574 3.41,2.36 5.681,2.36 3.147,0 5.728,-1.252 7.739,-3.757 1.834,-2.333 2.754,-5.115 2.754,-8.35 0,-3.234 -0.949,-6.047 -2.841,-8.438 -2.011,-2.621 -4.591,-3.932 -7.738,-3.932 -2.157,0 -3.964,0.67 -5.42,2.01 v -5.858 c 0,-3.348 -1.153,-5.025 -3.454,-5.025" /></g><g
           transform="translate(320.668,311.1094)"
           id="g48"><path
             id="path50"
             style="fill:#2aabe8;fill-opacity:1;fill-rule:nonzero;stroke:none"
             d="m 0,0 c 0,-1.552 0.348,-2.838 1.047,-3.864 0.815,-1.198 1.952,-1.797 3.411,-1.797 1.426,0 2.55,0.599 3.365,1.797 C 8.524,-2.811 8.874,-1.524 8.874,0 8.874,1.463 8.51,2.721 7.778,3.773 6.963,4.942 5.857,5.528 4.458,5.528 2.999,5.528 1.862,4.957 1.047,3.817 0.348,2.792 0,1.52 0,0 m 9.091,-9.64 c -1.371,-1.721 -3.294,-2.578 -5.77,-2.578 -3.146,0 -5.713,1.265 -7.695,3.795 -1.835,2.326 -2.752,5.106 -2.752,8.335 0,3.229 0.962,6.02 2.885,8.376 2.04,2.532 4.647,3.797 7.824,3.797 2.214,0 4.048,-0.816 5.508,-2.448 0.788,1.486 1.88,2.23 3.279,2.23 2.273,0 3.41,-1.664 3.41,-4.991 V -7.009 c 0,-3.357 -1.137,-5.036 -3.41,-5.036 -1.427,0 -2.521,0.803 -3.279,2.405" /></g><g
           transform="translate(356.8594,322.9766)"
           id="g52"><path
             id="path54"
             style="fill:#2aabe8;fill-opacity:1;fill-rule:nonzero;stroke:none"
             d="m 0,0 c 0.991,0 1.8,-0.3 2.427,-0.896 0.628,-0.6 0.94,-1.393 0.94,-2.383 0,-0.699 -0.192,-1.501 -0.568,-2.403 L -7.694,-30.598 c -0.784,-1.865 -1.792,-2.798 -3.015,-2.798 -1.019,0 -1.844,0.299 -2.469,0.896 -0.627,0.597 -0.94,1.405 -0.94,2.427 0,1.018 0.465,2.506 1.399,4.457 0.669,1.371 1.339,2.724 2.01,4.064 l -6.95,16.218 c -0.234,0.554 -0.348,1.296 -0.348,2.23 0,0.844 0.332,1.575 1.005,2.186 0.669,0.612 1.442,0.918 2.314,0.918 0.962,0 1.735,-0.339 2.319,-1.011 0.378,-0.465 0.772,-1.242 1.179,-2.321 l 3.892,-10.438 4.239,11.006 C -2.36,-0.922 -1.339,0 0,0" /></g><g
           transform="translate(268.3535,278.084)"
           id="g56"><path
             id="path58"
             style="fill:#918f90;fill-opacity:1;fill-rule:nonzero;stroke:none"
             d="m 0,0 c -1.131,0 -2.414,-0.575 -3.152,-4.085 -0.824,-3.903 0.818,-4.152 1.612,-4.152 0.722,0 2.26,0.393 3.026,4.13 C 2.021,-1.493 1.596,0 0,0 m 5.625,-4.107 c -1.035,-5.907 -4.71,-6.661 -7.823,-6.661 -3.071,0 -5.9,2.117 -5.098,6.691 0.624,3.575 2.748,6.883 7.908,6.63 3.6,-0.177 5.718,-2.644 5.013,-6.66" /></g><g
           transform="translate(281.8174,267.8233)"
           id="g60"><path
             id="path62"
             style="fill:#918f90;fill-opacity:1;fill-rule:nonzero;stroke:none"
             d="m 0,0 -0.194,-0.192 c -0.77,-0.145 -1.676,-0.266 -2.167,-0.266 -1.819,0 -4.487,0.276 -3.357,4.863 0.762,3.102 1.309,5.42 1.309,5.42 l -1.685,-0.047 -0.145,0.194 0.698,2.431 0.171,0.121 h 1.587 l 0.701,3.108 0.167,0.169 c 1.806,0.409 2.29,0.53 3.95,1.011 L 1.179,16.667 0.12,12.477 2.578,12.524 2.673,12.356 C 2.335,11.344 2.24,11.079 1.926,9.947 L 1.734,9.778 -0.481,9.825 c 0,0 -0.451,-1.867 -1.081,-4.471 -0.68,-2.813 -0.322,-2.669 0.358,-2.937 0.583,-0.231 1.349,0.062 1.782,0.207 L 0.721,2.505 Z" /></g><g
           transform="translate(288.5816,270.2325)"
           id="g64"><path
             id="path66"
             style="fill:#918f90;fill-opacity:1;fill-rule:nonzero;stroke:none"
             d="M 0,0 C 1.143,-0.138 2.384,0.24 3.227,0.938 4.191,1.756 5.059,3.442 5.059,5.274 5.059,7.297 3.757,7.538 3.276,7.538 2.577,7.538 2.048,7.177 1.54,6.839 Z M 1.951,9.224 C 2.577,9.657 3.613,10.38 5.177,10.38 7.587,10.38 9.2,8.574 9.2,5.515 9.2,3.78 8.598,1.732 7.347,0.215 4.962,-2.698 1.951,-2.675 -0.603,-2.675 l -1.371,-5.756 -0.169,-0.12 c -0.554,0 -1.084,0.024 -1.638,0.024 -0.817,0 -1.541,-0.048 -2.431,-0.073 l -0.122,0.169 c 0,0 0.849,2.553 1.905,6.941 1.109,4.605 2.145,10.002 2.236,11.098 l 0.169,0.169 4.119,0.675 0.146,-0.168 z" /></g><g
           transform="translate(230.8882,274.9131)"
           id="g68"><path
             id="path70"
             style="fill:#918f90;fill-opacity:1;fill-rule:evenodd;stroke:none"
             d="M 0,0 C 0,6.565 5.319,11.888 11.882,11.896 V 7.597 C 7.692,7.589 4.299,4.19 4.299,0 c 0,-4.197 3.401,-7.599 7.597,-7.599 4.171,0 7.597,3.369 7.597,7.626 l 4.299,-0.002 c 0,-6.596 -5.326,-11.921 -11.896,-11.921 C 5.327,-11.896 0,-6.571 0,0" /></g><g
           transform="translate(246.4717,281.5957)"
           id="g72"><path
             id="path74"
             style="fill:#918f90;fill-opacity:1;fill-rule:nonzero;stroke:none"
             d="M 0,0 C 0,1.672 1.354,3.025 3.024,3.025 4.696,3.025 6.049,1.672 6.049,0 6.049,-1.67 4.696,-3.023 3.024,-3.023 1.354,-3.023 0,-1.67 0,0" /></g><g
           transform="translate(237.5352,274.9121)"
           id="g76"><path
             id="path78"
             style="fill:#918f90;fill-opacity:1;fill-rule:nonzero;stroke:none"
             d="m 0,0 c 0,2.915 2.363,5.277 5.278,5.277 2.914,0 5.277,-2.362 5.277,-5.277 0,-2.914 -2.363,-5.277 -5.276,-5.277 C 2.363,-5.277 0,-2.914 0,0" /></g><g
           transform="translate(315.2242,267.7891)"
           id="g80"><path
             id="path82"
             style="fill:#918f90;fill-opacity:1;fill-rule:nonzero;stroke:none"
             d="m 0,0 -0.143,-0.125 -1.791,-0.037 -0.144,0.126 0.718,3.242 0.698,3.352 1.021,4.658 -4.085,-7.596 -1.971,-3.656 -0.142,-0.089 -1.776,-0.037 -0.088,0.126 -0.18,2.598 -0.574,8.582 -0.733,-2.884 -1.183,-4.391 -1.002,-3.923 -0.109,-0.089 -1.612,-0.019 -0.089,0.126 1.039,3.529 1.27,4.515 1.202,4.426 0.127,0.088 2.632,0.019 0.108,-0.107 0.196,-3.207 0.252,-3.494 c 0.144,-1.935 0.161,-2.311 0.213,-3.798 l 3.729,7.13 1.774,3.369 0.162,0.088 L 2.205,12.56 2.294,12.434 1.435,7.991 0.753,4.317 Z" /></g><g
           transform="translate(324.5425,273.7373)"
           id="g84"><path
             id="path86"
             style="fill:#918f90;fill-opacity:1;fill-rule:nonzero;stroke:none"
             d="m 0,0 c 0,1.811 -1.165,2.114 -1.827,2.114 -2.813,0 -3.172,-4.371 -3.172,-5.036 0,-1.432 0.861,-2.059 1.829,-2.059 1.917,0 2.634,1.971 2.955,3.44 C -0.09,-1.021 0,-0.502 0,0 m -3.207,-6.307 c -2.383,0 -3.691,1.237 -3.691,3.674 0,2.187 1.165,6.056 5.071,6.056 2.348,0 3.744,-1.309 3.744,-3.619 0,-0.628 -0.107,-1.274 -0.269,-1.901 -0.392,-1.54 -1.486,-4.21 -4.855,-4.21" /></g><g
           transform="translate(329.0591,269.043)"
           id="g88"><path
             id="path90"
             style="fill:#918f90;fill-opacity:1;fill-rule:nonzero;stroke:none"
             d="m 0,0 0.287,-0.018 c 0.932,0 2.222,0 3.387,0.789 C 5,1.685 5.625,3.279 5.625,4.426 5.625,6.056 4.641,6.683 3.494,6.683 2.58,6.683 1.933,6.289 1.361,5.932 Z m -2.186,-1.308 0.952,4.05 0.732,3.279 c 0.322,1.342 0.627,2.705 0.898,4.031 0.231,1.128 0.302,1.54 0.411,2.364 L 0.95,12.543 2.904,12.882 2.993,12.757 2.489,10.769 1.666,7.328 c 0.753,0.411 1.47,0.806 2.617,0.806 1.773,0 3.26,-1.199 3.26,-3.457 C 7.543,3.763 7.257,2.043 6.056,0.663 4.443,-1.182 2.455,-1.308 0.143,-1.396 h -0.986 l -1.254,-0.02 z" /></g><g
           transform="translate(341.6714,279.6143)"
           id="g92"><path
             id="path94"
             style="fill:#918f90;fill-opacity:1;fill-rule:nonzero;stroke:none"
             d="m 0,0 -0.143,-0.144 -1.879,-0.251 -0.107,0.144 0.376,1.648 0.16,0.143 1.864,0.233 0.143,-0.125 z m -2.58,-11.861 -0.125,-0.089 -1.899,-0.055 -0.089,0.109 c 0.501,2.005 0.645,2.598 1.128,4.765 l 0.233,1.11 c 0.323,1.452 0.378,1.792 0.574,3.083 l 0.125,0.125 1.952,0.286 0.091,-0.124 C -1.037,-4.39 -1.146,-4.874 -1.682,-7.309 L -2.06,-9.155 Z" /></g><g
           transform="translate(344.5044,273.8086)"
           id="g96"><path
             id="path98"
             style="fill:#918f90;fill-opacity:1;fill-rule:nonzero;stroke:none"
             d="m 0,0 c -0.681,-3.153 -0.771,-3.654 -1.199,-6.056 l -0.144,-0.106 -1.83,-0.056 -0.07,0.109 0.825,3.71 0.895,4.173 C -1.11,3.673 -0.645,5.877 -0.43,7.65 L -0.305,7.777 1.666,8.116 1.755,8.01 0.698,3.315 Z" /></g><g
           transform="translate(213.5059,270.6016)"
           id="g100"><path
             id="path102"
             style="fill:#918f90;fill-opacity:1;fill-rule:nonzero;stroke:none"
             d="M 0,0 C 0.17,0.524 0.231,1.176 0.231,2.098 0.231,3 0.17,3.649 0,4.194 c -0.335,0.987 -1.088,1.51 -2.202,1.51 -1.11,0 -1.886,-0.503 -2.221,-1.51 -0.168,-0.503 -0.232,-1.09 -0.232,-2.096 0,-1.007 0.064,-1.615 0.232,-2.098 0.335,-1.007 1.111,-1.531 2.221,-1.531 1.114,0 1.867,0.544 2.202,1.531 m -6.206,-2.936 c -0.127,0 -0.21,0.083 -0.21,0.21 v 13.841 c 0,0.126 0.083,0.209 0.21,0.209 h 1.341 c 0.128,0 0.21,-0.083 0.21,-0.209 V 5.956 h 0.021 c 0.483,0.798 1.342,1.384 2.853,1.384 1.739,0 2.957,-0.817 3.46,-2.411 0.273,-0.798 0.357,-1.594 0.357,-2.831 0,-1.259 -0.084,-2.054 -0.357,-2.853 -0.503,-1.594 -1.721,-2.411 -3.46,-2.411 -1.511,-10e-4 -2.37,0.608 -2.853,1.404 h -0.021 v -0.964 c 0,-0.127 -0.082,-0.21 -0.21,-0.21 z" /></g><g
           transform="translate(218.3697,263.8916)"
           id="g104"><path
             id="path106"
             style="fill:#918f90;fill-opacity:1;fill-rule:nonzero;stroke:none"
             d="m 0,0 c -0.125,0 -0.208,0.084 -0.208,0.209 v 1.216 c 0,0.127 0.083,0.211 0.208,0.211 h 0.38 c 0.816,0 1.257,0.356 1.698,1.51 l 0.335,0.923 -3.692,9.54 c -0.041,0.126 0.021,0.21 0.169,0.21 h 1.466 c 0.127,0 0.21,-0.063 0.252,-0.21 L 3.252,6.354 h 0.042 l 2.537,7.255 c 0.041,0.147 0.125,0.21 0.251,0.21 h 1.427 c 0.124,0 0.21,-0.084 0.165,-0.21 L 3.713,2.999 C 2.832,0.629 2.057,0 0.546,0 Z" /></g></g></g><g
       transform="matrix(1.700881,0,0,1.700881,-166.71572,-412.01942)"
       id="g108"><g
         clip-path="url(#clipPath114)"
         id="g110"><g
           id="g116"><g
             id="g118"><path
               id="path130"
               style="fill:url(#radialGradient128);stroke:none"
               d="m 119.386,316.792 c 0,-2.128 1.725,-3.852 3.852,-3.852 v 0 c 2.128,0 3.853,1.724 3.853,3.852 v 0 c 0,2.127 -1.725,3.853 -3.853,3.853 v 0 c -2.127,0 -3.852,-1.726 -3.852,-3.853" /></g></g></g></g><g
       transform="matrix(1.700881,0,0,1.700881,-166.71572,-412.01942)"
       id="g132"><g
         clip-path="url(#clipPath138)"
         id="g134"><g
           id="g140"><g
             id="g142"><path
               id="path152"
               style="fill:url(#radialGradient150);stroke:none"
               d="m 117.634,331.722 c -7.621,-3.431 -12.925,-11.09 -12.925,-19.987 v 0 c 0,-12.102 9.809,-21.91 21.909,-21.91 v 0 c 4.205,0 8.135,1.185 11.47,3.24 v 0 c 5.726,3.525 9.703,9.609 10.344,16.659 v 0 c 0.034,0.379 0.133,1.59 0.147,1.788 v 0 c 0.007,0.059 0.01,0.119 0.015,0.18 v 0 c 0.01,0.139 0.016,0.278 0.022,0.415 v 0 c 10e-4,0.064 0.003,0.128 0.005,0.194 v 0 c 0.002,0.141 0.002,0.283 0,0.425 v 0 c 0,0.051 0,0.102 -0.003,0.154 v 0 c -0.005,0.193 -0.014,0.387 -0.029,0.578 v 0 c 0,0.002 -0.002,0.006 -0.002,0.008 v 0 c -0.014,0.188 -0.035,0.372 -0.06,0.557 v 0 c -0.005,0.047 -0.012,0.094 -0.018,0.141 v 0 c -0.022,0.144 -0.043,0.285 -0.069,0.426 v 0 c -0.008,0.049 -0.018,0.099 -0.028,0.147 v 0 c -0.029,0.152 -0.061,0.303 -0.098,0.454 v 0 c -0.007,0.029 -0.013,0.059 -0.02,0.088 v 0 c -0.051,0.211 -0.066,0.333 -0.119,0.504 v 0 c -0.029,0.158 -0.084,0.26 -0.156,0.517 v 0 c -0.834,2.282 -2.357,4.115 -4.353,5.055 v 0 c -0.04,0.019 -0.081,0.038 -0.12,0.058 v 0 c -0.028,0.012 -0.054,0.022 -0.082,0.034 v 0 c -0.043,0.018 -0.087,0.038 -0.13,0.055 v 0 c -0.079,0.032 -0.159,0.064 -0.24,0.095 v 0 c -0.008,0.002 -0.015,0.005 -0.022,0.008 v 0 c -0.481,0.179 -0.984,0.307 -1.507,0.377 v 0 c -0.532,0.073 -1.059,0.079 -1.58,0.033 v 0 c 0.016,0.002 0.031,0.004 0.046,0.006 v 0 c -0.029,-0.004 -0.059,-0.008 -0.09,-0.009 v 0 c -0.043,-0.005 -0.086,-0.009 -0.129,-0.015 v 0 c -0.137,-0.015 -0.275,-0.036 -0.412,-0.057 v 0 c -1.269,-0.218 -2.474,-0.769 -3.537,-1.581 v 0 l 0.056,0.037 c 0,0 -0.968,-0.683 -2.051,-2.505 v 0 c -0.603,-1.016 -1.241,-2.385 -1.768,-4.184 v 0 c -0.038,-0.143 -0.078,-0.283 -0.119,-0.422 v 0 c 0,-0.002 -0.001,-0.003 -0.001,-0.003 v 0 c -0.341,-1.255 -0.811,-2.179 -1.262,-2.967 v 0 c -0.569,-0.995 -1.164,-1.754 -2.045,-2.48 v 0 c -1.759,-1.636 -3.963,-2.566 -6.268,-2.468 v 0 c -0.355,0.012 -0.713,0.044 -1.07,0.104 v 0 c -5.063,0.857 -8.336,6.476 -7.309,12.555 v 0 c 0.01,0.057 0.022,0.114 0.033,0.17 v 0 c 0.552,3.199 2.198,5.886 4.389,7.551 v 0 c 0.95,0.723 2.006,1.251 3.116,1.549 v 0 c 0.356,0.093 0.715,0.166 1.082,0.211 v 0 c 0.475,0.067 0.957,0.09 1.443,0.07 v 0 c 0.096,-0.006 0.195,-0.012 0.296,-0.022 v 0 c 0.584,-0.052 1.239,-0.173 1.956,-0.412 v 0 c 0.363,-0.12 0.74,-0.266 1.135,-0.45 v 0 c 1.547,-0.724 2.523,-1.251 3.446,-1.575 v 0 c 0.004,-0.003 0.006,-0.004 0.011,-0.005 v 0 c 0.002,-10e-4 0.005,-10e-4 0.009,-0.003 v 0 c 0.131,-0.049 0.262,-0.089 0.395,-0.124 v 0 c 0.013,-0.006 0.027,-0.009 0.041,-0.011 v 0 c 2.133,-0.571 4.292,0.332 4.954,2.145 v 0 c 0.435,1.192 0.124,2.5 -0.707,3.524 v 0 c -0.297,0.363 -0.659,0.692 -1.077,0.966 v 0 c -0.423,0.307 -0.961,0.631 -1.629,0.926 v 0 c -2.111,0.928 -4.134,0.981 -5.033,1.068 v 0 c -0.419,0.024 -0.843,0.039 -1.268,0.039 v 0 c -3.201,0 -6.243,-0.687 -8.984,-1.921 m 25.438,-10.117 c 0.004,-0.001 0.008,-0.003 0.012,-0.004 v 0 c -0.018,0.007 -0.036,0.015 -0.057,0.021 v 0 c 0.016,-0.005 0.03,-0.011 0.045,-0.017" /></g></g></g></g><g
       transform="matrix(1.700881,0,0,1.700881,-166.71572,-412.01942)"
       id="g154"><g
         clip-path="url(#clipPath160)"
         id="g156"><g
           id="g162"><g
             id="g164"><path
               id="path174"
               style="fill:url(#radialGradient172);stroke:none"
               d="m 109.652,325.595 c -3.09,-3.776 -4.943,-8.601 -4.943,-13.86 v 0 c 0,-0.909 0.055,-1.805 0.163,-2.682 v 0 c 0.153,1.398 0.6,2.893 1.308,4.422 v 0 c -0.011,2.274 0.386,4.696 1.243,7.108 v 0 c 0.89,2.506 2.174,4.711 3.694,6.507 v 0 c -0.504,-0.484 -0.993,-0.986 -1.465,-1.495" /></g></g></g></g><g
       transform="matrix(1.700881,0,0,1.700881,-166.71572,-412.01942)"
       id="g176"><g
         clip-path="url(#clipPath182)"
         id="g178"><g
           id="g184"><g
             id="g186" /><g
             mask="url(#mask296)"
             id="g412"><g
               id="g414" /><g
               id="g622"><g
                 style="opacity:0.69999701"
                 id="g620"
                 clip-path="url(#clipPath418)"><g
                   id="g528"><g
                     id="g526"
                     clip-path="url(#clipPath422)"><g
                       id="g524"><g
                         id="g522"><path
                           id="path520"
                           style="fill:url(#radialGradient428);stroke:none"
                           d="m 123.974,289.983 c -3.773,0.586 -7.418,2.072 -10.549,4.258 3.008,-2.271 6.619,-3.784 10.549,-4.258" /></g></g></g></g><g
                   id="g538"><g
                     id="g536"
                     clip-path="url(#clipPath432)"><g
                       id="g534"><g
                         id="g532"><path
                           id="path530"
                           style="fill:url(#radialGradient438);stroke:none"
                           d="m 110.429,303.024 c 0.574,-0.41 1.173,-0.721 1.788,-0.955 -1.995,0.902 -3.546,2.549 -4.577,4.665 0.328,-0.783 0.769,-1.512 1.352,-2.17 0.42,-0.572 0.9,-1.091 1.437,-1.54" /></g></g></g></g><g
                   id="g548"><g
                     id="g546"
                     clip-path="url(#clipPath442)"><g
                       id="g544"><g
                         id="g542"><path
                           id="path540"
                           style="fill:url(#radialGradient448);stroke:none"
                           d="m 110.429,303.024 c 0.574,-0.41 1.173,-0.721 1.788,-0.955 -1.995,0.902 -3.546,2.549 -4.577,4.665 0.328,-0.783 0.769,-1.512 1.352,-2.17 0.42,-0.572 0.9,-1.091 1.437,-1.54" /></g></g></g></g><g
                   id="g558"><g
                     id="g556"
                     clip-path="url(#clipPath452)"><g
                       id="g554"><g
                         id="g552"><path
                           id="path550"
                           style="fill:url(#radialGradient458);stroke:none"
                           d="m 112.217,302.069 c 0.206,-0.093 0.415,-0.195 0.637,-0.258 -0.218,0.077 -0.431,0.165 -0.637,0.258" /></g></g></g></g><g
                   id="g568"><g
                     id="g566"
                     clip-path="url(#clipPath462)"><g
                       id="g564"><g
                         id="g562"><path
                           id="path560"
                           style="fill:url(#radialGradient468);stroke:none"
                           d="m 123.331,303.765 c 6.292,2.948 15.893,1.068 21.276,-4.531 -5.383,5.599 -15.093,7.701 -21.276,4.531" /></g></g></g></g><g
                   id="g578"><g
                     id="g576"
                     clip-path="url(#clipPath472)"><g
                       id="g574"><g
                         id="g572"><path
                           id="path570"
                           style="fill:url(#radialGradient478);stroke:none"
                           d="m 123.331,303.765 c -5.348,-2.506 -7.818,-2.731 -10.477,-1.954 2.192,-0.78 4.186,-1.27 10.477,1.954" /></g></g></g></g><g
                   id="g588"><g
                     id="g586"
                     clip-path="url(#clipPath482)"><g
                       id="g584"><g
                         id="g582"><path
                           id="path580"
                           style="fill:url(#radialGradient488);stroke:none"
                           d="m 123.331,303.765 c -5.348,-2.506 -7.818,-2.731 -10.477,-1.954 2.192,-0.78 4.186,-1.27 10.477,1.954" /></g></g></g></g><g
                   id="g598"><g
                     id="g596"
                     clip-path="url(#clipPath492)"><g
                       id="g594"><g
                         id="g592"><path
                           id="path590"
                           style="fill:url(#radialGradient498);stroke:none"
                           d="m 123.331,303.765 c -6.291,-3.224 -8.285,-2.734 -10.477,-1.954 -0.222,0.063 -0.431,0.165 -0.637,0.258 -0.615,0.234 -1.214,0.545 -1.788,0.955 -0.537,0.449 -1.017,0.968 -1.437,1.54 -0.583,0.658 -1.024,1.387 -1.352,2.17 -0.94,1.928 -1.447,4.246 -1.46,6.742 -0.708,-1.53 -1.155,-3.025 -1.308,-4.423 0.737,-6.04 3.932,-11.32 8.553,-14.812 3.131,-2.186 6.776,-3.672 10.549,-4.258 0.867,-0.102 1.75,-0.158 2.644,-0.158 4.205,0 8.134,1.185 11.47,3.24 2.575,1.586 4.795,3.692 6.519,6.169 -5.383,5.599 -14.984,7.479 -21.276,4.531" /></g></g></g></g><g
                   id="g608"><g
                     id="g606"
                     clip-path="url(#clipPath502)"><g
                       id="g604"><g
                         id="g602"><path
                           id="path600"
                           style="fill:url(#radialGradient508);stroke:none"
                           d="m 107.423,320.583 c 0.89,2.506 2.173,4.711 3.694,6.507 -0.504,-0.484 -0.993,-0.985 -1.465,-1.495 -3.09,-3.776 -4.943,-8.601 -4.943,-13.861 0,-0.908 0.055,-1.803 0.163,-2.681 0.153,1.398 0.6,2.893 1.308,4.423 -0.012,2.273 0.386,4.695 1.243,7.107" /></g></g></g></g><g
                   id="g618"><g
                     id="g616"
                     clip-path="url(#clipPath512)"><g
                       id="g614"><g
                         id="g612"><path
                           id="path610"
                           style="fill:url(#radialGradient518);stroke:none"
                           d="m 123.331,303.765 c -6.291,-3.224 -8.285,-2.734 -10.477,-1.954 -0.222,0.063 -0.431,0.165 -0.637,0.258 -0.615,0.234 -1.214,0.545 -1.788,0.955 -0.537,0.449 -1.017,0.968 -1.437,1.54 -0.583,0.658 -1.024,1.387 -1.352,2.17 -0.94,1.928 -1.447,4.246 -1.46,6.742 -0.012,2.273 0.386,4.695 1.243,7.107 0.89,2.506 2.173,4.711 3.694,6.507 -0.504,-0.484 -0.993,-0.985 -1.465,-1.495 -3.09,-3.776 -4.943,-8.601 -4.943,-13.861 0,-0.908 0.055,-1.803 0.163,-2.681 0.737,-6.04 3.932,-11.32 8.553,-14.812 3.131,-2.186 6.776,-3.672 10.549,-4.258 0.867,-0.102 1.75,-0.158 2.644,-0.158 4.205,0 8.134,1.185 11.47,3.24 2.575,1.586 4.795,3.692 6.519,6.169 -5.383,5.599 -14.984,7.479 -21.276,4.531" /></g></g></g></g></g></g></g></g><g
           id="g624"><g
             id="g626" /><g
             mask="url(#mask650)"
             id="g684"><g
               id="g686" /><g
               id="g714"><g
                 style="opacity:0.94999701"
                 id="g712"
                 clip-path="url(#clipPath690)"><g
                   id="g710"><g
                     id="g708"
                     clip-path="url(#clipPath694)"><g
                       id="g706"><g
                         id="g704"><path
                           id="path702"
                           style="fill:url(#radialGradient700);stroke:none"
                           d="m 132.396,305.125 c -2.973,-9.221 -5.379,-10.677 -8.259,-12.046 -0.278,-0.154 -0.576,-0.256 -0.87,-0.366 -0.821,-0.371 -1.703,-0.647 -2.655,-0.807 -0.956,-0.087 -1.924,-0.048 -2.887,0.1 -0.274,0.016 -0.544,0.045 -0.812,0.082 2.926,-1.448 6.221,-2.263 9.705,-2.263 4.205,0 8.134,1.185 11.47,3.24 5.726,3.525 9.703,9.609 10.344,16.66 0.034,0.379 0.132,1.589 0.148,1.787 0.006,0.059 0.009,0.119 0.013,0.179 0.01,0.14 0.016,0.279 0.023,0.415 10e-4,0.065 0.003,0.129 0.005,0.195 0.003,0.141 0.003,0.283 0,0.425 0,0.051 0,0.102 -0.003,0.155 -0.005,0.192 -0.014,0.386 -0.029,0.577 0,0.002 -0.002,0.006 -0.002,0.009 -0.014,0.187 -0.035,0.371 -0.06,0.556 -0.005,0.047 -0.011,0.094 -0.018,0.141 -0.022,0.144 -0.043,0.285 -0.07,0.427 -0.007,0.048 -0.017,0.098 -0.027,0.146 -0.029,0.153 -0.061,0.303 -0.098,0.453 -0.006,0.03 -0.013,0.06 -0.02,0.089 -0.052,0.211 -0.066,0.333 -0.119,0.504 -0.029,0.158 -0.084,0.26 -0.156,0.517 -0.374,1.02 -0.885,1.95 -1.514,2.752 -6.514,-2.859 -11.993,-8.079 -14.109,-13.927" /></g></g></g></g></g></g></g></g><g
           id="g716"><g
             id="g718" /><g
             mask="url(#mask748)"
             id="g784"><g
               id="g786" /><g
               id="g836"><g
                 id="g834"
                 clip-path="url(#clipPath790)"><g
                   id="g822"><g
                     id="g820"
                     clip-path="url(#clipPath794)"><g
                       id="g818"><g
                         id="g816"><path
                           id="path814"
                           style="fill:url(#radialGradient800);stroke:none"
                           d="m 118.667,328.345 c 2.656,1.196 5.603,1.862 8.704,1.862 0.414,0 0.822,-0.017 1.228,-0.04 0.87,-0.083 2.83,-0.136 4.875,-1.033 0.649,-0.285 1.17,-0.6 1.58,-0.897 0.406,-0.267 0.756,-0.585 1.044,-0.937 0.069,-0.088 0.133,-0.177 0.197,-0.269 0.01,0.031 0.027,0.059 0.037,0.089 0.435,1.192 0.124,2.499 -0.706,3.524 -0.297,0.364 -0.66,0.692 -1.078,0.966 -0.423,0.307 -0.961,0.631 -1.629,0.926 -2.111,0.928 -4.134,0.982 -5.033,1.068 -0.419,0.024 -0.843,0.04 -1.268,0.04 -3.201,0 -6.243,-0.688 -8.985,-1.922 -7.619,-3.431 -12.924,-11.09 -12.924,-19.988 0,-4.37 1.279,-8.44 3.484,-11.858 -1.311,2.759 -2.047,5.846 -2.047,9.104 0,8.622 5.138,16.042 12.521,19.365" /></g></g></g></g><g
                   id="g832"><g
                     id="g830"
                     clip-path="url(#clipPath804)"><g
                       id="g828"><g
                         id="g826"><path
                           id="path824"
                           style="fill:url(#radialGradient812);stroke:none"
                           d="m 118.667,328.345 c 2.656,1.196 5.603,1.862 8.704,1.862 0.414,0 0.822,-0.017 1.228,-0.04 0.87,-0.083 2.83,-0.136 4.875,-1.033 0.649,-0.285 1.17,-0.6 1.58,-0.897 0.406,-0.267 0.756,-0.585 1.044,-0.937 0.069,-0.088 0.133,-0.177 0.197,-0.269 0.01,0.031 0.027,0.059 0.037,0.089 0.435,1.192 0.124,2.499 -0.706,3.524 -0.297,0.364 -0.66,0.692 -1.078,0.966 -0.423,0.307 -0.961,0.631 -1.629,0.926 -2.111,0.928 -4.134,0.982 -5.033,1.068 -0.419,0.024 -0.843,0.04 -1.268,0.04 -3.201,0 -6.243,-0.688 -8.985,-1.922 -7.619,-3.431 -12.924,-11.09 -12.924,-19.988 0,-4.37 1.279,-8.44 3.484,-11.858 -1.311,2.759 -2.047,5.846 -2.047,9.104 0,8.622 5.138,16.042 12.521,19.365" /></g></g></g></g></g></g></g></g></g></g></g></svg>